<?xml version="1.0" encoding="utf-8"?>
<!-- Generator: Adobe Illustrator 25.0.0, SVG Export Plug-In . SVG Version: 6.00 Build 0)  -->
<svg version="1.1" id="Layer_1" xmlns="http://www.w3.org/2000/svg" xmlns:xlink="http://www.w3.org/1999/xlink" x="0px" y="0px"
	 viewBox="0 0 2000 2000" style="enable-background:new 0 0 2000 2000;" xml:space="preserve">
<style type="text/css">
	.st0{fill:#E7A800;}
	.st1{fill:#FFFFFF;}
</style>
<g>
	<path class="st0" d="M994.68,619.92L852.2,733.95v366.52h142.48C994.68,1100.48,995.15,659.43,994.68,619.92z"/>
	<path class="st1" d="M1005.32,619.92l142.48,114.03v366.52C1147.8,1100.48,1004.85,659.43,1005.32,619.92z"/>
	<path class="st0" d="M1237.34,798.47l-89.54,71.67v230.35h89.54C1237.34,1100.48,1237.64,823.3,1237.34,798.47z"/>
	<path class="st1" d="M1244.04,798.47l89.54,71.67v230.35C1333.58,1100.48,1243.74,823.3,1244.04,798.47z"/>
	<path class="st0" d="M755.96,798.47l-89.54,71.67v230.35h89.54C755.96,1100.48,756.26,823.3,755.96,798.47z"/>
	<path class="st1" d="M762.66,798.47l89.54,71.67v230.35C852.2,1100.48,762.36,823.3,762.66,798.47z"/>
	<g>
		<path class="st1" d="M379.22,1265.21c-2.74,0-5.72-0.51-8.84-1.5c-2.01-0.66-3.44-2.01-4.36-4.12c-0.94-2.17-1.76-5.79-2.42-10.79
			l-13.2-93.7c-0.54-3.44-1.55-5.11-3.1-5.11c-1.28,0-2.47,1.29-3.63,3.92l-39.01,85.61l-39.16-84.56c-1.58-3.4-2.96-4.97-4.35-4.97
			c-1.53,0-2.52,1.46-2.95,4.36l-14.36,98.85c-1.02,7.12-2.89,11.02-5.57,11.57c-1.32,0.3-2.72,0.45-4.25,0.45
			c-1.86,0-2.8,0.52-2.8,1.54c0,0.98,0.54,2.14,3.09,2.14c1.74,0,4.4-0.08,7.92-0.23c3.51-0.15,5.67-0.23,6.44-0.23
			c0.57,0,2.68,0.08,6.29,0.23c3.61,0.15,6.62,0.23,8.94,0.23c2.63,0,3.96-0.72,3.96-2.14c0-0.7-0.46-1.54-2.66-1.54
			c-1.89,0-3.9-0.25-5.98-0.75c-2.68-0.65-3.98-2.08-3.98-4.38c0-2.41,0.15-4.8,0.43-7.07l7.45-59.64
			c6.77,14.98,11.61,25.82,14.83,33.15c1.92,4.65,7.39,15.94,16.7,34.51c3.43,6.93,4.7,7.86,5.5,7.86c0.87,0,2.24-1.04,5.81-8.79
			l31.38-68.43l8.61,66.03c0.61,5-0.14,5.87-0.5,6.01c-1.51,0.61-1.83,1.49-1.83,2.12c0,1.62,2.66,2,4.66,2.15
			c7.32,0.6,17.23,0.9,29.47,0.9c2.83,0,4.25-0.72,4.25-2.14C382.02,1265.73,381.08,1265.21,379.22,1265.21z"/>
		<path class="st1" d="M537.61,1153.33c-2.22,0-5.49,0.08-9.73,0.23c-4.22,0.15-6.51,0.23-6.78,0.23c-6.84-0.3-12.47-0.45-16.7-0.45
			c-2.35,0-3.53,0.62-3.53,1.84c0,0.84,0.51,1.85,2.95,1.85c2.08,0,3.8,0.15,5.11,0.44c3.67,0.86,5.59,3.55,5.88,8.21
			c0.19,3.38,0.29,14.5,0.29,32.16v18.98c0,9.61-0.39,16.84-1.15,21.48c-1.24,6.85-3.63,12.17-7.13,15.84
			c-5.1,5.34-11.71,8.05-19.66,8.05c-7.11,0-13.1-2.06-17.82-6.12c-7.39-6.35-11.14-18.79-11.14-36.98v-21.25
			c0-18.33,0.09-28.84,0.29-32.16c0.28-4.96,1.91-7.64,4.97-8.21c1.61-0.29,2.99-0.44,4.12-0.44c2.31,0,2.8-1,2.8-1.85
			c0-1.84-2.76-1.84-3.67-1.84c-1.83,0-5.03,0.08-9.52,0.23c-4.47,0.15-7.27,0.23-8.32,0.23c-1.15,0-4.3-0.08-9.34-0.23
			c-5.06-0.15-9.05-0.23-11.85-0.23c-0.91,0-3.66,0-3.66,1.84c0,0.84,0.51,1.84,2.94,1.84c2.41,0,4.23,0.15,5.55,0.45
			c3.67,0.86,5.58,3.54,5.87,8.19c0.2,3.31,0.29,13.82,0.29,32.12v22.13c0,18.75,4.39,32.39,13.06,40.52
			c7.41,7.03,18.35,10.6,32.53,10.6c12.05,0,22.31-3.71,30.49-11.04c5.56-5,9.46-12.02,11.61-20.87c1.55-6.39,2.33-14.85,2.33-25.13
			v-16.22c0-18.3,0.09-28.81,0.29-32.12c0.28-4.96,1.91-7.63,4.97-8.19c1.6-0.3,2.98-0.45,4.12-0.45c2.55,0,3.09-0.99,3.09-1.84
			C541.13,1153.95,539.95,1153.33,537.61,1153.33z"/>
		<path class="st1" d="M670.47,1244.29c-0.8,0-1.8,0.47-2.07,2.69c-0.38,3.53-1.61,6.5-3.65,8.83c-2.4,2.71-8,4.08-16.61,4.08
			c-9.11,0-14.91-1.08-17.23-3.21c-0.86-0.77-1.98-3.08-2.45-9.69c-0.29-3.62-0.43-11-0.43-22.56v-26.68
			c0-18.3,0.09-28.81,0.29-32.12c0.28-4.96,1.91-7.63,4.97-8.19c1.6-0.3,3.46-0.45,5.58-0.45c2.05,0,3.09-0.62,3.09-1.84
			s-1.18-1.84-3.52-1.84c-2.03,0-5.62,0.08-10.68,0.23c-5.04,0.15-8.09,0.23-9.05,0.23c-1.05,0-4.02-0.08-8.82-0.23
			c-4.83-0.15-8.54-0.23-11.05-0.23c-0.91,0-3.67,0-3.67,1.84c0,0.84,0.51,1.84,2.95,1.84c3.56,0,6.1,0.49,7.56,1.44
			c1.8,1.23,2.81,3.65,2.98,7.21c0.2,3.31,0.29,13.82,0.29,32.12v26.68c0,17.46-0.24,28.31-0.72,32.24
			c-0.55,4.81-1.84,7.47-3.76,7.91c-1.51,0.1-2.95,0.26-4.36,0.46c-1.56,0.14-3.62,0.5-3.62,1.84c0,1.32,1.14,1.99,3.38,1.99
			c2.12,0,5.52-0.08,10.1-0.23c4.56-0.15,7.31-0.23,8.18-0.23c3.17,0,9.12,0.15,17.68,0.45c8.48,0.31,16.73,0.46,24.53,0.46
			c3.15,0,5.05-0.1,5.77-0.31c1.91-0.46,3.21-1.85,3.84-4.14c1.45-5.58,2.18-11.48,2.18-17.56
			C672.1,1245.31,671.56,1244.29,670.47,1244.29z"/>
		<path class="st1" d="M813.5,1152.5l-0.02-0.08h-0.44v0.48l-0.13-0.44c-0.11,0.04-0.76,0.16-3.86,0.64
			c-2.84,0.45-6.19,0.69-9.93,0.69h-57.44c-4.41,0-9.27-0.25-14.46-0.76c-1.3-0.09-2.55-0.4-3.75-0.95
			c-1.76-0.77-2.24-0.87-2.52-0.87c-1.24,0-1.86,1.85-2.22,3.26c-2.06,9.01-3.05,14.76-3.05,17.54c0,2.4,0.97,2.9,1.78,2.9
			c0.7,0,1.63-0.38,2.07-2.19c0.37-1.54,1.17-3.28,2.4-5.16c1.64-2.57,6.24-3.97,13.67-4.17l21.13-0.59v61.66
			c0,16.96-0.24,27.8-0.72,32.24c-0.55,4.81-1.85,7.47-3.77,7.91c-1.5,0.1-2.98,0.26-4.36,0.46c-1.56,0.14-3.62,0.49-3.62,1.84
			c0,1.32,1.14,1.99,3.38,1.99c2.12,0,5.52-0.08,10.1-0.23c4.56-0.15,7.31-0.23,8.18-0.23c0.85,0,3.98,0.08,9.27,0.23
			c5.28,0.15,9.83,0.23,13.5,0.23c2.68,0,3.24-1.08,3.24-1.99c0-0.77-0.49-1.69-2.81-1.69c-2.07,0-4.53-0.21-7.32-0.61
			c-2.98-0.47-4.7-3.01-5.25-7.76c-0.49-4.41-0.73-15.31-0.73-32.39v-61.67l17.79,0.44c10.59,0.3,16.19,3.01,16.65,8.05l0.14,1.68
			c0.08,0.85,0.34,3.46,2.07,3.46c0.97,0,1.52-0.91,1.64-2.71c0.09-1.49,0.22-4.59,0.37-9.2c0.15-4.97,0.22-7.5,0.22-8.45
			C814.68,1155.25,814.68,1152.96,813.5,1152.5z"/>
		<path class="st1" d="M913.13,1265.21c-2.05,0-4.49-0.21-7.26-0.61c-3.23-0.47-4.97-2.76-5.34-6.99
			c-0.38-4.04-0.57-14.88-0.57-33.16v-26.68c0-17.99,0.09-28.81,0.28-32.12c0.28-4.96,1.89-7.63,4.92-8.19
			c1.57-0.3,3.05-0.45,4.42-0.45c2.23,0,2.56-1.25,2.56-1.99c0-1.69-2.66-1.69-3.53-1.69c-2.03,0-5.25,0.08-9.59,0.23
			c-4.32,0.15-7.04,0.23-8.1,0.23c-1.25,0-4.24-0.08-8.9-0.23c-4.68-0.15-8.03-0.23-9.96-0.23c-1.7,0-3.96,0.17-3.96,1.69
			c0,0.91,0.53,1.99,3.02,1.99c1.63,0,3.28,0.21,4.88,0.59c2.8,0.76,4.29,3.39,4.57,8.05c0.2,3.31,0.29,13.82,0.29,32.12v26.68
			c0,17.47-0.24,28.59-0.72,33.08c-0.46,4.25-1.75,6.64-3.76,7.08c-1.51,0.1-2.95,0.26-4.36,0.46c-1.56,0.14-3.62,0.5-3.62,1.84
			c0,1.32,1.14,1.99,3.38,1.99c2.12,0,5.52-0.08,10.1-0.23c4.56-0.15,7.31-0.23,8.18-0.23s3.96,0.08,9.21,0.23
			c5.24,0.15,9.76,0.23,13.42,0.23c2.68,0,3.24-1.08,3.24-1.99C915.92,1266.13,915.44,1265.21,913.13,1265.21z"/>
		<path class="st1" d="M1044.07,1152.16l-0.42-0.06v0.48c0.01,0-0.03,0.01-0.02,0.01l-0.21-0.36c-0.05,0.03-0.36,0.19-2.16,0.79
			c-2.4,0.39-4.38,0.6-5.89,0.6c-1.98,0.1-14.5,0.15-38.27,0.15c-1.15,0-4.24-0.08-9.19-0.23c-4.97-0.15-8.91-0.23-11.7-0.23
			c-2.53,0-3.81,0.67-3.81,1.99c0,1.13,0.99,1.69,2.94,1.69c2.41,0,4.23,0.15,5.55,0.45c3.67,0.86,5.58,3.54,5.87,8.19
			c0.2,3.31,0.29,13.82,0.29,32.12v26.68c0,17.46-0.24,28.31-0.72,32.24c-0.55,4.81-1.84,7.47-3.76,7.91
			c-1.51,0.1-2.9,0.26-4.21,0.46c-1.56,0.14-3.62,0.49-3.62,1.84c0,1.32,1.18,1.99,3.52,1.99c2.06,0,5.31-0.08,9.96-0.23
			c4.56-0.15,7.41-0.23,8.47-0.23c0.76,0,3.78,0.08,8.98,0.23c5.19,0.15,9.59,0.23,13.07,0.23c2.43,0,3.66-0.67,3.66-1.99
			c0-1.13-0.99-1.69-2.97-1.69c-2,0-4.43-0.21-7.24-0.61c-3.01-0.47-4.75-3.06-5.3-7.91c-0.49-4.41-0.73-15.25-0.73-32.24v-12.28
			c0-0.88,0.34-0.88,0.54-0.88c11.97,0,19.2,0.15,21.49,0.45c3.72,0.48,6.02,2.17,7.01,5.06c0.2,1.31,0.45,2.66,0.73,3.94
			c0.23,1.52,0.65,3.28,1.78,3.28c1.29,0,1.94-1.13,1.94-3.35c0-3.27,0.2-6.98,0.58-11.02c0.19-1.72,0.43-3.74,0.72-6.05
			c0.37-2.58,0.44-3.2,0.44-3.4c0-1.6-0.84-1.84-1.35-1.84c-0.66,0-1.38,0.54-2.28,1.7c-1.07,1.41-2.97,2.26-5.69,2.55
			c-0.43,0.09-2.7,0.14-6.74,0.14h-18.65c-0.2,0-0.54,0-0.54-0.87v-37.63c0-1.62,0.6-1.62,0.82-1.62l22.43,0.45
			c4.92,0.09,8.01,1.51,9.18,4.21c0.56,1.24,0.84,3.09,0.84,5.53c0.14,2.36,1.13,2.84,1.92,2.84c0.72,0,1.64-0.44,1.93-2.57
			c0.29-4.75,0.53-8.84,0.72-12.26c0.18-1.46,0.42-2.98,0.71-4.49c0.44-1.85,0.44-2.25,0.44-2.38
			C1045.14,1152.71,1044.56,1152.29,1044.07,1152.16z"/>
		<path class="st1" d="M1202.91,1265.21c-2.26,0-4.28-0.21-5.99-0.6c-4.26-0.96-8.44-6.42-12.42-16.23
			c-14.94-38.34-27.04-69.71-35.98-93.25c-1.46-3.51-2.76-5.14-4.06-5.14c-1.41,0-2.84,2.03-4.51,6.37l-36.41,95.22
			c-1.61,4.28-3.2,7.4-4.71,9.26c-1.88,2.36-4.23,3.69-7.23,4.06c-1.43,0.21-2.92,0.31-4.43,0.31c-1.93,0-2.22,1.06-2.22,1.69
			c0,0.91,0.56,1.99,3.24,1.99c2.98,0,8.75-0.15,17.11-0.45c1.44,0,3.99,0.08,7.6,0.23c3.61,0.15,6.22,0.23,7.77,0.23
			c2.44,0,2.95-1.08,2.95-1.99c0-0.77-0.46-1.69-2.66-1.69h-2.17c-3.59,0-5.33-1.38-5.33-4.22c0-2.04,0.72-5.09,2.15-9.09
			l7.84-21.68c0.32-0.89,0.71-0.89,0.85-0.89h32.35c0.32,0,0.72,0.08,0.99,0.74l11.6,32.15c0.32,0.85,0.37,1.54,0.13,2.01
			c-0.18,0.38-0.55,0.67-1.02,0.84c-2.04,0.14-2.47,1.08-2.47,1.84c0,1.06,1.44,1.57,4.82,1.69c6.16,0.21,15.12,0.3,27.43,0.3
			c2.6,0,4.34-0.1,5.31-0.31c1.52-0.31,1.84-1.08,1.84-1.68C1205.27,1266.27,1204.96,1265.21,1202.91,1265.21z M1154.2,1220.73
			c0,0-0.08,0.06-0.32,0.06h-26.69c-0.1,0-0.15-0.02-0.16-0.02c0,0-0.05-0.1,0.03-0.4l13.37-37.36c0.14-0.69,0.31-0.91,0.32-0.98
			c0.06,0.08,0.2,0.33,0.36,1.04l13.04,37.43C1154.19,1220.65,1154.19,1220.73,1154.2,1220.73z"/>
		<path class="st1" d="M1386.39,1265.21c-2.74,0-5.72-0.51-8.84-1.5c-2.01-0.66-3.44-2.01-4.36-4.12
			c-0.94-2.17-1.76-5.79-2.42-10.79l-13.2-93.7c-0.54-3.44-1.55-5.11-3.1-5.11c-1.28,0-2.47,1.29-3.63,3.92l-39.01,85.61
			l-39.16-84.56c-1.58-3.4-2.96-4.97-4.35-4.97c-1.53,0-2.53,1.46-2.95,4.36l-14.36,98.85c-1.02,7.12-2.89,11.02-5.57,11.57
			c-1.32,0.3-2.72,0.45-4.25,0.45c-1.86,0-2.8,0.52-2.8,1.54c0,0.98,0.54,2.14,3.09,2.14c1.74,0,4.4-0.08,7.92-0.23
			c3.51-0.15,5.67-0.23,6.44-0.23c0.57,0,2.68,0.08,6.29,0.23c3.61,0.15,6.62,0.23,8.94,0.23c2.63,0,3.96-0.72,3.96-2.14
			c0-0.7-0.46-1.54-2.66-1.54c-1.89,0-3.9-0.25-5.98-0.75c-2.68-0.65-3.98-2.08-3.98-4.38c0-2.41,0.15-4.8,0.43-7.07l7.45-59.64
			c6.77,14.98,11.61,25.82,14.83,33.15c1.92,4.65,7.39,15.94,16.7,34.51c3.43,6.93,4.7,7.86,5.5,7.86c0.87,0,2.24-1.04,5.81-8.79
			l31.38-68.43l8.61,66.03c0.61,5-0.14,5.87-0.5,6.01c-1.51,0.61-1.83,1.49-1.83,2.12c0,1.62,2.66,2,4.66,2.15
			c7.32,0.6,17.23,0.9,29.47,0.9c2.83,0,4.25-0.72,4.25-2.14C1389.19,1265.73,1388.25,1265.21,1386.39,1265.21z"/>
		<path class="st1" d="M1484.16,1265.21c-2.05,0-4.49-0.21-7.26-0.61c-3.23-0.47-4.97-2.76-5.34-6.99
			c-0.38-4.04-0.57-14.88-0.57-33.16v-26.68c0-17.99,0.09-28.81,0.28-32.12c0.28-4.96,1.89-7.63,4.92-8.19
			c1.57-0.3,3.05-0.45,4.42-0.45c2.23,0,2.56-1.25,2.56-1.99c0-1.69-2.66-1.69-3.53-1.69c-2.03,0-5.25,0.08-9.59,0.23
			c-4.32,0.15-7.04,0.23-8.1,0.23c-1.25,0-4.24-0.08-8.9-0.23c-4.68-0.15-8.03-0.23-9.96-0.23c-1.7,0-3.96,0.17-3.96,1.69
			c0,0.91,0.53,1.99,3.02,1.99c1.63,0,3.28,0.21,4.88,0.59c2.8,0.76,4.29,3.39,4.57,8.05c0.2,3.31,0.29,13.82,0.29,32.12v26.68
			c0,17.47-0.24,28.59-0.72,33.08c-0.46,4.25-1.75,6.64-3.76,7.08c-1.51,0.1-2.95,0.26-4.36,0.46c-1.56,0.14-3.62,0.5-3.62,1.84
			c0,1.32,1.14,1.99,3.38,1.99c2.12,0,5.52-0.08,10.1-0.23c4.56-0.15,7.31-0.23,8.18-0.23s3.96,0.08,9.21,0.23
			c5.24,0.15,9.76,0.23,13.42,0.23c2.68,0,3.24-1.08,3.24-1.99C1486.95,1266.13,1486.47,1265.21,1484.16,1265.21z"/>
		<path class="st1" d="M1619.62,1244.29c-0.8,0-1.8,0.47-2.07,2.69c-0.38,3.53-1.61,6.5-3.65,8.83c-2.4,2.71-8,4.08-16.61,4.08
			c-9.11,0-14.91-1.08-17.23-3.21c-0.86-0.77-1.98-3.08-2.45-9.69c-0.29-3.62-0.43-11-0.43-22.56v-26.68
			c0-18.3,0.09-28.81,0.29-32.12c0.28-4.96,1.91-7.63,4.97-8.19c1.6-0.3,3.46-0.45,5.58-0.45c2.05,0,3.09-0.62,3.09-1.84
			s-1.18-1.84-3.52-1.84c-2.03,0-5.62,0.08-10.68,0.23c-5.04,0.15-8.09,0.23-9.05,0.23c-1.05,0-4.02-0.08-8.82-0.23
			c-4.83-0.15-8.54-0.23-11.05-0.23c-0.91,0-3.67,0-3.67,1.84c0,0.84,0.51,1.84,2.95,1.84c3.56,0,6.1,0.49,7.56,1.44
			c1.8,1.23,2.81,3.65,2.98,7.21c0.2,3.31,0.29,13.82,0.29,32.12v26.68c0,17.46-0.24,28.31-0.72,32.24
			c-0.55,4.81-1.84,7.47-3.76,7.91c-1.51,0.1-2.95,0.26-4.36,0.46c-1.56,0.14-3.62,0.5-3.62,1.84c0,1.32,1.14,1.99,3.38,1.99
			c2.12,0,5.52-0.08,10.1-0.23c4.56-0.15,7.31-0.23,8.18-0.23c3.17,0,9.12,0.15,17.68,0.45c8.48,0.31,16.73,0.46,24.53,0.46
			c3.15,0,5.05-0.1,5.77-0.31c1.91-0.46,3.21-1.85,3.84-4.14c1.45-5.58,2.18-11.48,2.18-17.56
			C1621.25,1245.31,1620.7,1244.29,1619.62,1244.29z"/>
		<path class="st1" d="M1765.68,1153.33c-0.88,0-3.38,0.08-7.63,0.23c-4.18,0.15-6.83,0.23-7.88,0.23c-1.34,0-3.56-0.08-6.58-0.23
			c-3.04-0.15-5.42-0.23-7.06-0.23c-2.44,0-2.95,0.99-2.95,1.84c0,0.88,1.01,1.53,3.2,2.06c1.65,0.4,2.46,1.46,2.46,3.25
			c0,2.05-0.67,4.64-1.98,7.67c-7.57,14.76-14.74,28.52-21.34,40.9c-15.92-29.08-23.84-43.64-24.21-44.52
			c-1.41-3.06-1.71-4.38-1.71-4.96c0-1.29,0.53-2,1.69-2.26c2.52-0.72,3.54-1.34,3.54-2.13c0-0.69-0.35-1.84-2.66-1.84
			c-2.41,0-5.44,0.08-9.01,0.23c-3.56,0.15-5.74,0.23-6.51,0.23c-1.73,0-5.06-0.08-9.91-0.23c-4.94-0.15-7.67-0.23-8.36-0.23
			c-2.14,0-3.23,0.62-3.23,1.84c0,0.84,0.46,1.84,2.66,1.84c1.74,0,3.71,0.64,5.85,1.91c3.02,1.78,6.34,5.45,9.85,10.91
			c2.42,3.87,7.17,11.87,14.13,23.79c7.21,12.37,10.82,18.67,11.36,19.81c2.19,5.18,3.3,10.48,3.3,15.73v12.44
			c0,5.62-0.15,10.72-0.43,15.13c-0.28,4.69-1.66,7.35-4.05,7.88c-1.5,0.1-2.9,0.26-4.24,0.46c-2.5,0.36-3.6,0.92-3.6,1.84
			c0,1.32,1.23,1.99,3.67,1.99c1.92,0,5.2-0.08,9.74-0.23c4.51-0.15,7.34-0.23,8.39-0.23c0.86,0,3.93,0.08,9.12,0.23
			c5.2,0.15,9.6,0.23,13.07,0.23c2.35,0,3.53-0.67,3.53-1.99c0-0.77-0.49-1.69-2.83-1.69c-2,0-4.43-0.21-7.26-0.61
			c-3-0.38-4.74-2.27-5.3-5.82c-0.48-2.59-0.72-8.37-0.72-17.2v-12.44c0-6.36,0.72-11.4,2.15-14.98
			c1.37-3.33,5.79-11.53,13.14-24.36c7.38-12.86,12.29-20.85,14.59-23.73c2.95-3.68,5.57-6.14,7.77-7.31
			c2.21-1.17,4.23-1.76,6.04-1.76c2.74,0,3.31-1.08,3.31-1.99C1768.76,1153.89,1767.72,1153.33,1765.68,1153.33z"/>
	</g>
	<g>
		<g>
			<path class="st0" d="M587.25,1302.06c-1.55,0-3.95,0.05-7.22,0.15c-3.27,0.1-5.54,0.15-6.83,0.15c-0.71,0-2.73-0.05-6.06-0.15
				c-3.32-0.1-5.96-0.15-7.89-0.15c-1.43,0-2.13,0.3-2.13,0.91s0.54,0.91,1.64,0.91c1.61,0,2.87,0.1,3.78,0.3
				c2.58,0.61,3.97,2.53,4.17,5.78c0.13,2.22,0.2,9.39,0.2,21.48v17.83c0,11.75-0.17,18.95-0.49,21.58
				c-0.38,3.38-1.32,5.24-2.81,5.58c-0.98,0.07-1.94,0.17-2.91,0.3c-1.43,0.14-2.13,0.44-2.13,0.91c0,0.68,0.64,1.01,1.93,1.01
				c1.42,0,3.67-0.05,6.74-0.15s4.89-0.15,5.47-0.15c0.52,0,2.53,0.05,6.06,0.15c3.52,0.1,6.5,0.15,8.96,0.15
				c1.23,0,1.84-0.34,1.84-1.01c0-0.54-0.52-0.81-1.55-0.81c-1.43,0-3.07-0.13-4.95-0.4c-2.13-0.34-3.39-2.16-3.77-5.47
				c-0.33-2.98-0.49-10.2-0.49-21.68v-40.53c0-1.08,0.3-1.74,0.92-1.97c0.61-0.24,1.82-0.36,3.63-0.36c3.69,0,6.92,1.31,9.7,3.95
				c3.81,3.58,5.72,8.64,5.72,15.2c0,4.8-1.48,8.88-4.46,12.26c-2.65,2.98-5.49,4.46-8.53,4.46c-1.8,0-2.71,0.38-2.71,1.12
				c0,0.47,0.39,0.78,1.16,0.91c0.33,0.07,1,0.1,2.04,0.1c6.92,0,12.62-2.3,17.11-6.89c4.49-4.6,6.74-10.48,6.74-17.64
				c0-4.86-1.62-8.88-4.85-12.05C601.41,1303.98,595.4,1302.06,587.25,1302.06z"/>
			<path class="st0" d="M722.58,1376.73c-0.71-0.07-1.45-0.13-2.22-0.2c-3.69-0.74-7.3-3.04-10.86-6.89
				c-2.52-2.7-5.66-6.52-9.41-11.45c-0.71-0.81-4.59-5.88-11.63-15.2c8.53-7.23,12.79-14.79,12.79-22.7c0-3.11-0.77-6.02-2.33-8.72
				c-1.23-2.29-2.65-4.02-4.26-5.16c-4.07-2.91-10.02-4.36-17.83-4.36c-0.98,0-3.22,0.05-6.74,0.15c-3.52,0.1-5.83,0.15-6.93,0.15
				c-0.39,0-2.21-0.05-5.43-0.15c-3.23-0.1-5.85-0.15-7.85-0.15c-1.43,0-2.13,0.3-2.13,0.91s0.54,0.91,1.64,0.91
				c1.61,0,2.87,0.1,3.78,0.3c2.58,0.61,3.97,2.53,4.17,5.78c0.13,2.22,0.2,9.39,0.2,21.48v17.83c0,11.75-0.17,18.95-0.49,21.58
				c-0.38,3.38-1.32,5.24-2.81,5.58c-0.98,0.07-1.94,0.17-2.91,0.3c-1.43,0.14-2.13,0.44-2.13,0.91c0,0.68,0.64,1.01,1.93,1.01
				c1.48,0,3.72-0.05,6.69-0.15c2.97-0.1,4.68-0.15,5.13-0.15c0.13,0,1.99,0.05,5.58,0.15s6.48,0.15,8.67,0.15
				c1.3,0,1.94-0.34,1.94-1.01c0-0.54-0.39-0.81-1.16-0.81c-1.23,0-2.82-0.13-4.75-0.4c-2.14-0.27-3.4-2.11-3.78-5.54
				c-0.33-2.95-0.49-10.13-0.49-21.53v-1.41c0-0.54,0.26-0.81,0.78-0.81h8.43c0.78,0,1.36,0.24,1.75,0.71
				c3.62,5.2,6.82,9.86,9.6,13.98c5.68,8.18,10.11,13.14,13.27,14.9c2.26,1.29,5.73,1.92,10.37,1.92h9.21
				c1.23,0,1.85-0.34,1.85-1.01C724.23,1377.17,723.68,1376.87,722.58,1376.73z M677.21,1342.28c-3.1,0-5.56-0.34-7.37-1.01
				c-0.58-0.2-0.87-0.81-0.87-1.82v-30.81c0-0.6,0.16-1.01,0.49-1.21c0.58-0.4,2.42-0.61,5.53-0.61c3.61,0,6.81,1.29,9.59,3.85
				c3.49,3.38,5.24,8.28,5.24,14.69c0,7.24-1.91,12.3-5.73,15.21C682.61,1341.71,680.32,1342.28,677.21,1342.28z"/>
			<path class="st0" d="M787.32,1300.64c-13.31,0-23.62,4.45-30.92,13.37c-6.07,7.37-9.11,16.14-9.11,26.35
				c0,10.33,3.04,19.19,9.11,26.54c7.17,8.79,17.16,13.18,29.95,13.18c12.08,0,21.84-4.03,29.28-12.06
				c7.24-7.77,10.85-17.6,10.85-29.48c0-11.62-3.52-20.84-10.56-27.66C808.88,1304.05,799.35,1300.64,787.32,1300.64z
				 M804.19,1369.64c-3.75,3.58-8.34,5.37-13.76,5.37c-9.05,0-16.32-3.68-21.81-11.05c-5.3-6.96-7.95-15.87-7.95-26.75
				c0-11.48,2.58-19.92,7.75-25.32c4.07-4.26,9.43-6.38,16.1-6.38c8.14,0,14.86,3.28,20.16,9.83c5.49,6.89,8.23,15.87,8.23,26.95
				C812.91,1355.05,810.01,1364.17,804.19,1369.64z"/>
			<path class="st0" d="M895.21,1302.06c-1.55,0-3.95,0.05-7.22,0.15c-3.27,0.1-5.54,0.15-6.83,0.15c-0.71,0-2.73-0.05-6.06-0.15
				c-3.32-0.1-5.96-0.15-7.89-0.15c-1.43,0-2.13,0.3-2.13,0.91s0.54,0.91,1.64,0.91c1.61,0,2.87,0.1,3.78,0.3
				c2.58,0.61,3.97,2.53,4.17,5.78c0.13,2.22,0.2,9.39,0.2,21.48v17.83c0,11.75-0.17,18.95-0.49,21.58
				c-0.38,3.38-1.32,5.24-2.81,5.58c-0.98,0.07-1.94,0.17-2.91,0.3c-1.43,0.14-2.13,0.44-2.13,0.91c0,0.68,0.64,1.01,1.93,1.01
				c1.42,0,3.67-0.05,6.74-0.15s4.89-0.15,5.47-0.15c0.52,0,2.53,0.05,6.06,0.15c3.52,0.1,6.5,0.15,8.96,0.15
				c1.23,0,1.84-0.34,1.84-1.01c0-0.54-0.52-0.81-1.55-0.81c-1.43,0-3.07-0.13-4.95-0.4c-2.13-0.34-3.39-2.16-3.77-5.47
				c-0.33-2.98-0.49-10.2-0.49-21.68v-40.53c0-1.08,0.3-1.74,0.92-1.97c0.61-0.24,1.82-0.36,3.63-0.36c3.69,0,6.92,1.31,9.7,3.95
				c3.81,3.58,5.72,8.64,5.72,15.2c0,4.8-1.48,8.88-4.46,12.26c-2.65,2.98-5.49,4.46-8.53,4.46c-1.8,0-2.71,0.38-2.71,1.12
				c0,0.47,0.39,0.78,1.16,0.91c0.33,0.07,1,0.1,2.04,0.1c6.92,0,12.62-2.3,17.11-6.89c4.49-4.6,6.74-10.48,6.74-17.64
				c0-4.86-1.62-8.88-4.85-12.05C909.37,1303.98,903.36,1302.06,895.21,1302.06z"/>
			<path class="st0" d="M1003.88,1363.26c-0.52,0-0.87,0.51-1.06,1.52c-0.65,3.91-2.11,6.41-4.38,7.49
				c-1.69,0.82-4.73,1.22-9.14,1.22c-4.87,0-8-0.53-9.4-1.57c-1.4-1.05-2.16-3.36-2.28-6.95v-23.71c0-0.68,0.19-1.01,0.58-1.01
				c7.4,0,12.01,0.1,13.82,0.31c3.12,0.34,4.94,1.65,5.45,3.95c0.26,1.61,0.39,2.78,0.39,3.49s0.29,1.06,0.87,1.06
				s0.87-0.64,0.87-1.92c0-0.68,0.13-2.94,0.39-6.79c0.13-2.03,0.29-3.81,0.49-5.37c0.19-1.29,0.29-1.96,0.29-2.03
				c0-0.54-0.23-0.81-0.69-0.81c-0.26,0-0.78,0.44-1.56,1.31c-0.45,0.54-1.16,0.95-2.14,1.22c-0.58,0.13-1.43,0.23-2.53,0.3
				c-1.49,0.13-6.68,0.2-15.57,0.2c-0.45,0-0.68-0.37-0.68-1.11v-25.63c0-0.68,0.23-1.01,0.68-1.01c7.01,0,11.61,0.13,13.82,0.4
				c3.57,0.47,5.74,1.69,6.52,3.65c0.2,0.54,0.32,1.15,0.38,1.82c0.07,0.68,0.15,1.38,0.24,2.13c0.1,0.74,0.38,1.11,0.83,1.11
				c0.53,0,0.84-0.37,0.98-1.11c0.26-2.64,0.44-4.87,0.54-6.69c0.1-1.82,0.24-3.41,0.44-4.76c0.19-1.15,0.29-1.76,0.29-1.83
				c0-0.6-0.2-0.91-0.58-0.91c0.07,0-0.45,0.14-1.55,0.4c-1.1,0.27-2.49,0.48-4.17,0.61c-0.84,0.07-8.92,0.1-24.24,0.1
				c-0.71,0-2.73-0.05-6.06-0.15c-3.32-0.1-5.96-0.15-7.89-0.15c-1.43,0-2.13,0.3-2.13,0.91s0.54,0.91,1.64,0.91
				c1.61,0,2.87,0.1,3.78,0.3c2.58,0.61,3.97,2.53,4.17,5.78c0.13,2.22,0.2,9.39,0.2,21.48v17.83c0,11.75-0.17,18.95-0.49,21.58
				c-0.38,3.38-1.32,5.24-2.81,5.58c-0.98,0.07-1.94,0.17-2.91,0.3c-1.43,0.14-2.13,0.44-2.13,0.91c0,0.68,0.64,1.01,1.93,1.01
				c1.42,0,3.67-0.05,6.74-0.15s4.89-0.15,5.47-0.15c1.16,0,4.52,0.1,10.08,0.3c5.56,0.21,11.15,0.31,16.77,0.31
				c2,0,3.29-0.14,3.88-0.4c0.58-0.27,1.03-1.01,1.36-2.23c0.84-3.38,1.26-7.12,1.26-11.24
				C1004.66,1363.86,1004.39,1363.26,1003.88,1363.26z"/>
			<path class="st0" d="M1118.93,1376.73c-0.71-0.07-1.45-0.13-2.22-0.2c-3.69-0.74-7.3-3.04-10.86-6.89
				c-2.52-2.7-5.66-6.52-9.41-11.45c-0.71-0.81-4.59-5.88-11.63-15.2c8.53-7.23,12.79-14.79,12.79-22.7c0-3.11-0.77-6.02-2.33-8.72
				c-1.23-2.29-2.65-4.02-4.26-5.16c-4.07-2.91-10.02-4.36-17.83-4.36c-0.98,0-3.22,0.05-6.74,0.15c-3.52,0.1-5.83,0.15-6.93,0.15
				c-0.39,0-2.21-0.05-5.43-0.15c-3.23-0.1-5.85-0.15-7.85-0.15c-1.43,0-2.13,0.3-2.13,0.91s0.54,0.91,1.64,0.91
				c1.61,0,2.87,0.1,3.78,0.3c2.58,0.61,3.97,2.53,4.17,5.78c0.13,2.22,0.2,9.39,0.2,21.48v17.83c0,11.75-0.17,18.95-0.49,21.58
				c-0.38,3.38-1.32,5.24-2.81,5.58c-0.98,0.07-1.94,0.17-2.91,0.3c-1.43,0.14-2.13,0.44-2.13,0.91c0,0.68,0.64,1.01,1.93,1.01
				c1.48,0,3.72-0.05,6.69-0.15c2.97-0.1,4.68-0.15,5.13-0.15c0.13,0,1.99,0.05,5.58,0.15c3.59,0.1,6.48,0.15,8.67,0.15
				c1.3,0,1.94-0.34,1.94-1.01c0-0.54-0.39-0.81-1.16-0.81c-1.23,0-2.82-0.13-4.75-0.4c-2.14-0.27-3.4-2.11-3.78-5.54
				c-0.33-2.95-0.49-10.13-0.49-21.53v-1.41c0-0.54,0.26-0.81,0.78-0.81h8.43c0.78,0,1.36,0.24,1.75,0.71
				c3.62,5.2,6.82,9.86,9.6,13.98c5.68,8.18,10.11,13.14,13.27,14.9c2.26,1.29,5.73,1.92,10.37,1.92h9.21
				c1.23,0,1.85-0.34,1.85-1.01C1120.59,1377.17,1120.03,1376.87,1118.93,1376.73z M1073.57,1342.28c-3.1,0-5.56-0.34-7.37-1.01
				c-0.58-0.2-0.87-0.81-0.87-1.82v-30.81c0-0.6,0.16-1.01,0.49-1.21c0.58-0.4,2.42-0.61,5.53-0.61c3.61,0,6.81,1.29,9.59,3.85
				c3.49,3.38,5.24,8.28,5.24,14.69c0,7.24-1.91,12.3-5.73,15.21C1078.97,1341.71,1076.68,1342.28,1073.57,1342.28z"/>
			<path class="st0" d="M1204.53,1301.45c0.2,0-0.68,0.15-2.61,0.45c-1.94,0.31-4.17,0.46-6.69,0.46h-38.39
				c-2.97,0-6.19-0.17-9.69-0.51c-0.91-0.07-1.78-0.28-2.62-0.66c-0.84-0.38-1.36-0.55-1.55-0.55c-0.46,0-0.84,0.64-1.16,1.92
				c-1.36,5.94-2.04,9.83-2.04,11.65c0,1.08,0.29,1.62,0.87,1.62c0.52,0,0.87-0.4,1.06-1.22c0.26-1.08,0.81-2.26,1.65-3.55
				c1.16-1.82,4.3-2.8,9.41-2.94l14.44-0.4v41.54c0,11.41-0.16,18.61-0.48,21.58c-0.38,3.38-1.32,5.24-2.82,5.58
				c-0.97,0.07-1.93,0.17-2.9,0.3c-1.43,0.14-2.14,0.44-2.14,0.91c0,0.68,0.65,1.01,1.94,1.01c1.42,0,3.67-0.05,6.74-0.15
				s4.89-0.15,5.47-0.15c0.58,0,2.65,0.05,6.2,0.15c3.56,0.1,6.56,0.15,9.01,0.15c1.23,0,1.85-0.34,1.85-1.01
				c0-0.54-0.52-0.81-1.56-0.81c-1.42,0-3.07-0.13-4.94-0.4c-2.13-0.34-3.4-2.16-3.78-5.47c-0.33-2.98-0.49-10.2-0.49-21.68v-41.54
				l12.22,0.31c7.3,0.2,11.11,2.09,11.43,5.67l0.1,1.12c0.12,1.35,0.48,2.03,1.06,2.03c0.45,0,0.71-0.51,0.78-1.51
				c0.07-1,0.14-3.05,0.24-6.14c0.09-3.09,0.14-4.97,0.14-5.64C1205.31,1302.15,1205.04,1301.45,1204.53,1301.45z"/>
			<path class="st0" d="M1271.42,1376.83c-1.41,0-3.04-0.13-4.9-0.4c-2.31-0.34-3.59-1.99-3.84-4.97c-0.26-2.7-0.38-10.1-0.38-22.19
				v-17.83c0-12.09,0.06-19.25,0.19-21.48c0.19-3.44,1.37-5.38,3.55-5.78c1.08-0.2,2.08-0.3,3.01-0.3s1.39-0.34,1.39-1.01
				c0-0.54-0.68-0.81-2.04-0.81c-1.35,0-3.49,0.05-6.39,0.15c-2.91,0.1-4.72,0.15-5.43,0.15c-0.84,0-2.83-0.05-5.96-0.15
				c-3.14-0.1-5.35-0.15-6.64-0.15c-1.56,0-2.33,0.26-2.33,0.81c0,0.68,0.56,1.01,1.7,1.01c1.13,0,2.24,0.13,3.34,0.4
				c2,0.54,3.1,2.43,3.29,5.68c0.13,2.22,0.2,9.39,0.2,21.48v17.83c0,11.75-0.17,19.13-0.49,22.14c-0.33,3-1.26,4.67-2.81,5.01
				c-0.98,0.07-1.94,0.17-2.91,0.3c-1.43,0.14-2.13,0.44-2.13,0.91c0,0.68,0.64,1.01,1.93,1.01c1.42,0,3.67-0.05,6.74-0.15
				s4.89-0.15,5.47-0.15s2.64,0.05,6.16,0.15s6.51,0.15,8.96,0.15c1.23,0,1.85-0.34,1.85-1.01
				C1272.96,1377.1,1272.45,1376.83,1271.42,1376.83z"/>
			<path class="st0" d="M1359.53,1363.26c-0.52,0-0.87,0.51-1.06,1.52c-0.65,3.91-2.11,6.41-4.38,7.49
				c-1.69,0.82-4.73,1.22-9.14,1.22c-4.87,0-8-0.53-9.4-1.57c-1.4-1.05-2.16-3.36-2.28-6.95v-23.71c0-0.68,0.19-1.01,0.58-1.01
				c7.4,0,12.01,0.1,13.82,0.31c3.12,0.34,4.94,1.65,5.45,3.95c0.26,1.61,0.39,2.78,0.39,3.49s0.29,1.06,0.87,1.06
				c0.58,0,0.87-0.64,0.87-1.92c0-0.68,0.13-2.94,0.39-6.79c0.13-2.03,0.29-3.81,0.49-5.37c0.19-1.29,0.29-1.96,0.29-2.03
				c0-0.54-0.23-0.81-0.69-0.81c-0.26,0-0.78,0.44-1.56,1.31c-0.45,0.54-1.16,0.95-2.14,1.22c-0.58,0.13-1.43,0.23-2.53,0.3
				c-1.49,0.13-6.68,0.2-15.57,0.2c-0.45,0-0.68-0.37-0.68-1.11v-25.63c0-0.68,0.23-1.01,0.68-1.01c7.01,0,11.61,0.13,13.82,0.4
				c3.57,0.47,5.74,1.69,6.52,3.65c0.2,0.54,0.32,1.15,0.38,1.82s0.15,1.38,0.24,2.13c0.1,0.74,0.38,1.11,0.83,1.11
				c0.53,0,0.84-0.37,0.98-1.11c0.26-2.64,0.44-4.87,0.54-6.69c0.1-1.82,0.24-3.41,0.44-4.76c0.19-1.15,0.29-1.76,0.29-1.83
				c0-0.6-0.2-0.91-0.58-0.91c0.07,0-0.45,0.14-1.55,0.4c-1.1,0.27-2.49,0.48-4.17,0.61c-0.84,0.07-8.92,0.1-24.24,0.1
				c-0.71,0-2.73-0.05-6.06-0.15c-3.32-0.1-5.96-0.15-7.89-0.15c-1.43,0-2.13,0.3-2.13,0.91s0.54,0.91,1.64,0.91
				c1.61,0,2.87,0.1,3.78,0.3c2.58,0.61,3.97,2.53,4.17,5.78c0.13,2.22,0.2,9.39,0.2,21.48v17.83c0,11.75-0.17,18.95-0.49,21.58
				c-0.38,3.38-1.32,5.24-2.81,5.58c-0.98,0.07-1.94,0.17-2.91,0.3c-1.43,0.14-2.13,0.44-2.13,0.91c0,0.68,0.64,1.01,1.93,1.01
				c1.42,0,3.67-0.05,6.74-0.15s4.89-0.15,5.47-0.15c1.16,0,4.52,0.1,10.08,0.3c5.56,0.21,11.15,0.31,16.77,0.31
				c2,0,3.29-0.14,3.88-0.4c0.58-0.27,1.03-1.01,1.36-2.23c0.84-3.38,1.26-7.12,1.26-11.24
				C1360.3,1363.86,1360.04,1363.26,1359.53,1363.26z"/>
			<path class="st0" d="M1439.3,1345.17c-2.39-3.89-6.5-8.13-12.31-12.72l-2.72-2.13c-3.94-3.11-6.64-5.73-8.09-7.85
				c-1.45-2.13-2.18-4.37-2.18-6.74c0-3.11,1.03-5.62,3.1-7.55c2.06-1.92,4.88-2.89,8.44-2.89c4.51,0,8.04,1.65,10.56,4.97
				c1.68,2.22,2.52,4.46,2.52,6.68c0,1.22,0.32,1.83,0.97,1.83c0.71,0,1.07-1.01,1.07-3.04c0-3.17,0.06-6.03,0.19-8.56
				c0.13-2.53,0.2-3.74,0.2-3.59c0-0.54-0.45-0.95-1.36-1.22c-4.39-1.15-8.69-1.72-12.89-1.72c-6.65,0-12.05,1.78-16.19,5.37
				c-4.13,3.58-6.2,8.17-6.2,13.78c0,8.18,4.79,16.17,14.35,24.01l4.46,3.65c6.33,5.2,9.5,10.61,9.5,16.21c0,2.98-1.07,5.57-3.2,7.8
				c-2.46,2.5-5.72,3.75-9.79,3.75c-7.3,0-11.92-3.41-13.86-10.23c-0.58-2.03-0.87-3.75-0.87-5.16c0-1.15-0.32-1.73-0.97-1.73
				s-1.03,0.88-1.16,2.64c-0.32,5.2-0.49,9.62-0.49,13.27c0,1.76,0.62,2.9,1.85,3.44c3.81,1.76,8.52,2.64,14.15,2.64
				c6.2,0,11.35-1.39,15.41-4.16c6.07-4.12,9.11-10,9.11-17.63C1442.89,1353.43,1441.69,1349.06,1439.3,1345.17z"/>
		</g>
	</g>
	<g>
		<rect x="1495.18" y="1336.48" class="st1" width="273.58" height="7.76"/>
		<rect x="231.24" y="1336.48" class="st1" width="273.58" height="7.76"/>
	</g>
</g>
</svg>
