<?xml version="1.0" encoding="utf-8"?>
<!-- Generator: Adobe Illustrator 25.0.0, SVG Export Plug-In . SVG Version: 6.00 Build 0)  -->
<svg version="1.1" id="Layer_1" xmlns="http://www.w3.org/2000/svg" xmlns:xlink="http://www.w3.org/1999/xlink" x="0px" y="0px"
	 viewBox="0 0 2000 2000" style="enable-background:new 0 0 2000 2000;" xml:space="preserve">
<style type="text/css">
	.st0{fill:#E7A800;}
	.st1{fill:#3B1E34;}
</style>
<g>
	<g>
		<path class="st0" d="M449.44,858.87l-83.68,66.98v215.27h83.68C449.44,1141.13,449.72,882.08,449.44,858.87z"/>
		<path class="st1" d="M455.7,858.87l83.68,66.98v215.27C539.38,1141.13,455.42,882.08,455.7,858.87z"/>
		<path class="st0" d="M591.97,963.74l-52.59,42.09v135.29h52.59C591.97,1141.13,592.15,978.33,591.97,963.74z"/>
		<path class="st1" d="M595.9,963.74l52.59,42.09v135.29C648.5,1141.13,595.73,978.33,595.9,963.74z"/>
		<path class="st0" d="M309.24,963.74l-52.59,42.09v135.29h52.59C309.24,1141.13,309.41,978.33,309.24,963.74z"/>
		<path class="st1" d="M313.17,963.74l52.59,42.09v135.29C365.76,1141.13,313,978.33,313.17,963.74z"/>
	</g>
	<g>
		<g>
			<path class="st1" d="M816.04,1055.56c-1.83,0-3.81-0.34-5.9-1c-1.34-0.44-2.29-1.34-2.91-2.75c-0.63-1.45-1.17-3.86-1.62-7.2
				l-8.81-62.53c-0.36-2.29-1.03-3.41-2.07-3.41c-0.85,0-1.65,0.86-2.42,2.62l-26.03,57.13l-26.13-56.43
				c-1.05-2.27-1.97-3.32-2.9-3.32c-1.02,0-1.68,0.98-1.97,2.91l-9.58,65.97c-0.68,4.75-1.93,7.35-3.71,7.72
				c-0.88,0.2-1.82,0.3-2.84,0.3c-1.24,0-1.87,0.34-1.87,1.03c0,0.65,0.36,1.43,2.06,1.43c1.16,0,2.94-0.05,5.29-0.15
				c2.34-0.1,3.78-0.15,4.3-0.15c0.38,0,1.79,0.05,4.2,0.15c2.41,0.1,4.42,0.15,5.96,0.15c1.75,0,2.64-0.48,2.64-1.43
				c0-0.47-0.31-1.03-1.77-1.03c-1.26,0-2.6-0.17-3.99-0.5c-1.79-0.43-2.66-1.39-2.66-2.93c0-1.61,0.1-3.2,0.29-4.72l4.97-39.8
				c4.52,10,7.75,17.23,9.9,22.12c1.28,3.1,4.93,10.64,11.14,23.03c2.29,4.62,3.14,5.24,3.67,5.24c0.58,0,1.5-0.7,3.88-5.86
				l20.94-45.66l5.74,44.07c0.41,3.34-0.09,3.91-0.33,4.01c-1.01,0.41-1.22,1-1.22,1.42c0,1.08,1.77,1.33,3.11,1.43
				c4.89,0.4,11.5,0.6,19.67,0.6c1.89,0,2.84-0.48,2.84-1.43C817.91,1055.91,817.28,1055.56,816.04,1055.56z"/>
			<path class="st1" d="M921.74,980.9c-1.48,0-3.66,0.05-6.5,0.15c-2.82,0.1-4.35,0.15-4.52,0.15c-4.57-0.2-8.32-0.3-11.14-0.3
				c-1.57,0-2.36,0.41-2.36,1.23c0,0.56,0.34,1.23,1.97,1.23c1.39,0,2.54,0.1,3.41,0.29c2.45,0.58,3.73,2.37,3.92,5.48
				c0.13,2.26,0.19,9.68,0.19,21.46v12.67c0,6.41-0.26,11.24-0.77,14.33c-0.83,4.57-2.42,8.12-4.76,10.57
				c-3.4,3.56-7.82,5.37-13.12,5.37c-4.74,0-8.74-1.37-11.9-4.08c-4.93-4.24-7.44-12.54-7.44-24.68v-14.18
				c0-12.23,0.06-19.25,0.19-21.46c0.19-3.31,1.27-5.1,3.32-5.48c1.07-0.19,2-0.29,2.75-0.29c1.54,0,1.87-0.67,1.87-1.23
				c0-1.23-1.84-1.23-2.45-1.23c-1.22,0-3.36,0.05-6.35,0.15c-2.98,0.1-4.85,0.15-5.55,0.15c-0.77,0-2.87-0.05-6.23-0.15
				c-3.38-0.1-6.04-0.15-7.91-0.15c-0.61,0-2.44,0-2.44,1.23c0,0.56,0.34,1.23,1.96,1.23c1.61,0,2.83,0.1,3.7,0.3
				c2.45,0.58,3.73,2.36,3.91,5.47c0.13,2.21,0.19,9.22,0.19,21.44v14.77c0,12.52,2.93,21.62,8.71,27.04
				c4.94,4.69,12.25,7.07,21.71,7.07c8.04,0,14.89-2.47,20.35-7.37c3.71-3.34,6.31-8.02,7.75-13.92c1.03-4.27,1.55-9.91,1.55-16.77
				v-10.82c0-12.21,0.06-19.22,0.19-21.44c0.19-3.31,1.27-5.09,3.32-5.47c1.06-0.2,1.99-0.3,2.75-0.3c1.7,0,2.06-0.66,2.06-1.23
				C924.1,981.31,923.31,980.9,921.74,980.9z"/>
			<path class="st1" d="M1010.41,1041.6c-0.53,0-1.2,0.31-1.38,1.8c-0.26,2.36-1.08,4.34-2.44,5.89c-1.6,1.81-5.34,2.72-11.09,2.72
				c-6.08,0-9.95-0.72-11.5-2.14c-0.58-0.51-1.32-2.05-1.63-6.46c-0.19-2.42-0.29-7.34-0.29-15.05v-17.8
				c0-12.21,0.06-19.22,0.19-21.44c0.19-3.31,1.27-5.09,3.31-5.47c1.06-0.2,2.31-0.3,3.72-0.3c1.37,0,2.06-0.41,2.06-1.23
				s-0.79-1.23-2.35-1.23c-1.35,0-3.75,0.05-7.13,0.15c-3.36,0.1-5.4,0.15-6.04,0.15c-0.7,0-2.68-0.05-5.89-0.15
				c-3.23-0.1-5.7-0.15-7.37-0.15c-0.61,0-2.45,0-2.45,1.23c0,0.56,0.34,1.23,1.97,1.23c2.37,0,4.07,0.33,5.04,0.96
				c1.2,0.82,1.87,2.44,1.99,4.81c0.13,2.21,0.19,9.22,0.19,21.44v17.8c0,11.65-0.16,18.89-0.48,21.52
				c-0.37,3.21-1.23,4.99-2.51,5.28c-1.01,0.07-1.97,0.18-2.91,0.31c-1.04,0.09-2.42,0.33-2.42,1.23c0,0.88,0.76,1.33,2.26,1.33
				c1.42,0,3.68-0.05,6.74-0.15c3.04-0.1,4.88-0.15,5.46-0.15c2.12,0,6.09,0.1,11.8,0.3c5.66,0.21,11.16,0.31,16.37,0.31
				c2.1,0,3.37-0.07,3.85-0.21c1.28-0.31,2.14-1.23,2.56-2.76c0.96-3.72,1.45-7.66,1.45-11.72
				C1011.5,1042.28,1011.13,1041.6,1010.41,1041.6z"/>
			<path class="st1" d="M1105.86,980.34l-0.01-0.06h-0.29v0.32l-0.09-0.29c-0.08,0.03-0.51,0.11-2.57,0.43
				c-1.9,0.3-4.13,0.46-6.63,0.46h-38.34c-2.94,0-6.19-0.17-9.65-0.51c-0.86-0.06-1.7-0.27-2.51-0.63c-1.17-0.51-1.5-0.58-1.68-0.58
				c-0.83,0-1.24,1.23-1.48,2.17c-1.37,6.01-2.04,9.85-2.04,11.71c0,1.6,0.65,1.94,1.19,1.94c0.47,0,1.09-0.25,1.38-1.46
				c0.24-1.03,0.78-2.19,1.6-3.45c1.1-1.72,4.17-2.65,9.12-2.78l14.1-0.39v41.15c0,11.32-0.16,18.55-0.48,21.52
				c-0.37,3.21-1.23,4.99-2.52,5.28c-1,0.07-1.99,0.18-2.91,0.31c-1.04,0.09-2.42,0.33-2.42,1.23c0,0.88,0.76,1.33,2.26,1.33
				c1.42,0,3.68-0.05,6.74-0.15c3.04-0.1,4.88-0.15,5.46-0.15c0.57,0,2.66,0.05,6.19,0.15c3.53,0.1,6.56,0.15,9.01,0.15
				c1.79,0,2.16-0.72,2.16-1.33c0-0.51-0.33-1.13-1.87-1.13c-1.38,0-3.03-0.14-4.89-0.41c-1.99-0.31-3.14-2.01-3.5-5.18
				c-0.33-2.94-0.49-10.22-0.49-21.62V987.2l11.87,0.29c7.07,0.2,10.81,2.01,11.11,5.37l0.09,1.12c0.06,0.57,0.23,2.31,1.38,2.31
				c0.65,0,1.01-0.61,1.1-1.81c0.06-1,0.14-3.06,0.24-6.14c0.1-3.32,0.14-5,0.14-5.64C1106.65,982.18,1106.65,980.65,1105.86,980.34
				z"/>
			<path class="st1" d="M1172.35,1055.56c-1.37,0-2.99-0.14-4.84-0.41c-2.15-0.31-3.32-1.84-3.56-4.67
				c-0.26-2.69-0.38-9.93-0.38-22.13v-17.8c0-12.01,0.06-19.22,0.19-21.44c0.19-3.31,1.26-5.09,3.28-5.47
				c1.05-0.2,2.04-0.3,2.95-0.3c1.49,0,1.71-0.83,1.71-1.33c0-1.13-1.77-1.13-2.36-1.13c-1.35,0-3.5,0.05-6.4,0.15
				c-2.88,0.1-4.7,0.15-5.41,0.15c-0.83,0-2.83-0.05-5.94-0.15c-3.13-0.1-5.36-0.15-6.65-0.15c-1.13,0-2.64,0.11-2.64,1.13
				c0,0.61,0.35,1.33,2.02,1.33c1.09,0,2.19,0.14,3.26,0.39c1.87,0.51,2.86,2.26,3.05,5.37c0.13,2.21,0.19,9.22,0.19,21.44v17.8
				c0,11.66-0.16,19.08-0.48,22.07c-0.31,2.84-1.17,4.43-2.51,4.72c-1.01,0.07-1.97,0.18-2.91,0.31c-1.04,0.09-2.42,0.33-2.42,1.23
				c0,0.88,0.76,1.33,2.26,1.33c1.42,0,3.68-0.05,6.74-0.15c3.04-0.1,4.88-0.15,5.46-0.15s2.64,0.05,6.14,0.15
				c3.5,0.1,6.51,0.15,8.96,0.15c1.79,0,2.16-0.72,2.16-1.33C1174.21,1056.18,1173.89,1055.56,1172.35,1055.56z"/>
			<path class="st1" d="M1259.73,980.12l-0.28-0.04v0.32c0.01,0-0.02,0.01-0.02,0.01l-0.14-0.24c-0.03,0.02-0.24,0.13-1.44,0.53
				c-1.6,0.26-2.93,0.4-3.93,0.4c-1.32,0.07-9.68,0.1-25.54,0.1c-0.77,0-2.83-0.05-6.13-0.15c-3.31-0.1-5.94-0.15-7.8-0.15
				c-1.69,0-2.54,0.44-2.54,1.33c0,0.75,0.66,1.13,1.96,1.13c1.61,0,2.82,0.1,3.7,0.3c2.45,0.58,3.73,2.36,3.92,5.47
				c0.13,2.21,0.19,9.22,0.19,21.44v17.8c0,11.65-0.16,18.89-0.48,21.52c-0.37,3.21-1.23,4.99-2.51,5.28
				c-1.01,0.07-1.94,0.18-2.81,0.31c-1.04,0.09-2.42,0.33-2.42,1.23c0,0.88,0.79,1.33,2.35,1.33c1.37,0,3.55-0.05,6.65-0.15
				c3.04-0.1,4.94-0.15,5.65-0.15c0.51,0,2.52,0.05,5.99,0.15c3.46,0.1,6.4,0.15,8.72,0.15c1.62,0,2.44-0.44,2.44-1.33
				c0-0.75-0.66-1.13-1.98-1.13c-1.33,0-2.96-0.14-4.83-0.41c-2.01-0.31-3.17-2.04-3.54-5.28c-0.33-2.94-0.49-10.18-0.49-21.52
				v-8.19c0-0.59,0.23-0.59,0.36-0.59c7.99,0,12.82,0.1,14.34,0.3c2.48,0.32,4.02,1.45,4.68,3.38c0.13,0.88,0.3,1.77,0.49,2.63
				c0.16,1.01,0.43,2.19,1.19,2.19c0.86,0,1.3-0.75,1.3-2.24c0-2.18,0.13-4.66,0.39-7.35c0.13-1.15,0.29-2.49,0.48-4.04
				c0.24-1.72,0.29-2.14,0.29-2.27c0-1.07-0.56-1.23-0.9-1.23c-0.44,0-0.92,0.36-1.52,1.13c-0.71,0.94-1.98,1.51-3.8,1.7
				c-0.29,0.06-1.8,0.09-4.5,0.09h-12.45c-0.13,0-0.36,0-0.36-0.58v-25.11c0-1.08,0.4-1.08,0.54-1.08l14.97,0.3
				c3.28,0.06,5.34,1.01,6.13,2.81c0.38,0.83,0.56,2.06,0.56,3.69c0.09,1.57,0.75,1.9,1.28,1.9c0.48,0,1.1-0.29,1.29-1.72
				c0.19-3.17,0.35-5.9,0.48-8.18c0.12-0.98,0.28-1.99,0.48-2.99c0.29-1.23,0.29-1.5,0.29-1.59
				C1260.45,980.48,1260.06,980.21,1259.73,980.12z"/>
			<path class="st1" d="M1365.73,1055.56c-1.51,0-2.86-0.14-4-0.4c-2.84-0.64-5.63-4.28-8.29-10.83
				c-9.97-25.59-18.05-46.52-24.01-62.23c-0.98-2.34-1.84-3.43-2.71-3.43c-0.94,0-1.9,1.35-3.01,4.25l-24.3,63.54
				c-1.08,2.86-2.14,4.94-3.14,6.18c-1.25,1.57-2.82,2.46-4.82,2.71c-0.95,0.14-1.95,0.21-2.96,0.21c-1.29,0-1.48,0.71-1.48,1.13
				c0,0.61,0.38,1.33,2.16,1.33c1.99,0,5.84-0.1,11.42-0.3c0.96,0,2.66,0.05,5.07,0.15c2.41,0.1,4.15,0.15,5.19,0.15
				c1.63,0,1.97-0.72,1.97-1.33c0-0.51-0.31-1.13-1.77-1.13h-1.45c-2.39,0-3.56-0.92-3.56-2.82c0-1.36,0.48-3.4,1.43-6.06
				l5.23-14.47c0.21-0.6,0.48-0.6,0.57-0.6h21.59c0.21,0,0.48,0.06,0.66,0.49l7.74,21.45c0.21,0.57,0.24,1.03,0.09,1.34
				c-0.12,0.26-0.37,0.44-0.68,0.56c-1.36,0.09-1.65,0.72-1.65,1.23c0,0.71,0.96,1.05,3.21,1.13c4.11,0.14,10.09,0.2,18.3,0.2
				c1.74,0,2.89-0.07,3.55-0.21c1.01-0.21,1.23-0.72,1.23-1.12C1367.31,1056.27,1367.1,1055.56,1365.73,1055.56z M1333.23,1025.88
				c0,0-0.05,0.04-0.21,0.04h-17.81c-0.07,0-0.1-0.01-0.11-0.01c0,0-0.03-0.07,0.02-0.27l8.92-24.93c0.09-0.46,0.21-0.61,0.21-0.65
				c0.04,0.05,0.13,0.22,0.24,0.7l8.7,24.98C1333.22,1025.83,1333.22,1025.88,1333.23,1025.88z"/>
			<path class="st1" d="M1488.18,1055.56c-1.83,0-3.81-0.34-5.9-1c-1.34-0.44-2.29-1.34-2.91-2.75c-0.63-1.45-1.17-3.86-1.62-7.2
				l-8.81-62.53c-0.36-2.29-1.03-3.41-2.07-3.41c-0.85,0-1.65,0.86-2.42,2.62l-26.03,57.13l-26.13-56.43
				c-1.05-2.27-1.97-3.32-2.9-3.32c-1.02,0-1.68,0.98-1.97,2.91l-9.58,65.97c-0.68,4.75-1.93,7.35-3.71,7.72
				c-0.88,0.2-1.82,0.3-2.84,0.3c-1.24,0-1.87,0.34-1.87,1.03c0,0.65,0.36,1.43,2.06,1.43c1.16,0,2.94-0.05,5.29-0.15
				c2.34-0.1,3.78-0.15,4.3-0.15c0.38,0,1.79,0.05,4.2,0.15c2.41,0.1,4.42,0.15,5.96,0.15c1.75,0,2.64-0.48,2.64-1.43
				c0-0.47-0.31-1.03-1.77-1.03c-1.26,0-2.6-0.17-3.99-0.5c-1.79-0.43-2.66-1.39-2.66-2.93c0-1.61,0.1-3.2,0.29-4.72l4.97-39.8
				c4.52,10,7.75,17.23,9.9,22.12c1.28,3.1,4.93,10.64,11.14,23.03c2.29,4.62,3.14,5.24,3.67,5.24c0.58,0,1.5-0.7,3.88-5.86
				l20.94-45.66l5.74,44.07c0.41,3.34-0.09,3.91-0.33,4.01c-1.01,0.41-1.22,1-1.22,1.42c0,1.08,1.77,1.33,3.11,1.43
				c4.89,0.4,11.5,0.6,19.67,0.6c1.89,0,2.84-0.48,2.84-1.43C1490.04,1055.91,1489.42,1055.56,1488.18,1055.56z"/>
			<path class="st1" d="M1553.42,1055.56c-1.37,0-2.99-0.14-4.84-0.41c-2.15-0.31-3.32-1.84-3.56-4.67
				c-0.26-2.69-0.38-9.93-0.38-22.13v-17.8c0-12.01,0.06-19.22,0.19-21.44c0.19-3.31,1.26-5.09,3.28-5.47
				c1.05-0.2,2.04-0.3,2.95-0.3c1.49,0,1.71-0.83,1.71-1.33c0-1.13-1.77-1.13-2.36-1.13c-1.35,0-3.5,0.05-6.4,0.15
				c-2.88,0.1-4.7,0.15-5.41,0.15c-0.83,0-2.83-0.05-5.94-0.15c-3.13-0.1-5.36-0.15-6.65-0.15c-1.13,0-2.64,0.11-2.64,1.13
				c0,0.61,0.35,1.33,2.02,1.33c1.09,0,2.19,0.14,3.26,0.39c1.87,0.51,2.86,2.26,3.05,5.37c0.13,2.21,0.19,9.22,0.19,21.44v17.8
				c0,11.66-0.16,19.08-0.48,22.07c-0.31,2.84-1.17,4.43-2.51,4.72c-1.01,0.07-1.97,0.18-2.91,0.31c-1.04,0.09-2.42,0.33-2.42,1.23
				c0,0.88,0.76,1.33,2.26,1.33c1.42,0,3.68-0.05,6.74-0.15c3.04-0.1,4.88-0.15,5.46-0.15c0.58,0,2.64,0.05,6.14,0.15
				c3.5,0.1,6.51,0.15,8.96,0.15c1.79,0,2.16-0.72,2.16-1.33C1555.28,1056.18,1554.96,1055.56,1553.42,1055.56z"/>
			<path class="st1" d="M1643.82,1041.6c-0.53,0-1.2,0.31-1.38,1.8c-0.26,2.36-1.08,4.34-2.44,5.89c-1.6,1.81-5.34,2.72-11.09,2.72
				c-6.08,0-9.95-0.72-11.5-2.14c-0.58-0.51-1.32-2.05-1.63-6.46c-0.19-2.42-0.29-7.34-0.29-15.05v-17.8
				c0-12.21,0.06-19.22,0.19-21.44c0.19-3.31,1.27-5.09,3.31-5.47c1.06-0.2,2.31-0.3,3.72-0.3c1.37,0,2.06-0.41,2.06-1.23
				s-0.79-1.23-2.35-1.23c-1.35,0-3.75,0.05-7.13,0.15c-3.36,0.1-5.4,0.15-6.04,0.15c-0.7,0-2.68-0.05-5.89-0.15
				c-3.23-0.1-5.7-0.15-7.37-0.15c-0.61,0-2.45,0-2.45,1.23c0,0.56,0.34,1.23,1.97,1.23c2.37,0,4.07,0.33,5.04,0.96
				c1.2,0.82,1.87,2.44,1.99,4.81c0.13,2.21,0.19,9.22,0.19,21.44v17.8c0,11.65-0.16,18.89-0.48,21.52
				c-0.37,3.21-1.23,4.99-2.51,5.28c-1.01,0.07-1.97,0.18-2.91,0.31c-1.04,0.09-2.42,0.33-2.42,1.23c0,0.88,0.76,1.33,2.26,1.33
				c1.42,0,3.68-0.05,6.74-0.15c3.04-0.1,4.88-0.15,5.46-0.15c2.12,0,6.09,0.1,11.8,0.3c5.66,0.21,11.16,0.31,16.37,0.31
				c2.1,0,3.37-0.07,3.85-0.21c1.28-0.31,2.14-1.23,2.56-2.76c0.96-3.72,1.45-7.66,1.45-11.72
				C1644.91,1042.28,1644.55,1041.6,1643.82,1041.6z"/>
			<path class="st1" d="M1741.29,980.9c-0.59,0-2.26,0.05-5.09,0.15c-2.79,0.1-4.56,0.15-5.26,0.15c-0.9,0-2.37-0.05-4.39-0.15
				c-2.03-0.1-3.61-0.15-4.71-0.15c-1.63,0-1.97,0.66-1.97,1.23c0,0.59,0.68,1.02,2.14,1.37c1.1,0.27,1.64,0.98,1.64,2.17
				c0,1.37-0.44,3.09-1.32,5.12c-5.05,9.85-9.83,19.03-14.24,27.29c-10.62-19.41-15.91-29.12-16.15-29.71
				c-0.94-2.04-1.14-2.93-1.14-3.31c0-0.86,0.35-1.33,1.13-1.51c1.68-0.48,2.36-0.9,2.36-1.42c0-0.46-0.23-1.23-1.77-1.23
				c-1.61,0-3.63,0.05-6.01,0.15c-2.37,0.1-3.83,0.15-4.35,0.15c-1.15,0-3.38-0.05-6.61-0.15c-3.29-0.1-5.12-0.15-5.58-0.15
				c-1.43,0-2.15,0.41-2.15,1.23c0,0.56,0.31,1.23,1.77,1.23c1.16,0,2.47,0.43,3.9,1.27c2.02,1.19,4.23,3.64,6.57,7.28
				c1.62,2.58,4.79,7.92,9.43,15.88c4.81,8.26,7.22,12.46,7.58,13.22c1.46,3.46,2.2,6.99,2.2,10.5v8.3c0,3.75-0.1,7.15-0.29,10.1
				c-0.19,3.13-1.11,4.9-2.71,5.26c-1,0.07-1.94,0.18-2.83,0.31c-1.67,0.24-2.41,0.61-2.41,1.23c0,0.88,0.82,1.33,2.45,1.33
				c1.28,0,3.47-0.05,6.5-0.15c3.01-0.1,4.9-0.15,5.6-0.15c0.58,0,2.62,0.05,6.09,0.15c3.47,0.1,6.41,0.15,8.72,0.15
				c1.57,0,2.36-0.44,2.36-1.33c0-0.51-0.33-1.13-1.89-1.13c-1.33,0-2.96-0.14-4.84-0.41c-2-0.25-3.16-1.52-3.54-3.88
				c-0.32-1.73-0.48-5.59-0.48-11.48v-8.3c0-4.25,0.48-7.61,1.43-10c0.91-2.22,3.86-7.69,8.77-16.25c4.92-8.58,8.2-13.91,9.73-15.84
				c1.97-2.46,3.71-4.1,5.19-4.88c1.47-0.78,2.83-1.18,4.03-1.18c1.83,0,2.21-0.72,2.21-1.33
				C1743.35,981.27,1742.66,980.9,1741.29,980.9z"/>
		</g>
		<g>
			<g>
				<path class="st0" d="M737.4,1080.15c-1.03,0-2.64,0.03-4.82,0.1c-2.18,0.07-3.7,0.1-4.56,0.1c-0.48,0-1.82-0.03-4.05-0.1
					c-2.22-0.07-3.98-0.1-5.27-0.1c-0.95,0-1.42,0.2-1.42,0.61c0,0.41,0.36,0.61,1.1,0.61c1.08,0,1.92,0.07,2.52,0.2
					c1.72,0.41,2.65,1.69,2.78,3.86c0.09,1.48,0.13,6.26,0.13,14.33v11.9c0,7.84-0.11,12.65-0.33,14.4
					c-0.26,2.26-0.88,3.5-1.87,3.72c-0.65,0.04-1.3,0.11-1.94,0.2c-0.95,0.09-1.42,0.29-1.42,0.61c0,0.45,0.43,0.68,1.29,0.68
					c0.95,0,2.45-0.03,4.5-0.1c2.05-0.07,3.26-0.1,3.65-0.1c0.34,0,1.69,0.03,4.05,0.1c2.35,0.07,4.34,0.1,5.98,0.1
					c0.82,0,1.23-0.23,1.23-0.68c0-0.36-0.34-0.54-1.03-0.54c-0.95,0-2.05-0.09-3.3-0.27c-1.42-0.23-2.26-1.44-2.52-3.65
					c-0.22-1.99-0.33-6.81-0.33-14.47v-27.05c0-0.72,0.2-1.16,0.61-1.32c0.41-0.16,1.22-0.24,2.42-0.24c2.46,0,4.62,0.88,6.47,2.64
					c2.54,2.39,3.81,5.77,3.81,10.14c0,3.2-0.99,5.93-2.98,8.18c-1.77,1.99-3.66,2.98-5.69,2.98c-1.2,0-1.81,0.25-1.81,0.75
					c0,0.31,0.26,0.52,0.78,0.61c0.22,0.04,0.67,0.07,1.36,0.07c4.62,0,8.42-1.53,11.42-4.6c2.99-3.07,4.5-6.99,4.5-11.77
					c0-3.24-1.08-5.93-3.24-8.04C746.85,1081.44,742.84,1080.15,737.4,1080.15z"/>
				<path class="st0" d="M827.71,1129.98c-0.48-0.04-0.97-0.09-1.48-0.13c-2.46-0.49-4.87-2.03-7.25-4.6
					c-1.68-1.8-3.78-4.35-6.28-7.64c-0.48-0.54-3.06-3.92-7.76-10.14c5.69-4.82,8.54-9.87,8.54-15.15c0-2.07-0.51-4.02-1.55-5.82
					c-0.82-1.53-1.77-2.68-2.84-3.45c-2.72-1.94-6.68-2.91-11.9-2.91c-0.65,0-2.15,0.03-4.5,0.1c-2.35,0.07-3.89,0.1-4.62,0.1
					c-0.26,0-1.47-0.03-3.63-0.1c-2.15-0.07-3.9-0.1-5.24-0.1c-0.95,0-1.42,0.2-1.42,0.61c0,0.41,0.36,0.61,1.1,0.61
					c1.08,0,1.92,0.07,2.52,0.2c1.72,0.41,2.65,1.69,2.78,3.86c0.09,1.48,0.13,6.26,0.13,14.33v11.9c0,7.84-0.11,12.65-0.33,14.4
					c-0.26,2.26-0.88,3.5-1.87,3.72c-0.65,0.04-1.3,0.11-1.94,0.2c-0.95,0.09-1.42,0.29-1.42,0.61c0,0.45,0.43,0.68,1.29,0.68
					c0.99,0,2.48-0.03,4.47-0.1c1.98-0.07,3.13-0.1,3.43-0.1c0.09,0,1.33,0.03,3.72,0.1c2.39,0.07,4.32,0.1,5.79,0.1
					c0.86,0,1.3-0.23,1.3-0.68c0-0.36-0.26-0.54-0.78-0.54c-0.82,0-1.88-0.09-3.17-0.27c-1.43-0.18-2.27-1.41-2.52-3.7
					c-0.22-1.97-0.33-6.76-0.33-14.37v-0.94c0-0.36,0.18-0.54,0.52-0.54h5.62c0.52,0,0.91,0.16,1.17,0.48
					c2.42,3.47,4.55,6.58,6.41,9.33c3.79,5.46,6.75,8.77,8.86,9.94c1.51,0.86,3.82,1.28,6.92,1.28h6.14c0.82,0,1.23-0.23,1.23-0.68
					C828.81,1130.28,828.44,1130.08,827.71,1129.98z M797.43,1106.99c-2.07,0-3.71-0.23-4.92-0.68c-0.39-0.13-0.58-0.54-0.58-1.22
					v-20.56c0-0.4,0.11-0.68,0.33-0.81c0.39-0.27,1.62-0.41,3.69-0.41c2.41,0,4.55,0.86,6.4,2.57c2.33,2.26,3.5,5.52,3.5,9.8
					c0,4.83-1.28,8.21-3.82,10.15C801.04,1106.61,799.51,1106.99,797.43,1106.99z"/>
				<path class="st0" d="M870.92,1079.21c-8.88,0-15.76,2.97-20.63,8.92c-4.05,4.92-6.08,10.77-6.08,17.58
					c0,6.9,2.03,12.8,6.08,17.71c4.79,5.86,11.45,8.79,19.99,8.79c8.06,0,14.58-2.69,19.54-8.05c4.83-5.19,7.24-11.74,7.24-19.68
					c0-7.75-2.35-13.91-7.05-18.46C885.3,1081.48,878.94,1079.21,870.92,1079.21z M882.17,1125.25c-2.5,2.39-5.56,3.58-9.18,3.58
					c-6.04,0-10.89-2.46-14.56-7.37c-3.54-4.64-5.31-10.59-5.31-17.85c0-7.66,1.72-13.29,5.17-16.9c2.72-2.84,6.3-4.26,10.74-4.26
					c5.43,0,9.92,2.19,13.45,6.56c3.66,4.6,5.49,10.59,5.49,17.98C887.99,1115.51,886.06,1121.6,882.17,1125.25z"/>
				<path class="st0" d="M942.91,1080.15c-1.03,0-2.64,0.03-4.82,0.1c-2.18,0.07-3.7,0.1-4.56,0.1c-0.48,0-1.82-0.03-4.05-0.1
					c-2.22-0.07-3.98-0.1-5.27-0.1c-0.95,0-1.42,0.2-1.42,0.61c0,0.41,0.36,0.61,1.1,0.61c1.08,0,1.92,0.07,2.52,0.2
					c1.72,0.41,2.65,1.69,2.78,3.86c0.09,1.48,0.13,6.26,0.13,14.33v11.9c0,7.84-0.11,12.65-0.33,14.4
					c-0.26,2.26-0.88,3.5-1.87,3.72c-0.65,0.04-1.3,0.11-1.94,0.2c-0.95,0.09-1.42,0.29-1.42,0.61c0,0.45,0.43,0.68,1.29,0.68
					c0.95,0,2.45-0.03,4.5-0.1c2.05-0.07,3.26-0.1,3.65-0.1c0.34,0,1.69,0.03,4.05,0.1c2.35,0.07,4.34,0.1,5.98,0.1
					c0.82,0,1.23-0.23,1.23-0.68c0-0.36-0.34-0.54-1.03-0.54c-0.95,0-2.05-0.09-3.3-0.27c-1.42-0.23-2.26-1.44-2.52-3.65
					c-0.22-1.99-0.33-6.81-0.33-14.47v-27.05c0-0.72,0.2-1.16,0.61-1.32c0.41-0.16,1.22-0.24,2.42-0.24c2.46,0,4.62,0.88,6.47,2.64
					c2.54,2.39,3.81,5.77,3.81,10.14c0,3.2-0.99,5.93-2.98,8.18c-1.77,1.99-3.66,2.98-5.69,2.98c-1.2,0-1.81,0.25-1.81,0.75
					c0,0.31,0.26,0.52,0.78,0.61c0.22,0.04,0.67,0.07,1.36,0.07c4.62,0,8.42-1.53,11.42-4.6c2.99-3.07,4.5-6.99,4.5-11.77
					c0-3.24-1.08-5.93-3.24-8.04C952.36,1081.44,948.35,1080.15,942.91,1080.15z"/>
				<path class="st0" d="M1015.43,1120.99c-0.34,0-0.58,0.34-0.71,1.01c-0.43,2.61-1.41,4.28-2.93,5c-1.13,0.54-3.16,0.81-6.1,0.81
					c-3.25,0-5.34-0.35-6.27-1.05c-0.93-0.7-1.44-2.24-1.52-4.64v-15.82c0-0.45,0.13-0.68,0.39-0.68c4.94,0,8.01,0.07,9.22,0.21
					c2.08,0.23,3.29,1.1,3.64,2.64c0.18,1.08,0.26,1.85,0.26,2.33s0.19,0.71,0.58,0.71s0.58-0.43,0.58-1.28
					c0-0.45,0.09-1.96,0.26-4.53c0.09-1.35,0.19-2.54,0.33-3.58c0.13-0.86,0.19-1.31,0.19-1.35c0-0.36-0.15-0.54-0.46-0.54
					c-0.18,0-0.52,0.29-1.04,0.88c-0.3,0.36-0.78,0.63-1.43,0.81c-0.39,0.09-0.95,0.16-1.69,0.2c-1,0.09-4.46,0.13-10.39,0.13
					c-0.3,0-0.45-0.24-0.45-0.74v-17.11c0-0.45,0.15-0.68,0.45-0.68c4.68,0,7.75,0.09,9.22,0.27c2.38,0.31,3.83,1.13,4.35,2.44
					c0.13,0.36,0.21,0.76,0.26,1.22c0.04,0.45,0.1,0.92,0.16,1.42c0.07,0.49,0.25,0.74,0.55,0.74c0.35,0,0.56-0.24,0.65-0.74
					c0.18-1.76,0.29-3.25,0.36-4.47c0.07-1.22,0.16-2.27,0.29-3.18c0.13-0.77,0.19-1.17,0.19-1.22c0-0.4-0.13-0.61-0.39-0.61
					c0.04,0-0.3,0.09-1.03,0.27c-0.73,0.18-1.66,0.32-2.78,0.41c-0.56,0.04-5.95,0.07-16.17,0.07c-0.48,0-1.82-0.03-4.05-0.1
					c-2.22-0.07-3.98-0.1-5.27-0.1c-0.95,0-1.42,0.2-1.42,0.61c0,0.41,0.36,0.61,1.1,0.61c1.08,0,1.92,0.07,2.52,0.2
					c1.72,0.41,2.65,1.69,2.78,3.86c0.09,1.48,0.13,6.26,0.13,14.33v11.9c0,7.84-0.11,12.65-0.33,14.4
					c-0.26,2.26-0.88,3.5-1.87,3.72c-0.65,0.04-1.3,0.11-1.94,0.2c-0.95,0.09-1.42,0.29-1.42,0.61c0,0.45,0.43,0.68,1.29,0.68
					c0.95,0,2.45-0.03,4.5-0.1c2.05-0.07,3.26-0.1,3.65-0.1c0.78,0,3.02,0.07,6.73,0.2c3.71,0.14,7.44,0.21,11.19,0.21
					c1.33,0,2.2-0.09,2.59-0.27c0.39-0.18,0.69-0.68,0.91-1.49c0.56-2.26,0.84-4.75,0.84-7.5
					C1015.95,1121.39,1015.78,1120.99,1015.43,1120.99z"/>
				<path class="st0" d="M1092.22,1129.98c-0.48-0.04-0.97-0.09-1.48-0.13c-2.46-0.49-4.87-2.03-7.25-4.6
					c-1.69-1.8-3.78-4.35-6.28-7.64c-0.48-0.54-3.06-3.92-7.76-10.14c5.69-4.82,8.54-9.87,8.54-15.15c0-2.07-0.51-4.02-1.55-5.82
					c-0.82-1.53-1.77-2.68-2.84-3.45c-2.72-1.94-6.68-2.91-11.9-2.91c-0.65,0-2.15,0.03-4.5,0.1c-2.35,0.07-3.89,0.1-4.62,0.1
					c-0.26,0-1.47-0.03-3.63-0.1c-2.15-0.07-3.9-0.1-5.24-0.1c-0.95,0-1.42,0.2-1.42,0.61c0,0.41,0.36,0.61,1.1,0.61
					c1.08,0,1.92,0.07,2.52,0.2c1.72,0.41,2.65,1.69,2.78,3.86c0.09,1.48,0.13,6.26,0.13,14.33v11.9c0,7.84-0.11,12.65-0.33,14.4
					c-0.26,2.26-0.88,3.5-1.87,3.72c-0.65,0.04-1.3,0.11-1.94,0.2c-0.95,0.09-1.42,0.29-1.42,0.61c0,0.45,0.43,0.68,1.29,0.68
					c0.99,0,2.48-0.03,4.47-0.1c1.98-0.07,3.13-0.1,3.43-0.1c0.09,0,1.33,0.03,3.72,0.1c2.39,0.07,4.32,0.1,5.79,0.1
					c0.86,0,1.3-0.23,1.3-0.68c0-0.36-0.26-0.54-0.78-0.54c-0.82,0-1.88-0.09-3.17-0.27c-1.43-0.18-2.27-1.41-2.52-3.7
					c-0.22-1.97-0.33-6.76-0.33-14.37v-0.94c0-0.36,0.18-0.54,0.52-0.54h5.62c0.52,0,0.91,0.16,1.17,0.48
					c2.42,3.47,4.55,6.58,6.41,9.33c3.79,5.46,6.75,8.77,8.86,9.94c1.51,0.86,3.82,1.28,6.92,1.28h6.14c0.82,0,1.23-0.23,1.23-0.68
					C1093.32,1130.28,1092.95,1130.08,1092.22,1129.98z M1061.94,1106.99c-2.07,0-3.71-0.23-4.92-0.68
					c-0.39-0.13-0.58-0.54-0.58-1.22v-20.56c0-0.4,0.11-0.68,0.33-0.81c0.39-0.27,1.62-0.41,3.69-0.41c2.41,0,4.55,0.86,6.4,2.57
					c2.33,2.26,3.5,5.52,3.5,9.8c0,4.83-1.28,8.21-3.82,10.15C1065.54,1106.61,1064.01,1106.99,1061.94,1106.99z"/>
				<path class="st0" d="M1149.34,1079.74c0.13,0-0.45,0.1-1.74,0.3c-1.3,0.21-2.78,0.31-4.47,0.31h-25.62
					c-1.98,0-4.13-0.11-6.46-0.34c-0.61-0.04-1.19-0.19-1.75-0.44c-0.56-0.25-0.91-0.37-1.03-0.37c-0.31,0-0.56,0.43-0.78,1.28
					c-0.91,3.97-1.36,6.56-1.36,7.77c0,0.72,0.19,1.08,0.58,1.08c0.34,0,0.58-0.27,0.71-0.81c0.18-0.72,0.54-1.51,1.1-2.37
					c0.78-1.22,2.87-1.87,6.28-1.96l9.63-0.27v27.72c0,7.62-0.11,12.42-0.32,14.4c-0.26,2.26-0.88,3.5-1.88,3.72
					c-0.65,0.04-1.29,0.11-1.94,0.2c-0.95,0.09-1.43,0.29-1.43,0.61c0,0.45,0.43,0.68,1.3,0.68c0.95,0,2.45-0.03,4.5-0.1
					c2.05-0.07,3.26-0.1,3.65-0.1c0.39,0,1.77,0.03,4.14,0.1c2.37,0.07,4.38,0.1,6.01,0.1c0.82,0,1.23-0.23,1.23-0.68
					c0-0.36-0.34-0.54-1.04-0.54c-0.95,0-2.05-0.09-3.29-0.27c-1.42-0.23-2.27-1.44-2.52-3.65c-0.22-1.99-0.33-6.81-0.33-14.47
					v-27.72l8.16,0.21c4.87,0.13,7.42,1.4,7.63,3.78l0.07,0.75c0.08,0.9,0.32,1.35,0.71,1.35c0.3,0,0.48-0.34,0.52-1.01
					c0.04-0.67,0.09-2.04,0.16-4.1c0.06-2.06,0.09-3.31,0.09-3.76C1149.86,1080.21,1149.68,1079.74,1149.34,1079.74z"/>
				<path class="st0" d="M1193.98,1130.05c-0.94,0-2.03-0.09-3.27-0.27c-1.54-0.23-2.39-1.33-2.56-3.31
					c-0.18-1.8-0.26-6.74-0.26-14.81v-11.9c0-8.07,0.04-12.85,0.13-14.33c0.13-2.3,0.91-3.59,2.37-3.86c0.72-0.13,1.39-0.2,2.01-0.2
					c0.62,0,0.93-0.23,0.93-0.68c0-0.36-0.45-0.54-1.36-0.54c-0.9,0-2.33,0.03-4.27,0.1c-1.94,0.07-3.15,0.1-3.63,0.1
					c-0.56,0-1.89-0.03-3.98-0.1c-2.09-0.07-3.57-0.1-4.43-0.1c-1.04,0-1.55,0.18-1.55,0.54c0,0.45,0.38,0.68,1.13,0.68
					c0.75,0,1.5,0.09,2.23,0.27c1.33,0.36,2.07,1.62,2.2,3.79c0.09,1.48,0.13,6.26,0.13,14.33v11.9c0,7.84-0.11,12.77-0.33,14.78
					c-0.22,2-0.84,3.12-1.87,3.34c-0.65,0.04-1.3,0.11-1.94,0.2c-0.95,0.09-1.42,0.29-1.42,0.61c0,0.45,0.43,0.68,1.29,0.68
					c0.95,0,2.45-0.03,4.5-0.1c2.05-0.07,3.26-0.1,3.65-0.1c0.39,0,1.76,0.03,4.11,0.1c2.35,0.07,4.35,0.1,5.98,0.1
					c0.82,0,1.23-0.23,1.23-0.68C1195.01,1130.23,1194.66,1130.05,1193.98,1130.05z"/>
				<path class="st0" d="M1252.77,1120.99c-0.34,0-0.58,0.34-0.71,1.01c-0.43,2.61-1.41,4.28-2.93,5c-1.13,0.54-3.16,0.81-6.1,0.81
					c-3.25,0-5.34-0.35-6.27-1.05c-0.93-0.7-1.44-2.24-1.52-4.64v-15.82c0-0.45,0.13-0.68,0.39-0.68c4.94,0,8.01,0.07,9.22,0.21
					c2.08,0.23,3.29,1.1,3.64,2.64c0.18,1.08,0.26,1.85,0.26,2.33s0.19,0.71,0.58,0.71c0.39,0,0.58-0.43,0.58-1.28
					c0-0.45,0.09-1.96,0.26-4.53c0.09-1.35,0.19-2.54,0.33-3.58c0.13-0.86,0.19-1.31,0.19-1.35c0-0.36-0.15-0.54-0.46-0.54
					c-0.18,0-0.52,0.29-1.04,0.88c-0.3,0.36-0.78,0.63-1.43,0.81c-0.39,0.09-0.95,0.16-1.69,0.2c-1,0.09-4.46,0.13-10.39,0.13
					c-0.3,0-0.45-0.24-0.45-0.74v-17.11c0-0.45,0.15-0.68,0.45-0.68c4.68,0,7.75,0.09,9.22,0.27c2.38,0.31,3.83,1.13,4.35,2.44
					c0.13,0.36,0.21,0.76,0.26,1.22c0.04,0.45,0.1,0.92,0.16,1.42c0.07,0.49,0.25,0.74,0.55,0.74c0.35,0,0.56-0.24,0.65-0.74
					c0.18-1.76,0.29-3.25,0.36-4.47c0.07-1.22,0.16-2.27,0.29-3.18c0.13-0.77,0.19-1.17,0.19-1.22c0-0.4-0.13-0.61-0.39-0.61
					c0.04,0-0.3,0.09-1.03,0.27c-0.73,0.18-1.66,0.32-2.78,0.41c-0.56,0.04-5.95,0.07-16.17,0.07c-0.48,0-1.82-0.03-4.05-0.1
					c-2.22-0.07-3.98-0.1-5.27-0.1c-0.95,0-1.42,0.2-1.42,0.61c0,0.41,0.36,0.61,1.1,0.61c1.08,0,1.92,0.07,2.52,0.2
					c1.72,0.41,2.65,1.69,2.78,3.86c0.09,1.48,0.13,6.26,0.13,14.33v11.9c0,7.84-0.11,12.65-0.33,14.4
					c-0.26,2.26-0.88,3.5-1.87,3.72c-0.65,0.04-1.3,0.11-1.94,0.2c-0.95,0.09-1.42,0.29-1.42,0.61c0,0.45,0.43,0.68,1.29,0.68
					c0.95,0,2.45-0.03,4.5-0.1c2.05-0.07,3.26-0.1,3.65-0.1c0.78,0,3.02,0.07,6.73,0.2c3.71,0.14,7.44,0.21,11.19,0.21
					c1.33,0,2.2-0.09,2.59-0.27c0.39-0.18,0.69-0.68,0.91-1.49c0.56-2.26,0.84-4.75,0.84-7.5
					C1253.29,1121.39,1253.12,1120.99,1252.77,1120.99z"/>
				<path class="st0" d="M1306.01,1108.92c-1.6-2.59-4.33-5.42-8.21-8.49l-1.82-1.42c-2.63-2.07-4.43-3.82-5.4-5.24
					c-0.97-1.42-1.45-2.92-1.45-4.5c0-2.07,0.69-3.75,2.07-5.04c1.38-1.28,3.26-1.93,5.63-1.93c3.01,0,5.37,1.1,7.05,3.31
					c1.12,1.48,1.69,2.98,1.69,4.46c0,0.81,0.21,1.22,0.65,1.22c0.48,0,0.71-0.68,0.71-2.03c0-2.12,0.04-4.02,0.13-5.71
					s0.13-2.49,0.13-2.4c0-0.36-0.3-0.63-0.91-0.81c-2.93-0.76-5.8-1.15-8.6-1.15c-4.44,0-8.04,1.19-10.81,3.58
					c-2.76,2.39-4.14,5.45-4.14,9.2c0,5.46,3.19,10.79,9.58,16.02l2.98,2.44c4.22,3.47,6.34,7.08,6.34,10.82
					c0,1.99-0.71,3.71-2.14,5.21c-1.64,1.67-3.81,2.5-6.53,2.5c-4.87,0-7.96-2.27-9.25-6.83c-0.39-1.35-0.58-2.5-0.58-3.45
					c0-0.77-0.21-1.15-0.65-1.15c-0.43,0-0.69,0.59-0.78,1.76c-0.21,3.47-0.33,6.42-0.33,8.86c0,1.17,0.41,1.94,1.23,2.3
					c2.54,1.17,5.69,1.76,9.44,1.76c4.14,0,7.57-0.93,10.29-2.77c4.05-2.75,6.08-6.67,6.08-11.76
					C1308.4,1114.43,1307.61,1111.52,1306.01,1108.92z"/>
			</g>
		</g>
	</g>
</g>
</svg>
