<?xml version="1.0" encoding="utf-8"?>
<!-- Generator: Adobe Illustrator 25.0.0, SVG Export Plug-In . SVG Version: 6.00 Build 0)  -->
<svg version="1.1" id="Layer_1" xmlns="http://www.w3.org/2000/svg" xmlns:xlink="http://www.w3.org/1999/xlink" x="0px" y="0px"
	 viewBox="0 0 2000 2000" style="enable-background:new 0 0 2000 2000;" xml:space="preserve">
<style type="text/css">
	.st0{fill:#E7A800;}
	.st1{fill:#FFFFFF;}
</style>
<g>
	<path class="st0" d="M369.46,838.37l-95.84,76.71v246.55h95.84C369.46,1161.63,369.77,864.95,369.46,838.37z"/>
	<path class="st1" d="M376.62,838.37l95.84,76.71v246.55C472.46,1161.63,376.3,864.95,376.62,838.37z"/>
	<path class="st0" d="M532.69,958.47l-60.23,48.21v154.95h60.23C532.69,1161.63,532.89,975.18,532.69,958.47z"/>
	<path class="st1" d="M537.19,958.47l60.23,48.21v154.95C597.43,1161.63,536.99,975.18,537.19,958.47z"/>
	<path class="st0" d="M208.88,958.47l-60.23,48.21v154.95h60.23C208.88,1161.63,209.08,975.18,208.88,958.47z"/>
	<path class="st1" d="M213.38,958.47l60.23,48.21v154.95C273.61,1161.63,213.18,975.18,213.38,958.47z"/>
	<g>
		<path class="st1" d="M789.32,1063.63c-2.09,0-4.37-0.39-6.76-1.15c-1.54-0.5-2.63-1.54-3.33-3.15c-0.72-1.66-1.34-4.43-1.85-8.25
			l-10.09-71.62c-0.41-2.63-1.18-3.9-2.37-3.9c-0.98,0-1.89,0.98-2.78,3L732.33,1044l-29.93-64.63c-1.21-2.6-2.26-3.8-3.32-3.8
			c-1.17,0-1.93,1.12-2.25,3.33l-10.98,75.55c-0.78,5.45-2.21,8.42-4.25,8.85c-1.01,0.23-2.08,0.34-3.25,0.34
			c-1.42,0-2.14,0.39-2.14,1.18c0,0.75,0.41,1.64,2.36,1.64c1.33,0,3.36-0.06,6.05-0.17c2.68-0.11,4.33-0.17,4.92-0.17
			c0.44,0,2.05,0.06,4.81,0.17c2.76,0.11,5.06,0.17,6.83,0.17c2.01,0,3.03-0.55,3.03-1.64c0-0.54-0.35-1.18-2.03-1.18
			c-1.44,0-2.98-0.19-4.57-0.57c-2.04-0.49-3.04-1.59-3.04-3.35c0-1.84,0.11-3.67,0.33-5.4l5.7-45.58
			c5.17,11.45,8.87,19.74,11.33,25.34c1.47,3.55,5.65,12.18,12.76,26.38c2.62,5.29,3.59,6,4.2,6c0.67,0,1.71-0.8,4.44-6.71
			l23.98-52.3l6.58,50.47c0.47,3.82-0.11,4.48-0.38,4.59c-1.16,0.47-1.4,1.14-1.4,1.62c0,1.24,2.03,1.53,3.56,1.64
			c5.6,0.46,13.17,0.69,22.53,0.69c2.16,0,3.25-0.55,3.25-1.64C791.45,1064.03,790.74,1063.63,789.32,1063.63z"/>
		<path class="st1" d="M910.37,978.12c-1.69,0-4.2,0.06-7.44,0.17c-3.23,0.11-4.98,0.17-5.18,0.17c-5.23-0.23-9.53-0.34-12.76-0.34
			c-1.79,0-2.7,0.47-2.7,1.41c0,0.65,0.39,1.41,2.25,1.41c1.59,0,2.91,0.11,3.9,0.34c2.8,0.66,4.28,2.71,4.49,6.28
			c0.14,2.58,0.22,11.08,0.22,24.58v14.51c0,7.35-0.3,12.87-0.88,16.41c-0.95,5.24-2.78,9.3-5.45,12.11
			c-3.9,4.08-8.95,6.16-15.03,6.16c-5.43,0-10.01-1.57-13.62-4.68c-5.65-4.86-8.52-14.36-8.52-28.27v-16.24
			c0-14.01,0.07-22.05,0.22-24.58c0.22-3.79,1.46-5.84,3.8-6.28c1.23-0.22,2.29-0.34,3.15-0.34c1.76,0,2.14-0.77,2.14-1.41
			c0-1.41-2.11-1.41-2.81-1.41c-1.4,0-3.85,0.06-7.27,0.17c-3.41,0.11-5.55,0.17-6.36,0.17c-0.88,0-3.29-0.06-7.14-0.17
			c-3.87-0.11-6.92-0.17-9.05-0.17c-0.7,0-2.8,0-2.8,1.41c0,0.65,0.39,1.41,2.25,1.41c1.84,0,3.24,0.11,4.24,0.34
			c2.81,0.66,4.27,2.7,4.48,6.26c0.15,2.53,0.22,10.56,0.22,24.55V1029c0,14.33,3.36,24.76,9.98,30.97
			c5.66,5.37,14.03,8.1,24.87,8.1c9.21,0,17.05-2.83,23.3-8.44c4.25-3.82,7.23-9.19,8.87-15.95c1.18-4.89,1.78-11.35,1.78-19.2
			v-12.4c0-13.99,0.07-22.02,0.22-24.55c0.22-3.79,1.46-5.83,3.8-6.26c1.22-0.23,2.27-0.34,3.15-0.34c1.95,0,2.36-0.76,2.36-1.41
			C913.07,978.59,912.17,978.12,910.37,978.12z"/>
		<path class="st1" d="M1011.92,1047.64c-0.61,0-1.38,0.36-1.59,2.06c-0.29,2.7-1.23,4.97-2.79,6.75c-1.84,2.07-6.11,3.12-12.7,3.12
			c-6.97,0-11.4-0.82-13.17-2.45c-0.66-0.59-1.51-2.35-1.87-7.4c-0.22-2.77-0.33-8.41-0.33-17.24v-20.39
			c0-13.99,0.07-22.02,0.22-24.55c0.22-3.79,1.46-5.83,3.8-6.26c1.22-0.23,2.65-0.34,4.26-0.34c1.56,0,2.36-0.47,2.36-1.41
			s-0.9-1.41-2.69-1.41c-1.55,0-4.3,0.06-8.16,0.17c-3.85,0.11-6.18,0.17-6.92,0.17c-0.8,0-3.07-0.06-6.74-0.17
			c-3.69-0.11-6.53-0.17-8.44-0.17c-0.7,0-2.81,0-2.81,1.41c0,0.65,0.39,1.41,2.25,1.41c2.72,0,4.66,0.37,5.78,1.1
			c1.38,0.94,2.15,2.79,2.28,5.51c0.15,2.53,0.22,10.56,0.22,24.55v20.39c0,13.34-0.19,21.64-0.55,24.64
			c-0.42,3.67-1.41,5.71-2.88,6.05c-1.16,0.08-2.25,0.2-3.34,0.35c-1.19,0.11-2.77,0.38-2.77,1.41c0,1.01,0.87,1.52,2.58,1.52
			c1.62,0,4.22-0.06,7.72-0.17c3.49-0.11,5.59-0.17,6.25-0.17c2.42,0,6.97,0.11,13.52,0.34c6.48,0.24,12.78,0.35,18.75,0.35
			c2.41,0,3.86-0.08,4.41-0.24c1.46-0.35,2.45-1.41,2.93-3.16c1.1-4.26,1.66-8.77,1.66-13.42
			C1013.17,1048.42,1012.75,1047.64,1011.92,1047.64z"/>
		<path class="st1" d="M1121.24,977.49l-0.01-0.06h-0.34v0.37l-0.1-0.34c-0.09,0.03-0.58,0.12-2.95,0.49
			c-2.17,0.34-4.73,0.52-7.59,0.52h-43.91c-3.37,0-7.09-0.19-11.06-0.58c-0.99-0.07-1.95-0.31-2.87-0.72
			c-1.34-0.59-1.71-0.67-1.92-0.67c-0.95,0-1.42,1.41-1.69,2.49c-1.57,6.89-2.33,11.28-2.33,13.41c0,1.84,0.74,2.22,1.36,2.22
			c0.54,0,1.25-0.29,1.58-1.67c0.28-1.18,0.9-2.5,1.84-3.95c1.26-1.97,4.77-3.03,10.45-3.19l16.15-0.45v47.13
			c0,12.96-0.19,21.25-0.55,24.64c-0.42,3.67-1.41,5.71-2.88,6.05c-1.15,0.08-2.27,0.2-3.33,0.35c-1.19,0.11-2.77,0.37-2.77,1.41
			c0,1.01,0.87,1.52,2.58,1.52c1.62,0,4.22-0.06,7.72-0.17c3.49-0.11,5.59-0.17,6.25-0.17c0.65,0,3.04,0.06,7.09,0.17
			c4.04,0.11,7.51,0.17,10.32,0.17c2.04,0,2.48-0.82,2.48-1.52c0-0.59-0.37-1.29-2.15-1.29c-1.59,0-3.47-0.16-5.6-0.47
			c-2.28-0.36-3.59-2.3-4.01-5.93c-0.37-3.37-0.56-11.7-0.56-24.76v-47.13l13.59,0.34c8.09,0.23,12.38,2.3,12.73,6.16l0.11,1.28
			c0.06,0.65,0.26,2.65,1.59,2.65c0.74,0,1.16-0.7,1.26-2.07c0.07-1.14,0.17-3.51,0.28-7.03c0.11-3.8,0.17-5.73,0.17-6.46
			C1122.14,979.59,1122.14,977.84,1121.24,977.49z"/>
		<path class="st1" d="M1197.39,1063.63c-1.56,0-3.43-0.16-5.55-0.47c-2.47-0.36-3.8-2.11-4.08-5.34
			c-0.29-3.08-0.44-11.37-0.44-25.35v-20.39c0-13.75,0.07-22.02,0.22-24.55c0.22-3.79,1.44-5.83,3.76-6.26
			c1.2-0.23,2.33-0.34,3.38-0.34c1.71,0,1.96-0.95,1.96-1.52c0-1.29-2.03-1.29-2.7-1.29c-1.55,0-4.01,0.06-7.33,0.17
			c-3.3,0.11-5.38,0.17-6.19,0.17c-0.95,0-3.24-0.06-6.8-0.17c-3.58-0.11-6.13-0.17-7.61-0.17c-1.3,0-3.03,0.13-3.03,1.29
			c0,0.7,0.4,1.52,2.31,1.52c1.25,0,2.5,0.16,3.73,0.45c2.14,0.58,3.28,2.59,3.49,6.16c0.15,2.53,0.22,10.56,0.22,24.55v20.39
			c0,13.35-0.19,21.85-0.55,25.28c-0.35,3.25-1.33,5.07-2.88,5.41c-1.16,0.08-2.25,0.2-3.34,0.35c-1.19,0.11-2.77,0.38-2.77,1.41
			c0,1.01,0.87,1.52,2.58,1.52c1.62,0,4.22-0.06,7.72-0.17c3.49-0.11,5.59-0.17,6.25-0.17s3.03,0.06,7.04,0.17
			c4,0.11,7.46,0.17,10.26,0.17c2.04,0,2.47-0.82,2.47-1.52C1199.52,1064.34,1199.15,1063.63,1197.39,1063.63z"/>
		<path class="st1" d="M1297.47,977.23l-0.32-0.04v0.37c0.01,0-0.02,0.01-0.02,0.01l-0.16-0.28c-0.04,0.02-0.27,0.14-1.65,0.6
			c-1.84,0.3-3.35,0.46-4.51,0.46c-1.51,0.08-11.08,0.11-29.25,0.11c-0.88,0-3.24-0.06-7.02-0.17c-3.8-0.11-6.81-0.17-8.94-0.17
			c-1.94,0-2.91,0.51-2.91,1.52c0,0.86,0.75,1.29,2.25,1.29c1.84,0,3.24,0.11,4.24,0.34c2.81,0.66,4.27,2.7,4.48,6.26
			c0.15,2.53,0.22,10.56,0.22,24.55v20.39c0,13.34-0.19,21.64-0.55,24.64c-0.42,3.67-1.41,5.71-2.88,6.05
			c-1.16,0.08-2.22,0.2-3.22,0.35c-1.19,0.11-2.77,0.37-2.77,1.41c0,1.01,0.9,1.52,2.69,1.52c1.57,0,4.06-0.06,7.61-0.17
			c3.49-0.11,5.66-0.17,6.47-0.17c0.58,0,2.89,0.06,6.87,0.17c3.97,0.11,7.33,0.17,9.99,0.17c1.86,0,2.8-0.51,2.8-1.52
			c0-0.86-0.76-1.29-2.27-1.29c-1.53,0-3.39-0.16-5.53-0.47c-2.3-0.36-3.63-2.34-4.05-6.05c-0.37-3.37-0.56-11.66-0.56-24.64v-9.38
			c0-0.67,0.26-0.67,0.41-0.67c9.15,0,14.68,0.11,16.43,0.34c2.84,0.37,4.6,1.66,5.36,3.87c0.15,1,0.34,2.03,0.56,3.01
			c0.18,1.16,0.49,2.5,1.36,2.5c0.98,0,1.48-0.86,1.48-2.56c0-2.5,0.15-5.34,0.44-8.42c0.14-1.31,0.33-2.86,0.55-4.63
			c0.28-1.97,0.34-2.45,0.34-2.6c0-1.23-0.65-1.41-1.03-1.41c-0.5,0-1.05,0.41-1.74,1.3c-0.82,1.08-2.27,1.73-4.35,1.95
			c-0.33,0.07-2.07,0.11-5.15,0.11h-14.25c-0.15,0-0.41,0-0.41-0.67v-28.76c0-1.24,0.46-1.24,0.62-1.24l17.15,0.34
			c3.76,0.07,6.12,1.16,7.02,3.22c0.43,0.95,0.65,2.36,0.65,4.23c0.11,1.8,0.86,2.17,1.47,2.17c0.55,0,1.26-0.34,1.48-1.97
			c0.22-3.63,0.4-6.76,0.55-9.37c0.14-1.12,0.32-2.28,0.55-3.43c0.34-1.41,0.34-1.72,0.34-1.82
			C1298.29,977.65,1297.84,977.33,1297.47,977.23z"/>
		<path class="st1" d="M1418.87,1063.63c-1.73,0-3.27-0.16-4.58-0.46c-3.26-0.73-6.45-4.91-9.49-12.4
			c-11.42-29.31-20.67-53.28-27.5-71.27c-1.12-2.68-2.11-3.93-3.11-3.93c-1.08,0-2.17,1.55-3.45,4.87l-27.83,72.77
			c-1.23,3.27-2.45,5.65-3.6,7.08c-1.43,1.8-3.24,2.82-5.52,3.11c-1.09,0.16-2.23,0.24-3.39,0.24c-1.48,0-1.7,0.81-1.7,1.29
			c0,0.7,0.43,1.52,2.48,1.52c2.28,0,6.69-0.11,13.08-0.34c1.1,0,3.05,0.06,5.81,0.17s4.76,0.17,5.94,0.17
			c1.87,0,2.25-0.82,2.25-1.52c0-0.59-0.35-1.29-2.03-1.29h-1.66c-2.74,0-4.07-1.05-4.07-3.23c0-1.56,0.55-3.89,1.64-6.94
			l5.99-16.57c0.24-0.68,0.55-0.68,0.65-0.68h24.72c0.24,0,0.55,0.06,0.76,0.57l8.87,24.57c0.24,0.65,0.28,1.18,0.1,1.54
			c-0.14,0.29-0.42,0.51-0.78,0.64c-1.56,0.11-1.89,0.83-1.89,1.41c0,0.81,1.1,1.2,3.68,1.29c4.71,0.16,11.56,0.23,20.96,0.23
			c1.99,0,3.31-0.08,4.06-0.24c1.16-0.24,1.41-0.82,1.41-1.28C1420.67,1064.44,1420.44,1063.63,1418.87,1063.63z M1381.64,1029.64
			c0,0-0.06,0.04-0.24,0.04H1361c-0.08,0-0.11-0.01-0.12-0.01c0,0-0.04-0.08,0.02-0.31l10.22-28.55c0.11-0.53,0.24-0.7,0.24-0.75
			c0.04,0.06,0.15,0.25,0.27,0.8l9.96,28.61C1381.63,1029.58,1381.63,1029.64,1381.64,1029.64z"/>
		<path class="st1" d="M1559.1,1063.63c-2.09,0-4.37-0.39-6.76-1.15c-1.54-0.5-2.63-1.54-3.33-3.15c-0.72-1.66-1.34-4.43-1.85-8.25
			l-10.09-71.62c-0.41-2.63-1.18-3.9-2.37-3.9c-0.98,0-1.89,0.98-2.78,3l-29.82,65.43l-29.93-64.63c-1.21-2.6-2.26-3.8-3.32-3.8
			c-1.17,0-1.93,1.12-2.25,3.33l-10.98,75.55c-0.78,5.45-2.21,8.42-4.25,8.85c-1.01,0.23-2.08,0.34-3.25,0.34
			c-1.42,0-2.14,0.39-2.14,1.18c0,0.75,0.41,1.64,2.36,1.64c1.33,0,3.36-0.06,6.05-0.17c2.68-0.11,4.33-0.17,4.92-0.17
			c0.44,0,2.05,0.06,4.81,0.17c2.76,0.11,5.06,0.17,6.83,0.17c2.01,0,3.03-0.55,3.03-1.64c0-0.54-0.35-1.18-2.03-1.18
			c-1.44,0-2.98-0.19-4.57-0.57c-2.04-0.49-3.04-1.59-3.04-3.35c0-1.84,0.11-3.67,0.33-5.4l5.7-45.58
			c5.17,11.45,8.87,19.74,11.33,25.34c1.47,3.55,5.65,12.18,12.76,26.38c2.62,5.29,3.59,6,4.2,6c0.67,0,1.71-0.8,4.44-6.71
			l23.98-52.3l6.58,50.47c0.47,3.82-0.11,4.48-0.38,4.59c-1.16,0.47-1.4,1.14-1.4,1.62c0,1.24,2.03,1.53,3.56,1.64
			c5.6,0.46,13.17,0.69,22.53,0.69c2.16,0,3.25-0.55,3.25-1.64C1561.24,1064.03,1560.53,1063.63,1559.1,1063.63z"/>
		<path class="st1" d="M1633.83,1063.63c-1.56,0-3.43-0.16-5.55-0.47c-2.47-0.36-3.8-2.11-4.08-5.34
			c-0.29-3.08-0.44-11.37-0.44-25.35v-20.39c0-13.75,0.07-22.02,0.22-24.55c0.22-3.79,1.44-5.83,3.76-6.26
			c1.2-0.23,2.33-0.34,3.38-0.34c1.71,0,1.96-0.95,1.96-1.52c0-1.29-2.03-1.29-2.7-1.29c-1.55,0-4.01,0.06-7.33,0.17
			c-3.3,0.11-5.38,0.17-6.19,0.17c-0.95,0-3.24-0.06-6.8-0.17c-3.58-0.11-6.13-0.17-7.61-0.17c-1.3,0-3.03,0.13-3.03,1.29
			c0,0.7,0.4,1.52,2.31,1.52c1.25,0,2.5,0.16,3.73,0.45c2.14,0.58,3.28,2.59,3.49,6.16c0.15,2.53,0.22,10.56,0.22,24.55v20.39
			c0,13.35-0.19,21.85-0.55,25.28c-0.35,3.25-1.33,5.07-2.88,5.41c-1.16,0.08-2.25,0.2-3.34,0.35c-1.19,0.11-2.77,0.38-2.77,1.41
			c0,1.01,0.87,1.52,2.58,1.52c1.62,0,4.22-0.06,7.72-0.17c3.49-0.11,5.59-0.17,6.25-0.17s3.03,0.06,7.04,0.17
			c4,0.11,7.46,0.17,10.26,0.17c2.04,0,2.48-0.82,2.48-1.52C1635.96,1064.34,1635.59,1063.63,1633.83,1063.63z"/>
		<path class="st1" d="M1737.36,1047.64c-0.61,0-1.38,0.36-1.59,2.06c-0.29,2.7-1.23,4.97-2.79,6.75c-1.84,2.07-6.11,3.12-12.7,3.12
			c-6.97,0-11.4-0.82-13.17-2.45c-0.66-0.59-1.51-2.35-1.87-7.4c-0.22-2.77-0.33-8.41-0.33-17.24v-20.39
			c0-13.99,0.07-22.02,0.22-24.55c0.22-3.79,1.46-5.83,3.8-6.26c1.22-0.23,2.65-0.34,4.26-0.34c1.56,0,2.36-0.47,2.36-1.41
			s-0.9-1.41-2.69-1.41c-1.55,0-4.3,0.06-8.16,0.17c-3.85,0.11-6.18,0.17-6.92,0.17c-0.8,0-3.07-0.06-6.74-0.17
			c-3.69-0.11-6.53-0.17-8.44-0.17c-0.7,0-2.8,0-2.8,1.41c0,0.65,0.39,1.41,2.25,1.41c2.72,0,4.66,0.37,5.78,1.1
			c1.38,0.94,2.15,2.79,2.28,5.51c0.15,2.53,0.22,10.56,0.22,24.55v20.39c0,13.34-0.19,21.64-0.55,24.64
			c-0.42,3.67-1.41,5.71-2.88,6.05c-1.15,0.08-2.25,0.2-3.34,0.35c-1.19,0.11-2.77,0.38-2.77,1.41c0,1.01,0.87,1.52,2.58,1.52
			c1.62,0,4.22-0.06,7.72-0.17c3.49-0.11,5.59-0.17,6.25-0.17c2.42,0,6.97,0.11,13.52,0.34c6.48,0.24,12.78,0.35,18.75,0.35
			c2.41,0,3.86-0.08,4.41-0.24c1.46-0.35,2.45-1.41,2.93-3.16c1.1-4.26,1.66-8.77,1.66-13.42
			C1738.61,1048.42,1738.19,1047.64,1737.36,1047.64z"/>
		<path class="st1" d="M1848.99,978.12c-0.67,0-2.58,0.06-5.83,0.17c-3.19,0.11-5.22,0.17-6.03,0.17c-1.03,0-2.72-0.06-5.03-0.17
			c-2.32-0.11-4.14-0.17-5.39-0.17c-1.87,0-2.25,0.76-2.25,1.41c0,0.67,0.77,1.17,2.45,1.57c1.26,0.31,1.88,1.12,1.88,2.48
			c0,1.56-0.51,3.54-1.51,5.86c-5.78,11.28-11.26,21.79-16.31,31.26c-12.17-22.23-18.22-33.35-18.5-34.03
			c-1.08-2.34-1.31-3.35-1.31-3.79c0-0.98,0.4-1.53,1.29-1.73c1.92-0.55,2.7-1.03,2.7-1.63c0-0.52-0.27-1.41-2.03-1.41
			c-1.84,0-4.16,0.06-6.89,0.17c-2.72,0.11-4.39,0.17-4.98,0.17c-1.32,0-3.87-0.06-7.58-0.17c-3.77-0.11-5.86-0.17-6.39-0.17
			c-1.64,0-2.47,0.47-2.47,1.41c0,0.65,0.35,1.41,2.03,1.41c1.33,0,2.83,0.49,4.47,1.46c2.31,1.36,4.84,4.17,7.53,8.34
			c1.85,2.96,5.48,9.08,10.8,18.19c5.51,9.46,8.27,14.27,8.68,15.14c1.67,3.96,2.53,8.01,2.53,12.02v9.51
			c0,4.3-0.11,8.19-0.33,11.56c-0.22,3.59-1.27,5.62-3.1,6.03c-1.15,0.08-2.22,0.2-3.24,0.35c-1.91,0.27-2.75,0.7-2.75,1.41
			c0,1.01,0.94,1.52,2.81,1.52c1.47,0,3.97-0.06,7.45-0.17c3.45-0.11,5.61-0.17,6.41-0.17c0.66,0,3.01,0.06,6.97,0.17
			c3.97,0.11,7.34,0.17,9.99,0.17c1.79,0,2.7-0.51,2.7-1.52c0-0.59-0.37-1.29-2.16-1.29c-1.53,0-3.39-0.16-5.55-0.47
			c-2.3-0.29-3.62-1.74-4.05-4.45c-0.37-1.98-0.55-6.4-0.55-13.14v-9.51c0-4.86,0.55-8.72,1.64-11.45
			c1.05-2.55,4.43-8.81,10.04-18.62c5.64-9.83,9.39-15.93,11.15-18.14c2.25-2.81,4.25-4.69,5.94-5.59c1.69-0.9,3.24-1.35,4.61-1.35
			c2.09,0,2.53-0.83,2.53-1.52C1851.35,978.55,1850.56,978.12,1848.99,978.12z"/>
	</g>
	<g>
		<g>
			<path class="st0" d="M699.25,1091.8c-1.18,0-3.02,0.04-5.52,0.11c-2.5,0.08-4.23,0.11-5.22,0.11c-0.55,0-2.09-0.04-4.63-0.11
				c-2.54-0.08-4.56-0.11-6.03-0.11c-1.09,0-1.63,0.23-1.63,0.7s0.42,0.7,1.26,0.7c1.23,0,2.2,0.08,2.89,0.23
				c1.97,0.47,3.03,1.94,3.19,4.42c0.1,1.7,0.15,7.17,0.15,16.41v13.63c0,8.98-0.13,14.48-0.37,16.49c-0.29,2.58-1.01,4-2.15,4.26
				c-0.75,0.05-1.49,0.13-2.22,0.23c-1.09,0.11-1.63,0.34-1.63,0.7c0,0.52,0.49,0.77,1.48,0.77c1.08,0,2.8-0.04,5.15-0.11
				c2.35-0.08,3.74-0.11,4.18-0.11c0.39,0,1.94,0.04,4.63,0.11c2.69,0.08,4.97,0.11,6.85,0.11c0.94,0,1.41-0.26,1.41-0.77
				c0-0.41-0.39-0.62-1.18-0.62c-1.09,0-2.35-0.1-3.78-0.31c-1.63-0.26-2.59-1.65-2.88-4.18c-0.25-2.27-0.37-7.8-0.37-16.57v-30.98
				c0-0.82,0.23-1.33,0.7-1.51c0.47-0.19,1.39-0.27,2.78-0.27c2.82,0,5.29,1,7.41,3.02c2.91,2.73,4.37,6.61,4.37,11.61
				c0,3.67-1.13,6.79-3.41,9.37c-2.02,2.27-4.2,3.41-6.52,3.41c-1.38,0-2.07,0.29-2.07,0.85c0,0.36,0.3,0.6,0.89,0.7
				c0.25,0.05,0.77,0.08,1.56,0.08c5.29,0,9.64-1.76,13.08-5.27c3.43-3.52,5.15-8.01,5.15-13.48c0-3.72-1.24-6.79-3.71-9.21
				C710.07,1093.27,705.47,1091.8,699.25,1091.8z"/>
			<path class="st0" d="M802.68,1148.87c-0.55-0.05-1.11-0.1-1.7-0.15c-2.82-0.57-5.58-2.32-8.3-5.27
				c-1.93-2.07-4.33-4.99-7.19-8.75c-0.55-0.62-3.51-4.49-8.89-11.61c6.52-5.52,9.78-11.31,9.78-17.35c0-2.37-0.59-4.6-1.78-6.66
				c-0.94-1.75-2.02-3.07-3.26-3.95c-3.11-2.22-7.65-3.33-13.63-3.33c-0.75,0-2.46,0.04-5.15,0.11c-2.69,0.08-4.46,0.11-5.29,0.11
				c-0.3,0-1.69-0.04-4.15-0.11c-2.47-0.08-4.47-0.11-6-0.11c-1.09,0-1.63,0.23-1.63,0.7s0.42,0.7,1.26,0.7
				c1.23,0,2.2,0.08,2.89,0.23c1.97,0.47,3.03,1.94,3.19,4.42c0.1,1.7,0.15,7.17,0.15,16.41v13.63c0,8.98-0.13,14.48-0.37,16.49
				c-0.29,2.58-1.01,4-2.15,4.26c-0.75,0.05-1.48,0.13-2.22,0.23c-1.09,0.11-1.63,0.34-1.63,0.7c0,0.52,0.49,0.77,1.48,0.77
				c1.13,0,2.84-0.04,5.12-0.11c2.27-0.08,3.58-0.11,3.92-0.11c0.1,0,1.52,0.04,4.26,0.11s4.95,0.11,6.63,0.11
				c0.99,0,1.48-0.26,1.48-0.77c0-0.41-0.3-0.62-0.89-0.62c-0.94,0-2.15-0.1-3.63-0.31c-1.64-0.21-2.6-1.61-2.89-4.23
				c-0.25-2.25-0.37-7.74-0.37-16.46v-1.08c0-0.41,0.2-0.62,0.6-0.62h6.44c0.6,0,1.04,0.19,1.33,0.55
				c2.77,3.97,5.22,7.54,7.34,10.68c4.34,6.25,7.73,10.04,10.14,11.39c1.73,0.98,4.38,1.47,7.93,1.47h7.04
				c0.94,0,1.41-0.26,1.41-0.77C803.94,1149.2,803.51,1148.97,802.68,1148.87z M768,1122.54c-2.37,0-4.25-0.26-5.63-0.77
				c-0.44-0.15-0.67-0.62-0.67-1.39v-23.55c0-0.46,0.12-0.77,0.37-0.93c0.44-0.31,1.85-0.47,4.23-0.47c2.76,0,5.21,0.98,7.33,2.94
				c2.67,2.58,4,6.33,4,11.23c0,5.53-1.46,9.4-4.38,11.62C772.13,1122.1,770.38,1122.54,768,1122.54z"/>
			<path class="st0" d="M852.16,1090.71c-10.17,0-18.05,3.4-23.63,10.22c-4.64,5.63-6.97,12.34-6.97,20.14
				c0,7.9,2.32,14.66,6.97,20.29c5.48,6.71,13.11,10.07,22.89,10.07c9.23,0,16.69-3.08,22.38-9.22c5.53-5.94,8.29-13.45,8.29-22.53
				c0-8.88-2.69-15.93-8.07-21.14C868.63,1093.32,861.35,1090.71,852.16,1090.71z M865.05,1143.45c-2.86,2.73-6.37,4.1-10.52,4.1
				c-6.92,0-12.48-2.81-16.67-8.44c-4.05-5.32-6.08-12.13-6.08-20.45c0-8.77,1.97-15.22,5.93-19.36c3.11-3.26,7.21-4.88,12.3-4.88
				c6.22,0,11.36,2.5,15.41,7.51c4.2,5.27,6.29,12.13,6.29,20.6C871.72,1132.29,869.5,1139.27,865.05,1143.45z"/>
			<path class="st0" d="M934.62,1091.8c-1.18,0-3.02,0.04-5.52,0.11c-2.5,0.08-4.23,0.11-5.22,0.11c-0.55,0-2.09-0.04-4.63-0.11
				c-2.54-0.08-4.56-0.11-6.03-0.11c-1.09,0-1.63,0.23-1.63,0.7s0.42,0.7,1.26,0.7c1.23,0,2.2,0.08,2.89,0.23
				c1.97,0.47,3.03,1.94,3.19,4.42c0.1,1.7,0.15,7.17,0.15,16.41v13.63c0,8.98-0.13,14.48-0.37,16.49c-0.29,2.58-1.01,4-2.15,4.26
				c-0.75,0.05-1.49,0.13-2.22,0.23c-1.09,0.11-1.63,0.34-1.63,0.7c0,0.52,0.49,0.77,1.48,0.77c1.08,0,2.81-0.04,5.15-0.11
				c2.35-0.08,3.74-0.11,4.18-0.11c0.39,0,1.94,0.04,4.63,0.11c2.69,0.08,4.97,0.11,6.85,0.11c0.94,0,1.41-0.26,1.41-0.77
				c0-0.41-0.39-0.62-1.18-0.62c-1.09,0-2.35-0.1-3.78-0.31c-1.63-0.26-2.59-1.65-2.88-4.18c-0.25-2.27-0.37-7.8-0.37-16.57v-30.98
				c0-0.82,0.23-1.33,0.7-1.51c0.47-0.19,1.39-0.27,2.78-0.27c2.82,0,5.29,1,7.41,3.02c2.91,2.73,4.37,6.61,4.37,11.61
				c0,3.67-1.13,6.79-3.41,9.37c-2.02,2.27-4.2,3.41-6.52,3.41c-1.38,0-2.07,0.29-2.07,0.85c0,0.36,0.3,0.6,0.89,0.7
				c0.25,0.05,0.77,0.08,1.56,0.08c5.29,0,9.64-1.76,13.08-5.27c3.43-3.52,5.15-8.01,5.15-13.48c0-3.72-1.24-6.79-3.71-9.21
				C945.44,1093.27,940.85,1091.8,934.62,1091.8z"/>
			<path class="st0" d="M1017.67,1138.57c-0.39,0-0.67,0.39-0.81,1.16c-0.49,2.99-1.61,4.9-3.35,5.72
				c-1.29,0.62-3.62,0.93-6.99,0.93c-3.72,0-6.11-0.4-7.18-1.2c-1.07-0.8-1.65-2.57-1.74-5.31v-18.12c0-0.52,0.14-0.77,0.44-0.77
				c5.65,0,9.18,0.08,10.56,0.24c2.38,0.26,3.77,1.26,4.17,3.02c0.2,1.23,0.3,2.12,0.3,2.67c0,0.55,0.22,0.81,0.67,0.81
				c0.44,0,0.67-0.49,0.67-1.47c0-0.52,0.1-2.25,0.3-5.19c0.1-1.55,0.22-2.91,0.37-4.1c0.14-0.98,0.22-1.5,0.22-1.55
				c0-0.42-0.17-0.62-0.52-0.62c-0.2,0-0.6,0.34-1.19,1c-0.34,0.42-0.89,0.72-1.64,0.93c-0.44,0.1-1.09,0.18-1.94,0.23
				c-1.14,0.1-5.11,0.15-11.9,0.15c-0.34,0-0.52-0.28-0.52-0.85v-19.59c0-0.52,0.17-0.77,0.52-0.77c5.36,0,8.87,0.1,10.56,0.31
				c2.73,0.36,4.39,1.29,4.99,2.79c0.15,0.41,0.24,0.88,0.29,1.39c0.05,0.52,0.11,1.05,0.19,1.63c0.08,0.57,0.29,0.85,0.63,0.85
				c0.4,0,0.65-0.28,0.75-0.85c0.2-2.02,0.34-3.72,0.41-5.12c0.08-1.39,0.19-2.6,0.34-3.64c0.14-0.88,0.22-1.34,0.22-1.4
				c0-0.46-0.15-0.7-0.44-0.7c0.05,0-0.34,0.11-1.18,0.31c-0.84,0.21-1.9,0.37-3.19,0.47c-0.65,0.05-6.82,0.08-18.52,0.08
				c-0.55,0-2.09-0.04-4.63-0.11c-2.54-0.08-4.56-0.11-6.03-0.11c-1.09,0-1.63,0.23-1.63,0.7s0.42,0.7,1.26,0.7
				c1.23,0,2.2,0.08,2.89,0.23c1.97,0.47,3.03,1.94,3.19,4.42c0.1,1.7,0.15,7.17,0.15,16.41v13.63c0,8.98-0.13,14.48-0.37,16.49
				c-0.29,2.58-1.01,4-2.15,4.26c-0.75,0.05-1.49,0.13-2.22,0.23c-1.09,0.11-1.63,0.34-1.63,0.7c0,0.52,0.49,0.77,1.48,0.77
				c1.08,0,2.8-0.04,5.15-0.11c2.35-0.08,3.74-0.11,4.18-0.11c0.89,0,3.46,0.08,7.7,0.23c4.25,0.16,8.52,0.24,12.82,0.24
				c1.53,0,2.52-0.11,2.96-0.31c0.44-0.21,0.79-0.77,1.04-1.71c0.64-2.58,0.96-5.45,0.96-8.59
				C1018.27,1139.03,1018.07,1138.57,1017.67,1138.57z"/>
			<path class="st0" d="M1105.61,1148.87c-0.55-0.05-1.11-0.1-1.7-0.15c-2.82-0.57-5.58-2.32-8.3-5.27
				c-1.93-2.07-4.33-4.99-7.19-8.75c-0.55-0.62-3.51-4.49-8.89-11.61c6.52-5.52,9.78-11.31,9.78-17.35c0-2.37-0.59-4.6-1.78-6.66
				c-0.94-1.75-2.02-3.07-3.26-3.95c-3.11-2.22-7.65-3.33-13.63-3.33c-0.75,0-2.46,0.04-5.15,0.11c-2.69,0.08-4.46,0.11-5.29,0.11
				c-0.3,0-1.69-0.04-4.15-0.11c-2.47-0.08-4.47-0.11-6-0.11c-1.09,0-1.63,0.23-1.63,0.7s0.42,0.7,1.26,0.7
				c1.23,0,2.2,0.08,2.89,0.23c1.97,0.47,3.03,1.94,3.19,4.42c0.1,1.7,0.15,7.17,0.15,16.41v13.63c0,8.98-0.13,14.48-0.37,16.49
				c-0.29,2.58-1.01,4-2.15,4.26c-0.75,0.05-1.48,0.13-2.22,0.23c-1.09,0.11-1.63,0.34-1.63,0.7c0,0.52,0.49,0.77,1.48,0.77
				c1.13,0,2.84-0.04,5.12-0.11c2.27-0.08,3.58-0.11,3.92-0.11c0.1,0,1.52,0.04,4.26,0.11s4.95,0.11,6.63,0.11
				c0.99,0,1.49-0.26,1.49-0.77c0-0.41-0.3-0.62-0.89-0.62c-0.94,0-2.15-0.1-3.63-0.31c-1.64-0.21-2.6-1.61-2.89-4.23
				c-0.25-2.25-0.37-7.74-0.37-16.46v-1.08c0-0.41,0.2-0.62,0.6-0.62h6.44c0.6,0,1.04,0.19,1.33,0.55
				c2.77,3.97,5.22,7.54,7.34,10.68c4.34,6.25,7.73,10.04,10.14,11.39c1.73,0.98,4.38,1.47,7.93,1.47h7.04
				c0.94,0,1.41-0.26,1.41-0.77C1106.88,1149.2,1106.45,1148.97,1105.61,1148.87z M1070.94,1122.54c-2.37,0-4.25-0.26-5.63-0.77
				c-0.44-0.15-0.67-0.62-0.67-1.39v-23.55c0-0.46,0.12-0.77,0.37-0.93c0.44-0.31,1.85-0.47,4.23-0.47c2.76,0,5.21,0.98,7.33,2.94
				c2.67,2.58,4,6.33,4,11.23c0,5.53-1.46,9.4-4.38,11.62C1075.07,1122.1,1073.32,1122.54,1070.94,1122.54z"/>
			<path class="st0" d="M1171.03,1091.33c0.15,0-0.52,0.11-1.99,0.34c-1.48,0.24-3.19,0.35-5.12,0.35h-29.34
				c-2.27,0-4.73-0.13-7.4-0.39c-0.7-0.05-1.36-0.22-2-0.5c-0.65-0.29-1.04-0.42-1.18-0.42c-0.35,0-0.65,0.49-0.89,1.47
				c-1.04,4.54-1.56,7.51-1.56,8.9c0,0.82,0.22,1.24,0.67,1.24c0.39,0,0.67-0.31,0.81-0.93c0.2-0.83,0.62-1.73,1.26-2.71
				c0.89-1.39,3.29-2.14,7.19-2.25l11.03-0.31v31.75c0,8.72-0.12,14.23-0.37,16.49c-0.29,2.58-1.01,4-2.15,4.26
				c-0.74,0.05-1.48,0.13-2.22,0.23c-1.09,0.11-1.64,0.34-1.64,0.7c0,0.52,0.49,0.77,1.48,0.77c1.08,0,2.81-0.04,5.15-0.11
				c2.35-0.08,3.74-0.11,4.18-0.11c0.44,0,2.02,0.04,4.74,0.11s5.01,0.11,6.89,0.11c0.94,0,1.41-0.26,1.41-0.77
				c0-0.41-0.39-0.62-1.19-0.62c-1.08,0-2.35-0.1-3.77-0.31c-1.63-0.26-2.6-1.65-2.89-4.18c-0.25-2.27-0.37-7.8-0.37-16.57v-31.75
				l9.34,0.24c5.58,0.15,8.49,1.6,8.74,4.33l0.08,0.85c0.09,1.03,0.37,1.55,0.81,1.55c0.34,0,0.55-0.39,0.6-1.16
				c0.05-0.77,0.11-2.33,0.19-4.69c0.07-2.36,0.11-3.8,0.11-4.31C1171.63,1091.87,1171.43,1091.33,1171.03,1091.33z"/>
			<path class="st0" d="M1222.16,1148.95c-1.08,0-2.32-0.1-3.74-0.31c-1.76-0.26-2.74-1.52-2.93-3.8c-0.2-2.07-0.29-7.72-0.29-16.96
				v-13.63c0-9.24,0.04-14.71,0.14-16.41c0.14-2.63,1.05-4.11,2.71-4.42c0.82-0.15,1.59-0.23,2.3-0.23c0.71,0,1.06-0.26,1.06-0.77
				c0-0.42-0.52-0.62-1.56-0.62c-1.03,0-2.67,0.04-4.89,0.11c-2.22,0.08-3.61,0.11-4.15,0.11c-0.64,0-2.16-0.04-4.56-0.11
				c-2.4-0.08-4.09-0.11-5.07-0.11c-1.19,0-1.78,0.2-1.78,0.62c0,0.52,0.43,0.77,1.3,0.77c0.86,0,1.71,0.1,2.55,0.31
				c1.53,0.42,2.37,1.86,2.52,4.34c0.1,1.7,0.15,7.17,0.15,16.41v13.63c0,8.98-0.13,14.62-0.37,16.92c-0.25,2.3-0.96,3.57-2.15,3.83
				c-0.75,0.05-1.49,0.13-2.22,0.23c-1.09,0.11-1.63,0.34-1.63,0.7c0,0.52,0.49,0.77,1.48,0.77c1.08,0,2.81-0.04,5.15-0.11
				c2.35-0.08,3.74-0.11,4.18-0.11s2.02,0.04,4.71,0.11s4.98,0.11,6.85,0.11c0.94,0,1.41-0.26,1.41-0.77
				C1223.34,1149.15,1222.94,1148.95,1222.16,1148.95z"/>
			<path class="st0" d="M1289.5,1138.57c-0.39,0-0.67,0.39-0.81,1.16c-0.49,2.99-1.61,4.9-3.35,5.72c-1.29,0.62-3.62,0.93-6.99,0.93
				c-3.72,0-6.11-0.4-7.18-1.2c-1.07-0.8-1.65-2.57-1.74-5.31v-18.12c0-0.52,0.14-0.77,0.44-0.77c5.65,0,9.18,0.08,10.56,0.24
				c2.38,0.26,3.77,1.26,4.17,3.02c0.2,1.23,0.3,2.12,0.3,2.67c0,0.55,0.22,0.81,0.67,0.81c0.44,0,0.67-0.49,0.67-1.47
				c0-0.52,0.1-2.25,0.3-5.19c0.1-1.55,0.22-2.91,0.37-4.1c0.14-0.98,0.22-1.5,0.22-1.55c0-0.42-0.17-0.62-0.52-0.62
				c-0.2,0-0.6,0.34-1.19,1c-0.34,0.42-0.89,0.72-1.64,0.93c-0.44,0.1-1.09,0.18-1.94,0.23c-1.14,0.1-5.11,0.15-11.9,0.15
				c-0.34,0-0.52-0.28-0.52-0.85v-19.59c0-0.52,0.17-0.77,0.52-0.77c5.36,0,8.87,0.1,10.56,0.31c2.73,0.36,4.39,1.29,4.99,2.79
				c0.15,0.41,0.24,0.88,0.29,1.39c0.05,0.52,0.11,1.05,0.19,1.63c0.08,0.57,0.29,0.85,0.63,0.85c0.4,0,0.65-0.28,0.75-0.85
				c0.2-2.02,0.34-3.72,0.41-5.12c0.08-1.39,0.19-2.6,0.34-3.64c0.14-0.88,0.22-1.34,0.22-1.4c0-0.46-0.15-0.7-0.44-0.7
				c0.05,0-0.34,0.11-1.18,0.31c-0.84,0.21-1.9,0.37-3.19,0.47c-0.65,0.05-6.82,0.08-18.52,0.08c-0.55,0-2.09-0.04-4.63-0.11
				c-2.54-0.08-4.56-0.11-6.03-0.11c-1.09,0-1.63,0.23-1.63,0.7s0.42,0.7,1.26,0.7c1.23,0,2.2,0.08,2.89,0.23
				c1.97,0.47,3.03,1.94,3.19,4.42c0.1,1.7,0.15,7.17,0.15,16.41v13.63c0,8.98-0.13,14.48-0.37,16.49c-0.29,2.58-1.01,4-2.15,4.26
				c-0.75,0.05-1.48,0.13-2.22,0.23c-1.09,0.11-1.63,0.34-1.63,0.7c0,0.52,0.49,0.77,1.48,0.77c1.08,0,2.81-0.04,5.15-0.11
				c2.35-0.08,3.74-0.11,4.18-0.11c0.89,0,3.46,0.08,7.7,0.23c4.25,0.16,8.52,0.24,12.82,0.24c1.53,0,2.52-0.11,2.96-0.31
				c0.44-0.21,0.79-0.77,1.04-1.71c0.64-2.58,0.96-5.45,0.96-8.59C1290.09,1139.03,1289.89,1138.57,1289.5,1138.57z"/>
			<path class="st0" d="M1350.47,1124.75c-1.83-2.97-4.96-6.21-9.41-9.72l-2.08-1.63c-3.01-2.37-5.07-4.38-6.18-6
				c-1.11-1.63-1.66-3.34-1.66-5.15c0-2.37,0.79-4.3,2.37-5.77c1.58-1.47,3.73-2.21,6.45-2.21c3.45,0,6.15,1.26,8.07,3.8
				c1.28,1.7,1.93,3.41,1.93,5.11c0,0.93,0.24,1.4,0.74,1.4c0.55,0,0.82-0.77,0.82-2.32c0-2.42,0.04-4.61,0.14-6.54
				c0.1-1.94,0.15-2.86,0.15-2.75c0-0.42-0.34-0.72-1.04-0.93c-3.36-0.88-6.64-1.31-9.85-1.31c-5.09,0-9.21,1.36-12.38,4.1
				c-3.16,2.73-4.74,6.24-4.74,10.53c0,6.25,3.66,12.36,10.97,18.35l3.41,2.79c4.84,3.97,7.26,8.11,7.26,12.39
				c0,2.27-0.82,4.25-2.45,5.96c-1.88,1.91-4.37,2.86-7.48,2.86c-5.58,0-9.11-2.6-10.6-7.82c-0.44-1.55-0.67-2.86-0.67-3.95
				c0-0.88-0.24-1.32-0.74-1.32s-0.79,0.67-0.89,2.02c-0.24,3.97-0.37,7.35-0.37,10.14c0,1.34,0.47,2.22,1.41,2.63
				c2.91,1.34,6.51,2.02,10.81,2.02c4.74,0,8.67-1.06,11.78-3.18c4.64-3.15,6.97-7.64,6.97-13.47
				C1353.21,1131.06,1352.3,1127.72,1350.47,1124.75z"/>
		</g>
	</g>
</g>
</svg>
