<?xml version="1.0" encoding="utf-8"?>
<!-- Generator: Adobe Illustrator 25.0.0, SVG Export Plug-In . SVG Version: 6.00 Build 0)  -->
<svg version="1.1" id="Layer_1" xmlns="http://www.w3.org/2000/svg" xmlns:xlink="http://www.w3.org/1999/xlink" x="0px" y="0px"
	 viewBox="0 0 2000 2000" style="enable-background:new 0 0 2000 2000;" xml:space="preserve">
<style type="text/css">
	.st0{fill:#E7A800;}
	.st1{fill:#3B1E34;}
</style>
<g>
	<g>
		<g>
			<path class="st0" d="M994.59,614.03l-144.68,115.8v372.2h144.68C994.59,1102.03,995.07,654.16,994.59,614.03z"/>
			<path class="st1" d="M1005.41,614.03l144.68,115.8v372.2C1150.09,1102.03,1004.93,654.16,1005.41,614.03z"/>
			<path class="st0" d="M1241.02,795.34l-90.93,72.78v233.91h90.93C1241.02,1102.03,1241.32,820.56,1241.02,795.34z"/>
			<path class="st1" d="M1247.82,795.34l90.93,72.78v233.91C1338.75,1102.03,1247.52,820.56,1247.82,795.34z"/>
			<path class="st0" d="M752.18,795.34l-90.93,72.78v233.91h90.93C752.18,1102.03,752.48,820.56,752.18,795.34z"/>
			<path class="st1" d="M758.98,795.34l90.93,72.78v233.91C849.91,1102.03,758.68,820.56,758.98,795.34z"/>
		</g>
		<g>
			<g>
				<path class="st1" d="M369.6,1269.32c-2.78,0-5.8-0.51-8.98-1.53c-2.04-0.67-3.49-2.04-4.42-4.18c-0.95-2.2-1.78-5.88-2.46-10.96
					l-13.4-95.16c-0.54-3.49-1.57-5.19-3.15-5.19c-1.3,0-2.51,1.31-3.69,3.98l-39.61,86.94l-39.77-85.87c-1.6-3.45-3-5.05-4.41-5.05
					c-1.55,0-2.56,1.49-2.99,4.42l-14.58,100.38c-1.04,7.23-2.94,11.19-5.65,11.75c-1.34,0.31-2.76,0.46-4.32,0.46
					c-1.89,0-2.84,0.52-2.84,1.56c0,0.99,0.54,2.17,3.14,2.17c1.76,0,4.47-0.08,8.04-0.23c3.56-0.15,5.76-0.23,6.54-0.23
					c0.58,0,2.73,0.08,6.39,0.23c3.67,0.15,6.72,0.23,9.07,0.23c2.67,0,4.02-0.73,4.02-2.17c0-0.71-0.47-1.56-2.7-1.56
					c-1.92,0-3.96-0.26-6.07-0.76c-2.72-0.66-4.04-2.12-4.04-4.45c0-2.45,0.15-4.87,0.44-7.18l7.57-60.56
					c6.87,15.21,11.79,26.22,15.06,33.67c1.95,4.72,7.5,16.18,16.96,35.05c3.48,7.03,4.78,7.98,5.59,7.98c0.89,0,2.28-1.06,5.9-8.92
					l31.86-69.49l8.74,67.06c0.62,5.08-0.14,5.96-0.51,6.1c-1.53,0.62-1.86,1.52-1.86,2.15c0,1.65,2.7,2.03,4.73,2.18
					c7.43,0.61,17.5,0.92,29.93,0.92c2.87,0,4.32-0.73,4.32-2.17C372.44,1269.84,371.49,1269.32,369.6,1269.32z"/>
				<path class="st1" d="M530.44,1155.7c-2.25,0-5.58,0.08-9.88,0.23c-4.29,0.15-6.61,0.23-6.88,0.23
					c-6.95-0.31-12.66-0.46-16.96-0.46c-2.38,0-3.58,0.63-3.58,1.87c0,0.86,0.51,1.88,2.99,1.88c2.12,0,3.86,0.15,5.19,0.45
					c3.73,0.88,5.68,3.6,5.97,8.34c0.19,3.43,0.3,14.73,0.3,32.66v19.27c0,9.76-0.4,17.1-1.17,21.81
					c-1.26,6.96-3.69,12.36-7.24,16.09c-5.18,5.42-11.9,8.18-19.97,8.18c-7.22,0-13.31-2.09-18.1-6.21
					c-7.5-6.45-11.31-19.08-11.31-37.56v-21.58c0-18.62,0.1-29.29,0.3-32.66c0.29-5.03,1.93-7.76,5.05-8.34
					c1.63-0.3,3.04-0.45,4.18-0.45c2.34,0,2.84-1.02,2.84-1.88c0-1.87-2.8-1.87-3.73-1.87c-1.86,0-5.11,0.08-9.67,0.23
					c-4.54,0.15-7.38,0.23-8.45,0.23c-1.17,0-4.37-0.08-9.48-0.23c-5.14-0.15-9.19-0.23-12.03-0.23c-0.92,0-3.72,0-3.72,1.87
					c0,0.86,0.51,1.87,2.98,1.87c2.45,0,4.3,0.15,5.63,0.46c3.73,0.88,5.67,3.59,5.96,8.32c0.2,3.36,0.3,14.03,0.3,32.62v22.48
					c0,19.04,4.46,32.89,13.26,41.15c7.52,7.14,18.63,10.76,33.04,10.76c12.24,0,22.66-3.77,30.96-11.21
					c5.64-5.08,9.61-12.21,11.79-21.19c1.57-6.49,2.36-15.08,2.36-25.52v-16.47c0-18.59,0.1-29.25,0.3-32.62
					c0.29-5.03,1.93-7.75,5.05-8.32c1.62-0.31,3.02-0.46,4.18-0.46c2.59,0,3.14-1.01,3.14-1.87
					C534.03,1156.33,532.82,1155.7,530.44,1155.7z"/>
				<path class="st1" d="M665.36,1248.07c-0.81,0-1.83,0.48-2.11,2.74c-0.39,3.58-1.64,6.61-3.71,8.97
					c-2.44,2.75-8.12,4.15-16.87,4.15c-9.26,0-15.15-1.1-17.5-3.26c-0.88-0.78-2.01-3.13-2.49-9.84c-0.3-3.68-0.44-11.17-0.44-22.9
					v-27.09c0-18.59,0.1-29.25,0.3-32.62c0.29-5.03,1.93-7.75,5.04-8.32c1.62-0.31,3.52-0.46,5.66-0.46c2.08,0,3.14-0.63,3.14-1.87
					s-1.2-1.87-3.57-1.87c-2.06,0-5.71,0.08-10.85,0.23c-5.12,0.15-8.22,0.23-9.19,0.23c-1.07,0-4.08-0.08-8.96-0.23
					c-4.91-0.15-8.67-0.23-11.22-0.23c-0.92,0-3.73,0-3.73,1.87c0,0.86,0.51,1.87,2.99,1.87c3.61,0,6.2,0.5,7.67,1.46
					c1.83,1.25,2.85,3.71,3.03,7.32c0.2,3.36,0.3,14.03,0.3,32.62v27.09c0,17.73-0.25,28.75-0.73,32.74
					c-0.56,4.88-1.87,7.59-3.82,8.04c-1.53,0.1-2.99,0.27-4.43,0.47c-1.58,0.14-3.68,0.51-3.68,1.87c0,1.34,1.15,2.02,3.43,2.02
					c2.15,0,5.6-0.08,10.26-0.23c4.63-0.15,7.43-0.23,8.3-0.23c3.22,0,9.26,0.15,17.96,0.46c8.61,0.31,16.99,0.47,24.91,0.47
					c3.2,0,5.13-0.1,5.86-0.31c1.94-0.47,3.26-1.88,3.9-4.2c1.47-5.66,2.21-11.66,2.21-17.83
					C667.02,1249.11,666.47,1248.07,665.36,1248.07z"/>
				<path class="st1" d="M810.61,1154.86l-0.02-0.09h-0.45v0.49l-0.13-0.45c-0.11,0.04-0.77,0.16-3.92,0.65
					c-2.89,0.46-6.28,0.7-10.08,0.7h-58.33c-4.48,0-9.42-0.26-14.69-0.77c-1.32-0.1-2.59-0.41-3.81-0.96
					c-1.78-0.78-2.28-0.89-2.55-0.89c-1.26,0-1.89,1.88-2.25,3.31c-2.09,9.15-3.1,14.98-3.1,17.81c0,2.44,0.98,2.95,1.81,2.95
					c0.71,0,1.66-0.38,2.1-2.22c0.37-1.56,1.19-3.33,2.44-5.24c1.67-2.61,6.34-4.03,13.88-4.23l21.46-0.6v62.61
					c0,17.22-0.25,28.23-0.73,32.74c-0.56,4.88-1.88,7.59-3.83,8.04c-1.53,0.1-3.02,0.27-4.42,0.47c-1.58,0.14-3.68,0.5-3.68,1.87
					c0,1.34,1.15,2.02,3.43,2.02c2.15,0,5.6-0.08,10.26-0.23c4.63-0.15,7.43-0.23,8.3-0.23c0.87,0,4.04,0.08,9.42,0.23
					c5.37,0.15,9.98,0.23,13.71,0.23c2.72,0,3.29-1.1,3.29-2.02c0-0.78-0.5-1.72-2.85-1.72c-2.11,0-4.6-0.21-7.43-0.62
					c-3.03-0.48-4.78-3.06-5.33-7.88c-0.5-4.48-0.74-15.55-0.74-32.89v-62.62l18.06,0.45c10.75,0.31,16.44,3.06,16.91,8.18
					l0.14,1.71c0.09,0.87,0.34,3.52,2.11,3.52c0.98,0,1.54-0.92,1.67-2.75c0.1-1.52,0.22-4.66,0.37-9.34
					c0.15-5.05,0.22-7.62,0.22-8.58C811.81,1157.66,811.81,1155.33,810.61,1154.86z"/>
				<path class="st1" d="M911.79,1269.32c-2.08,0-4.56-0.21-7.37-0.62c-3.28-0.48-5.05-2.8-5.42-7.1
					c-0.39-4.1-0.58-15.11-0.58-33.68v-27.09c0-18.27,0.1-29.25,0.29-32.62c0.29-5.03,1.92-7.75,4.99-8.32
					c1.59-0.31,3.1-0.46,4.49-0.46c2.27,0,2.6-1.27,2.6-2.02c0-1.72-2.7-1.72-3.58-1.72c-2.06,0-5.33,0.08-9.74,0.23
					c-4.38,0.15-7.15,0.23-8.23,0.23c-1.27,0-4.31-0.08-9.04-0.23c-4.76-0.15-8.15-0.23-10.11-0.23c-1.73,0-4.02,0.17-4.02,1.72
					c0,0.92,0.53,2.02,3.07,2.02c1.66,0,3.33,0.21,4.96,0.6c2.84,0.77,4.36,3.44,4.64,8.18c0.2,3.36,0.3,14.03,0.3,32.62v27.09
					c0,17.74-0.25,29.03-0.73,33.59c-0.47,4.32-1.77,6.74-3.82,7.19c-1.53,0.1-2.99,0.27-4.43,0.47c-1.58,0.14-3.68,0.51-3.68,1.87
					c0,1.34,1.15,2.02,3.43,2.02c2.15,0,5.6-0.08,10.26-0.23c4.63-0.15,7.43-0.23,8.3-0.23c0.88,0,4.02,0.08,9.35,0.23
					c5.32,0.15,9.91,0.23,13.63,0.23c2.72,0,3.29-1.1,3.29-2.02C914.62,1270.25,914.13,1269.32,911.79,1269.32z"/>
				<path class="st1" d="M1044.76,1154.52l-0.43-0.06v0.49c0.01,0-0.03,0.01-0.02,0.01l-0.21-0.37c-0.05,0.03-0.36,0.19-2.19,0.8
					c-2.44,0.4-4.45,0.61-5.99,0.61c-2.01,0.1-14.73,0.15-38.86,0.15c-1.17,0-4.31-0.08-9.33-0.23c-5.04-0.15-9.05-0.23-11.88-0.23
					c-2.57,0-3.87,0.68-3.87,2.02c0,1.14,1,1.72,2.98,1.72c2.45,0,4.3,0.15,5.63,0.46c3.73,0.88,5.67,3.59,5.96,8.32
					c0.2,3.36,0.3,14.03,0.3,32.62v27.09c0,17.73-0.25,28.75-0.73,32.74c-0.56,4.88-1.87,7.59-3.82,8.04
					c-1.53,0.1-2.95,0.27-4.28,0.47c-1.58,0.14-3.68,0.5-3.68,1.87c0,1.34,1.2,2.02,3.57,2.02c2.09,0,5.39-0.08,10.11-0.23
					c4.63-0.15,7.52-0.23,8.6-0.23c0.77,0,3.84,0.08,9.12,0.23c5.27,0.15,9.74,0.23,13.27,0.23c2.47,0,3.72-0.68,3.72-2.02
					c0-1.14-1.01-1.72-3.01-1.72c-2.03,0-4.5-0.21-7.35-0.62c-3.06-0.48-4.82-3.11-5.39-8.04c-0.5-4.48-0.74-15.49-0.74-32.74
					v-12.47c0-0.9,0.34-0.9,0.54-0.9c12.15,0,19.5,0.15,21.83,0.46c3.77,0.49,6.11,2.2,7.12,5.14c0.2,1.33,0.46,2.7,0.74,4
					c0.24,1.54,0.66,3.33,1.81,3.33c1.31,0,1.97-1.14,1.97-3.4c0-3.32,0.2-7.09,0.59-11.19c0.19-1.74,0.44-3.79,0.73-6.15
					c0.37-2.62,0.45-3.25,0.45-3.45c0-1.63-0.86-1.87-1.37-1.87c-0.67,0-1.4,0.54-2.32,1.73c-1.09,1.43-3.01,2.3-5.78,2.59
					c-0.44,0.1-2.75,0.14-6.84,0.14h-18.94c-0.2,0-0.54,0-0.54-0.89v-38.21c0-1.65,0.61-1.65,0.83-1.65l22.78,0.46
					c4.99,0.1,8.13,1.53,9.32,4.28c0.57,1.26,0.86,3.14,0.86,5.61c0.14,2.39,1.14,2.89,1.95,2.89c0.73,0,1.67-0.45,1.96-2.61
					c0.3-4.82,0.53-8.98,0.73-12.45c0.18-1.49,0.43-3.03,0.72-4.56c0.45-1.88,0.45-2.29,0.45-2.42
					C1045.84,1155.07,1045.25,1154.65,1044.76,1154.52z"/>
				<path class="st1" d="M1206.05,1269.32c-2.3,0-4.35-0.21-6.08-0.61c-4.33-0.97-8.57-6.52-12.61-16.48
					c-15.17-38.94-27.46-70.79-36.54-94.7c-1.49-3.56-2.8-5.22-4.13-5.22c-1.43,0-2.89,2.06-4.58,6.47l-36.97,96.69
					c-1.64,4.35-3.25,7.51-4.78,9.41c-1.91,2.39-4.3,3.75-7.34,4.13c-1.45,0.21-2.96,0.31-4.5,0.31c-1.96,0-2.26,1.08-2.26,1.72
					c0,0.92,0.57,2.02,3.29,2.02c3.03,0,8.88-0.15,17.38-0.46c1.46,0,4.05,0.08,7.72,0.23c3.67,0.15,6.32,0.23,7.89,0.23
					c2.48,0,2.99-1.1,2.99-2.02c0-0.78-0.47-1.72-2.7-1.72h-2.2c-3.64,0-5.41-1.4-5.41-4.29c0-2.07,0.73-5.17,2.18-9.23l7.96-22.02
					c0.32-0.91,0.72-0.91,0.87-0.91h32.85c0.32,0,0.73,0.09,1.01,0.75l11.78,32.65c0.32,0.87,0.37,1.56,0.13,2.04
					c-0.18,0.39-0.56,0.68-1.04,0.85c-2.07,0.14-2.51,1.1-2.51,1.87c0,1.08,1.46,1.59,4.89,1.72c6.25,0.21,15.36,0.3,27.85,0.3
					c2.64,0,4.4-0.1,5.39-0.31c1.54-0.31,1.87-1.1,1.87-1.71C1208.45,1270.4,1208.14,1269.32,1206.05,1269.32z M1156.59,1224.15
					c0,0-0.08,0.06-0.32,0.06h-27.1c-0.1,0-0.15-0.02-0.16-0.02c0,0-0.05-0.1,0.03-0.41l13.57-37.94c0.14-0.71,0.31-0.92,0.32-0.99
					c0.06,0.08,0.2,0.33,0.36,1.06l13.24,38.01C1156.58,1224.07,1156.58,1224.15,1156.59,1224.15z"/>
				<path class="st1" d="M1392.38,1269.32c-2.78,0-5.8-0.51-8.98-1.53c-2.04-0.67-3.49-2.04-4.42-4.18
					c-0.95-2.2-1.78-5.88-2.46-10.96l-13.4-95.16c-0.54-3.49-1.57-5.19-3.15-5.19c-1.3,0-2.51,1.31-3.69,3.98l-39.61,86.94
					l-39.77-85.87c-1.6-3.45-3-5.05-4.41-5.05c-1.55,0-2.56,1.49-2.99,4.42l-14.58,100.38c-1.04,7.23-2.94,11.19-5.65,11.75
					c-1.34,0.31-2.76,0.46-4.32,0.46c-1.89,0-2.84,0.52-2.84,1.56c0,0.99,0.54,2.17,3.14,2.17c1.76,0,4.47-0.08,8.04-0.23
					c3.56-0.15,5.76-0.23,6.54-0.23c0.58,0,2.73,0.08,6.39,0.23c3.67,0.15,6.72,0.23,9.07,0.23c2.67,0,4.02-0.73,4.02-2.17
					c0-0.71-0.47-1.56-2.7-1.56c-1.92,0-3.96-0.26-6.07-0.76c-2.72-0.66-4.04-2.12-4.04-4.45c0-2.45,0.15-4.87,0.44-7.18l7.57-60.56
					c6.87,15.21,11.79,26.22,15.06,33.67c1.95,4.72,7.5,16.18,16.96,35.05c3.48,7.03,4.78,7.98,5.59,7.98c0.89,0,2.28-1.06,5.9-8.92
					l31.86-69.49l8.74,67.06c0.62,5.08-0.14,5.96-0.51,6.1c-1.53,0.62-1.86,1.52-1.86,2.15c0,1.65,2.7,2.03,4.73,2.18
					c7.43,0.61,17.5,0.92,29.93,0.92c2.87,0,4.32-0.73,4.32-2.17C1395.22,1269.84,1394.27,1269.32,1392.38,1269.32z"/>
				<path class="st1" d="M1491.66,1269.32c-2.08,0-4.56-0.21-7.37-0.62c-3.28-0.48-5.05-2.8-5.42-7.1
					c-0.39-4.1-0.58-15.11-0.58-33.68v-27.09c0-18.27,0.1-29.25,0.29-32.62c0.29-5.03,1.92-7.75,4.99-8.32
					c1.59-0.31,3.1-0.46,4.49-0.46c2.27,0,2.6-1.27,2.6-2.02c0-1.72-2.7-1.72-3.58-1.72c-2.06,0-5.33,0.08-9.74,0.23
					c-4.38,0.15-7.15,0.23-8.23,0.23c-1.27,0-4.31-0.08-9.04-0.23c-4.76-0.15-8.15-0.23-10.11-0.23c-1.73,0-4.02,0.17-4.02,1.72
					c0,0.92,0.53,2.02,3.07,2.02c1.66,0,3.33,0.21,4.96,0.6c2.84,0.77,4.36,3.44,4.64,8.18c0.2,3.36,0.3,14.03,0.3,32.62v27.09
					c0,17.74-0.25,29.03-0.73,33.59c-0.47,4.32-1.77,6.74-3.82,7.19c-1.53,0.1-2.99,0.27-4.43,0.47c-1.58,0.14-3.68,0.51-3.68,1.87
					c0,1.34,1.15,2.02,3.43,2.02c2.15,0,5.6-0.08,10.26-0.23c4.63-0.15,7.43-0.23,8.3-0.23c0.88,0,4.02,0.08,9.35,0.23
					c5.32,0.15,9.91,0.23,13.63,0.23c2.72,0,3.29-1.1,3.29-2.02C1494.49,1270.25,1494.01,1269.32,1491.66,1269.32z"/>
				<path class="st1" d="M1629.21,1248.07c-0.81,0-1.83,0.48-2.11,2.74c-0.39,3.58-1.64,6.61-3.71,8.97
					c-2.44,2.75-8.12,4.15-16.87,4.15c-9.26,0-15.15-1.1-17.5-3.26c-0.88-0.78-2.01-3.13-2.49-9.84c-0.3-3.68-0.44-11.17-0.44-22.9
					v-27.09c0-18.59,0.1-29.25,0.3-32.62c0.29-5.03,1.93-7.75,5.04-8.32c1.62-0.31,3.52-0.46,5.66-0.46c2.08,0,3.14-0.63,3.14-1.87
					s-1.2-1.87-3.57-1.87c-2.06,0-5.71,0.08-10.85,0.23c-5.12,0.15-8.22,0.23-9.19,0.23c-1.07,0-4.08-0.08-8.96-0.23
					c-4.91-0.15-8.67-0.23-11.22-0.23c-0.92,0-3.73,0-3.73,1.87c0,0.86,0.51,1.87,2.99,1.87c3.61,0,6.2,0.5,7.67,1.46
					c1.83,1.25,2.85,3.71,3.03,7.32c0.2,3.36,0.3,14.03,0.3,32.62v27.09c0,17.73-0.25,28.75-0.73,32.74
					c-0.56,4.88-1.87,7.59-3.82,8.04c-1.53,0.1-2.99,0.27-4.43,0.47c-1.58,0.14-3.68,0.51-3.68,1.87c0,1.34,1.15,2.02,3.43,2.02
					c2.15,0,5.6-0.08,10.26-0.23c4.63-0.15,7.43-0.23,8.3-0.23c3.22,0,9.26,0.15,17.96,0.46c8.61,0.31,16.99,0.47,24.91,0.47
					c3.2,0,5.13-0.1,5.86-0.31c1.94-0.47,3.26-1.88,3.9-4.2c1.47-5.66,2.21-11.66,2.21-17.83
					C1630.87,1249.11,1630.32,1248.07,1629.21,1248.07z"/>
				<path class="st1" d="M1777.54,1155.7c-0.9,0-3.43,0.08-7.75,0.23c-4.24,0.15-6.94,0.23-8.01,0.23c-1.36,0-3.61-0.08-6.68-0.23
					c-3.09-0.15-5.5-0.23-7.17-0.23c-2.48,0-2.99,1.01-2.99,1.87c0,0.9,1.03,1.55,3.25,2.09c1.68,0.41,2.5,1.49,2.5,3.3
					c0,2.08-0.68,4.71-2.01,7.79c-7.68,14.98-14.96,28.96-21.67,41.53c-16.17-29.53-24.21-44.31-24.58-45.21
					c-1.43-3.11-1.73-4.45-1.73-5.03c0-1.31,0.53-2.03,1.72-2.3c2.55-0.73,3.59-1.36,3.59-2.16c0-0.7-0.35-1.87-2.7-1.87
					c-2.45,0-5.53,0.08-9.15,0.23c-3.61,0.15-5.83,0.23-6.61,0.23c-1.75,0-5.14-0.08-10.07-0.23c-5.01-0.15-7.79-0.23-8.49-0.23
					c-2.17,0-3.28,0.63-3.28,1.87c0,0.86,0.47,1.87,2.7,1.87c1.76,0,3.77,0.65,5.94,1.93c3.07,1.81,6.43,5.54,10,11.08
					c2.46,3.93,7.28,12.06,14.35,24.16c7.32,12.56,10.99,18.96,11.53,20.11c2.22,5.26,3.36,10.64,3.36,15.98v12.63
					c0,5.71-0.15,10.89-0.44,15.37c-0.29,4.77-1.69,7.46-4.12,8.01c-1.53,0.1-2.95,0.27-4.31,0.47c-2.54,0.36-3.66,0.93-3.66,1.87
					c0,1.34,1.25,2.02,3.73,2.02c1.95,0,5.28-0.08,9.89-0.23c4.58-0.15,7.45-0.23,8.52-0.23c0.88,0,3.99,0.08,9.26,0.23
					c5.28,0.15,9.75,0.23,13.27,0.23c2.38,0,3.58-0.68,3.58-2.02c0-0.78-0.5-1.72-2.87-1.72c-2.03,0-4.5-0.21-7.37-0.62
					c-3.05-0.38-4.81-2.31-5.39-5.91c-0.49-2.63-0.73-8.5-0.73-17.46v-12.63c0-6.46,0.73-11.58,2.18-15.21
					c1.39-3.38,5.88-11.7,13.34-24.73c7.49-13.06,12.48-21.17,14.81-24.1c2.99-3.74,5.65-6.23,7.89-7.43
					c2.24-1.19,4.3-1.79,6.13-1.79c2.78,0,3.36-1.1,3.36-2.02C1780.67,1156.27,1779.62,1155.7,1777.54,1155.7z"/>
			</g>
			<g>
				<g>
					<path class="st0" d="M580.86,1306.74c-1.57,0-4.01,0.05-7.33,0.15c-3.32,0.1-5.62,0.15-6.94,0.15c-0.72,0-2.77-0.05-6.16-0.15
						c-3.37-0.1-6.05-0.15-8.02-0.15c-1.45,0-2.16,0.3-2.16,0.92c0,0.62,0.55,0.92,1.67,0.92c1.64,0,2.92,0.1,3.84,0.31
						c2.62,0.62,4.03,2.57,4.23,5.87c0.13,2.26,0.2,9.53,0.2,21.81v18.11c0,11.93-0.17,19.24-0.5,21.91
						c-0.39,3.43-1.34,5.32-2.85,5.66c-0.99,0.07-1.97,0.17-2.95,0.31c-1.45,0.14-2.16,0.45-2.16,0.92c0,0.69,0.65,1.03,1.96,1.03
						c1.44,0,3.73-0.05,6.84-0.15s4.97-0.15,5.56-0.15c0.52,0,2.57,0.05,6.16,0.15c3.57,0.1,6.61,0.15,9.1,0.15
						c1.25,0,1.87-0.34,1.87-1.03c0-0.54-0.52-0.82-1.57-0.82c-1.45,0-3.12-0.13-5.02-0.41c-2.16-0.34-3.44-2.19-3.83-5.56
						c-0.33-3.02-0.5-10.36-0.5-22.02v-41.16c0-1.1,0.3-1.76,0.93-2c0.62-0.25,1.85-0.36,3.69-0.36c3.75,0,7.02,1.33,9.85,4.01
						c3.87,3.63,5.8,8.78,5.8,15.43c0,4.87-1.51,9.02-4.53,12.45c-2.69,3.02-5.58,4.53-8.66,4.53c-1.83,0-2.75,0.38-2.75,1.13
						c0,0.48,0.4,0.79,1.18,0.92c0.33,0.07,1.02,0.1,2.07,0.1c7.02,0,12.81-2.34,17.38-7c4.56-4.67,6.84-10.64,6.84-17.91
						c0-4.94-1.65-9.02-4.93-12.24C595.23,1308.69,589.13,1306.74,580.86,1306.74z"/>
					<path class="st0" d="M718.28,1382.56c-0.72-0.07-1.48-0.13-2.26-0.2c-3.75-0.75-7.42-3.09-11.03-7
						c-2.56-2.75-5.75-6.62-9.55-11.63c-0.72-0.82-4.66-5.97-11.81-15.43c8.66-7.34,12.99-15.02,12.99-23.05
						c0-3.16-0.78-6.11-2.36-8.85c-1.25-2.33-2.69-4.08-4.33-5.24c-4.14-2.95-10.17-4.42-18.11-4.42c-0.99,0-3.27,0.05-6.84,0.15
						c-3.57,0.1-5.92,0.15-7.03,0.15c-0.4,0-2.24-0.05-5.52-0.15s-5.94-0.15-7.97-0.15c-1.45,0-2.16,0.3-2.16,0.92
						c0,0.62,0.55,0.92,1.67,0.92c1.64,0,2.92,0.1,3.84,0.31c2.62,0.62,4.03,2.57,4.23,5.87c0.13,2.26,0.2,9.53,0.2,21.81v18.11
						c0,11.93-0.17,19.24-0.5,21.91c-0.39,3.43-1.34,5.32-2.85,5.66c-0.99,0.07-1.97,0.17-2.95,0.31c-1.45,0.14-2.16,0.45-2.16,0.92
						c0,0.69,0.65,1.03,1.96,1.03c1.51,0,3.77-0.05,6.8-0.15c3.01-0.1,4.76-0.15,5.21-0.15c0.13,0,2.02,0.05,5.66,0.15
						c3.64,0.1,6.58,0.15,8.81,0.15c1.32,0,1.97-0.34,1.97-1.03c0-0.54-0.4-0.82-1.18-0.82c-1.25,0-2.86-0.13-4.82-0.41
						c-2.17-0.28-3.45-2.14-3.84-5.62c-0.33-2.99-0.5-10.28-0.5-21.87v-1.43c0-0.54,0.27-0.82,0.79-0.82h8.56
						c0.79,0,1.38,0.25,1.77,0.72c3.68,5.28,6.93,10.02,9.75,14.19c5.77,8.3,10.27,13.34,13.48,15.13c2.3,1.31,5.81,1.95,10.53,1.95
						h9.35c1.25,0,1.88-0.34,1.88-1.03C719.96,1383.01,719.39,1382.71,718.28,1382.56z M672.21,1347.58c-3.15,0-5.64-0.34-7.48-1.03
						c-0.59-0.2-0.89-0.82-0.89-1.85v-31.28c0-0.61,0.16-1.03,0.5-1.23c0.59-0.41,2.46-0.62,5.61-0.62c3.67,0,6.92,1.31,9.74,3.91
						c3.55,3.43,5.32,8.41,5.32,14.92c0,7.35-1.94,12.49-5.81,15.44C677.69,1347,675.37,1347.58,672.21,1347.58z"/>
					<path class="st0" d="M784.03,1305.3c-13.52,0-23.98,4.52-31.4,13.57c-6.17,7.48-9.26,16.39-9.26,26.76
						c0,10.49,3.09,19.48,9.26,26.96c7.28,8.92,17.42,13.38,30.42,13.38c12.27,0,22.18-4.09,29.73-12.25
						c7.35-7.89,11.02-17.87,11.02-29.94c0-11.8-3.57-21.16-10.72-28.09C805.91,1308.76,796.24,1305.3,784.03,1305.3z
						 M801.16,1375.37c-3.8,3.63-8.46,5.45-13.97,5.45c-9.19,0-16.58-3.74-22.15-11.22c-5.39-7.06-8.07-16.12-8.07-27.17
						c0-11.66,2.62-20.23,7.87-25.72c4.14-4.33,9.58-6.48,16.35-6.48c8.26,0,15.09,3.33,20.47,9.98c5.58,7,8.36,16.12,8.36,27.37
						C810.01,1360.55,807.07,1369.81,801.16,1375.37z"/>
					<path class="st0" d="M893.59,1306.74c-1.57,0-4.01,0.05-7.33,0.15c-3.32,0.1-5.62,0.15-6.94,0.15c-0.72,0-2.77-0.05-6.16-0.15
						c-3.37-0.1-6.05-0.15-8.02-0.15c-1.45,0-2.16,0.3-2.16,0.92c0,0.62,0.55,0.92,1.67,0.92c1.64,0,2.92,0.1,3.84,0.31
						c2.62,0.62,4.03,2.57,4.23,5.87c0.13,2.26,0.2,9.53,0.2,21.81v18.11c0,11.93-0.17,19.24-0.5,21.91
						c-0.39,3.43-1.34,5.32-2.85,5.66c-0.99,0.07-1.97,0.17-2.95,0.31c-1.45,0.14-2.16,0.45-2.16,0.92c0,0.69,0.65,1.03,1.96,1.03
						c1.44,0,3.73-0.05,6.84-0.15s4.97-0.15,5.56-0.15c0.52,0,2.57,0.05,6.16,0.15c3.57,0.1,6.61,0.15,9.1,0.15
						c1.25,0,1.87-0.34,1.87-1.03c0-0.54-0.52-0.82-1.57-0.82c-1.45,0-3.12-0.13-5.02-0.41c-2.16-0.34-3.44-2.19-3.83-5.56
						c-0.33-3.02-0.5-10.36-0.5-22.02v-41.16c0-1.1,0.3-1.76,0.93-2c0.62-0.25,1.85-0.36,3.69-0.36c3.75,0,7.02,1.33,9.85,4.01
						c3.87,3.63,5.8,8.78,5.8,15.43c0,4.87-1.51,9.02-4.53,12.45c-2.69,3.02-5.58,4.53-8.66,4.53c-1.83,0-2.75,0.38-2.75,1.13
						c0,0.48,0.4,0.79,1.18,0.92c0.33,0.07,1.02,0.1,2.07,0.1c7.02,0,12.81-2.34,17.38-7c4.56-4.67,6.84-10.64,6.84-17.91
						c0-4.94-1.65-9.02-4.93-12.24C907.96,1308.69,901.86,1306.74,893.59,1306.74z"/>
					<path class="st0" d="M1003.94,1368.89c-0.52,0-0.89,0.51-1.08,1.54c-0.66,3.97-2.14,6.51-4.45,7.61
						c-1.72,0.83-4.8,1.24-9.28,1.24c-4.95,0-8.12-0.53-9.54-1.59c-1.42-1.07-2.19-3.41-2.32-7.05v-24.08
						c0-0.69,0.19-1.03,0.59-1.03c7.51,0,12.19,0.1,14.03,0.31c3.16,0.34,5.01,1.68,5.54,4.01c0.27,1.64,0.4,2.82,0.4,3.55
						c0,0.72,0.3,1.08,0.89,1.08c0.59,0,0.89-0.65,0.89-1.95c0-0.69,0.13-2.98,0.4-6.89c0.13-2.06,0.3-3.87,0.5-5.45
						c0.19-1.31,0.3-1.99,0.3-2.06c0-0.55-0.23-0.82-0.7-0.82c-0.27,0-0.79,0.45-1.58,1.33c-0.46,0.55-1.18,0.96-2.17,1.24
						c-0.59,0.13-1.45,0.24-2.57,0.31c-1.52,0.13-6.79,0.2-15.81,0.2c-0.46,0-0.69-0.37-0.69-1.12v-26.03
						c0-0.69,0.23-1.03,0.69-1.03c7.12,0,11.79,0.13,14.03,0.41c3.62,0.48,5.83,1.72,6.62,3.71c0.2,0.54,0.32,1.16,0.39,1.85
						c0.07,0.69,0.15,1.4,0.25,2.16c0.1,0.75,0.38,1.12,0.84,1.12c0.53,0,0.86-0.37,0.99-1.12c0.27-2.68,0.45-4.95,0.54-6.8
						c0.1-1.85,0.25-3.46,0.45-4.83c0.19-1.17,0.3-1.78,0.3-1.86c0-0.61-0.2-0.92-0.59-0.92c0.07,0-0.46,0.14-1.57,0.41
						c-1.12,0.28-2.53,0.49-4.23,0.62c-0.86,0.07-9.06,0.1-24.61,0.1c-0.72,0-2.77-0.05-6.16-0.15c-3.37-0.1-6.05-0.15-8.02-0.15
						c-1.45,0-2.16,0.3-2.16,0.92c0,0.62,0.55,0.92,1.67,0.92c1.64,0,2.92,0.1,3.84,0.31c2.62,0.62,4.03,2.57,4.23,5.87
						c0.13,2.26,0.2,9.53,0.2,21.81v18.11c0,11.93-0.17,19.24-0.5,21.91c-0.39,3.43-1.34,5.32-2.85,5.66
						c-0.99,0.07-1.97,0.17-2.95,0.31c-1.45,0.14-2.16,0.45-2.16,0.92c0,0.69,0.65,1.03,1.96,1.03c1.44,0,3.73-0.05,6.84-0.15
						s4.97-0.15,5.56-0.15c1.18,0,4.59,0.1,10.24,0.3c5.64,0.21,11.32,0.31,17.03,0.31c2.03,0,3.35-0.14,3.94-0.41
						c0.59-0.28,1.05-1.03,1.38-2.27c0.85-3.43,1.28-7.23,1.28-11.42C1004.73,1369.5,1004.46,1368.89,1003.94,1368.89z"/>
					<path class="st0" d="M1120.78,1382.56c-0.72-0.07-1.48-0.13-2.26-0.2c-3.75-0.75-7.42-3.09-11.03-7
						c-2.56-2.75-5.75-6.62-9.55-11.63c-0.72-0.82-4.66-5.97-11.81-15.43c8.66-7.34,12.99-15.02,12.99-23.05
						c0-3.16-0.78-6.11-2.36-8.85c-1.25-2.33-2.69-4.08-4.33-5.24c-4.14-2.95-10.17-4.42-18.11-4.42c-0.99,0-3.27,0.05-6.84,0.15
						c-3.57,0.1-5.92,0.15-7.03,0.15c-0.4,0-2.24-0.05-5.52-0.15s-5.94-0.15-7.97-0.15c-1.45,0-2.16,0.3-2.16,0.92
						c0,0.62,0.55,0.92,1.67,0.92c1.64,0,2.92,0.1,3.84,0.31c2.62,0.62,4.03,2.57,4.23,5.87c0.13,2.26,0.2,9.53,0.2,21.81v18.11
						c0,11.93-0.17,19.24-0.5,21.91c-0.39,3.43-1.34,5.32-2.85,5.66c-0.99,0.07-1.97,0.17-2.95,0.31c-1.45,0.14-2.16,0.45-2.16,0.92
						c0,0.69,0.65,1.03,1.96,1.03c1.51,0,3.77-0.05,6.8-0.15c3.01-0.1,4.76-0.15,5.21-0.15c0.13,0,2.02,0.05,5.66,0.15
						c3.64,0.1,6.58,0.15,8.81,0.15c1.32,0,1.97-0.34,1.97-1.03c0-0.54-0.4-0.82-1.18-0.82c-1.25,0-2.86-0.13-4.82-0.41
						c-2.17-0.28-3.45-2.14-3.84-5.62c-0.33-2.99-0.5-10.28-0.5-21.87v-1.43c0-0.54,0.27-0.82,0.79-0.82h8.56
						c0.79,0,1.38,0.25,1.77,0.72c3.68,5.28,6.93,10.02,9.75,14.19c5.77,8.3,10.27,13.34,13.48,15.13c2.3,1.31,5.81,1.95,10.53,1.95
						h9.35c1.25,0,1.88-0.34,1.88-1.03C1122.45,1383.01,1121.89,1382.71,1120.78,1382.56z M1074.71,1347.58
						c-3.15,0-5.64-0.34-7.48-1.03c-0.59-0.2-0.89-0.82-0.89-1.85v-31.28c0-0.61,0.16-1.03,0.5-1.23c0.59-0.41,2.46-0.62,5.61-0.62
						c3.67,0,6.92,1.31,9.74,3.91c3.55,3.43,5.32,8.41,5.32,14.92c0,7.35-1.94,12.49-5.81,15.44
						C1080.19,1347,1077.86,1347.58,1074.71,1347.58z"/>
					<path class="st0" d="M1207.7,1306.12c0.2,0-0.69,0.15-2.65,0.46c-1.97,0.31-4.23,0.47-6.8,0.47h-38.98
						c-3.01,0-6.29-0.17-9.84-0.51c-0.92-0.07-1.81-0.29-2.66-0.67c-0.86-0.38-1.38-0.56-1.57-0.56c-0.47,0-0.86,0.65-1.18,1.95
						c-1.38,6.03-2.07,9.98-2.07,11.83c0,1.1,0.3,1.65,0.89,1.65c0.52,0,0.89-0.41,1.08-1.24c0.27-1.1,0.82-2.3,1.68-3.6
						c1.18-1.85,4.37-2.84,9.55-2.98l14.66-0.41v42.19c0,11.59-0.16,18.9-0.49,21.91c-0.39,3.43-1.34,5.32-2.86,5.66
						c-0.98,0.07-1.96,0.17-2.95,0.31c-1.45,0.14-2.17,0.45-2.17,0.92c0,0.69,0.66,1.03,1.97,1.03c1.44,0,3.73-0.05,6.84-0.15
						c3.12-0.1,4.97-0.15,5.56-0.15c0.59,0,2.69,0.05,6.3,0.15s6.66,0.15,9.15,0.15c1.25,0,1.88-0.34,1.88-1.03
						c0-0.54-0.52-0.82-1.58-0.82c-1.44,0-3.12-0.13-5.01-0.41c-2.16-0.34-3.45-2.19-3.84-5.56c-0.33-3.02-0.5-10.36-0.5-22.02
						v-42.19l12.41,0.31c7.42,0.2,11.29,2.13,11.61,5.76l0.1,1.13c0.12,1.37,0.49,2.06,1.08,2.06c0.46,0,0.72-0.51,0.79-1.53
						c0.07-1.02,0.14-3.1,0.25-6.23c0.1-3.14,0.14-5.04,0.14-5.73C1208.49,1306.83,1208.22,1306.12,1207.7,1306.12z"/>
					<path class="st0" d="M1275.63,1382.67c-1.43,0-3.09-0.13-4.98-0.41c-2.34-0.34-3.64-2.02-3.9-5.04
						c-0.27-2.75-0.39-10.26-0.39-22.53v-18.11c0-12.28,0.06-19.55,0.19-21.81c0.19-3.5,1.39-5.46,3.6-5.87
						c1.1-0.2,2.12-0.31,3.06-0.31c0.94,0,1.41-0.34,1.41-1.03c0-0.55-0.69-0.82-2.07-0.82c-1.37,0-3.55,0.05-6.49,0.15
						c-2.95,0.1-4.79,0.15-5.52,0.15c-0.85,0-2.87-0.05-6.05-0.15s-5.43-0.15-6.74-0.15c-1.58,0-2.36,0.27-2.36,0.82
						c0,0.69,0.57,1.03,1.73,1.03c1.14,0,2.28,0.13,3.39,0.41c2.03,0.55,3.15,2.47,3.35,5.77c0.13,2.26,0.2,9.53,0.2,21.81v18.11
						c0,11.93-0.17,19.43-0.5,22.49c-0.33,3.05-1.28,4.75-2.85,5.09c-0.99,0.07-1.97,0.17-2.95,0.31c-1.45,0.14-2.16,0.45-2.16,0.92
						c0,0.69,0.65,1.03,1.96,1.03c1.44,0,3.73-0.05,6.84-0.15c3.12-0.1,4.97-0.15,5.56-0.15s2.68,0.05,6.25,0.15
						c3.57,0.1,6.62,0.15,9.1,0.15c1.25,0,1.88-0.34,1.88-1.03C1277.19,1382.95,1276.67,1382.67,1275.63,1382.67z"/>
					<path class="st0" d="M1365.09,1368.89c-0.52,0-0.89,0.51-1.08,1.54c-0.66,3.97-2.14,6.51-4.45,7.61
						c-1.72,0.83-4.8,1.24-9.28,1.24c-4.95,0-8.12-0.53-9.54-1.59c-1.42-1.07-2.19-3.41-2.32-7.05v-24.08
						c0-0.69,0.19-1.03,0.59-1.03c7.51,0,12.19,0.1,14.03,0.31c3.16,0.34,5.01,1.68,5.54,4.01c0.27,1.64,0.4,2.82,0.4,3.55
						c0,0.72,0.3,1.08,0.89,1.08s0.89-0.65,0.89-1.95c0-0.69,0.13-2.98,0.4-6.89c0.13-2.06,0.3-3.87,0.5-5.45
						c0.19-1.31,0.3-1.99,0.3-2.06c0-0.55-0.23-0.82-0.7-0.82c-0.27,0-0.79,0.45-1.58,1.33c-0.46,0.55-1.18,0.96-2.17,1.24
						c-0.59,0.13-1.45,0.24-2.57,0.31c-1.52,0.13-6.79,0.2-15.81,0.2c-0.46,0-0.69-0.37-0.69-1.12v-26.03
						c0-0.69,0.23-1.03,0.69-1.03c7.12,0,11.79,0.13,14.03,0.41c3.62,0.48,5.83,1.72,6.62,3.71c0.2,0.54,0.32,1.16,0.39,1.85
						c0.07,0.69,0.15,1.4,0.25,2.16c0.1,0.75,0.38,1.12,0.84,1.12c0.53,0,0.86-0.37,0.99-1.12c0.27-2.68,0.45-4.95,0.54-6.8
						c0.1-1.85,0.25-3.46,0.45-4.83c0.19-1.17,0.3-1.78,0.3-1.86c0-0.61-0.2-0.92-0.59-0.92c0.07,0-0.46,0.14-1.57,0.41
						c-1.12,0.28-2.53,0.49-4.23,0.62c-0.86,0.07-9.06,0.1-24.61,0.1c-0.72,0-2.77-0.05-6.16-0.15c-3.37-0.1-6.05-0.15-8.02-0.15
						c-1.45,0-2.16,0.3-2.16,0.92c0,0.62,0.55,0.92,1.67,0.92c1.64,0,2.92,0.1,3.84,0.31c2.62,0.62,4.03,2.57,4.23,5.87
						c0.13,2.26,0.2,9.53,0.2,21.81v18.11c0,11.93-0.17,19.24-0.5,21.91c-0.39,3.43-1.34,5.32-2.85,5.66
						c-0.99,0.07-1.97,0.17-2.95,0.31c-1.45,0.14-2.16,0.45-2.16,0.92c0,0.69,0.65,1.03,1.96,1.03c1.44,0,3.73-0.05,6.84-0.15
						c3.12-0.1,4.97-0.15,5.56-0.15c1.18,0,4.59,0.1,10.24,0.3c5.64,0.21,11.32,0.31,17.03,0.31c2.03,0,3.35-0.14,3.94-0.41
						c0.59-0.28,1.05-1.03,1.38-2.27c0.85-3.43,1.28-7.23,1.28-11.42C1365.89,1369.5,1365.62,1368.89,1365.09,1368.89z"/>
					<path class="st0" d="M1446.11,1350.52c-2.43-3.95-6.6-8.25-12.5-12.92l-2.76-2.16c-4-3.16-6.74-5.81-8.22-7.97
						c-1.48-2.16-2.21-4.44-2.21-6.84c0-3.16,1.05-5.71,3.15-7.66c2.1-1.95,4.96-2.94,8.57-2.94c4.58,0,8.17,1.68,10.72,5.04
						c1.71,2.26,2.56,4.53,2.56,6.79c0,1.24,0.32,1.86,0.98,1.86c0.72,0,1.09-1.03,1.09-3.09c0-3.22,0.06-6.12,0.19-8.69
						c0.13-2.57,0.2-3.79,0.2-3.65c0-0.55-0.46-0.96-1.38-1.24c-4.46-1.16-8.83-1.74-13.09-1.74c-6.76,0-12.24,1.81-16.44,5.45
						c-4.19,3.63-6.3,8.29-6.3,13.99c0,8.3,4.86,16.42,14.57,24.38l4.53,3.71c6.42,5.28,9.65,10.77,9.65,16.46
						c0,3.02-1.09,5.65-3.25,7.92c-2.5,2.54-5.8,3.8-9.94,3.8c-7.42,0-12.11-3.46-14.08-10.39c-0.59-2.06-0.89-3.8-0.89-5.24
						c0-1.17-0.32-1.75-0.98-1.75s-1.05,0.9-1.18,2.68c-0.32,5.28-0.5,9.77-0.5,13.48c0,1.78,0.63,2.95,1.88,3.5
						c3.87,1.78,8.65,2.68,14.36,2.68c6.3,0,11.52-1.41,15.65-4.22c6.17-4.18,9.26-10.15,9.26-17.9
						C1449.75,1358.91,1448.54,1354.46,1446.11,1350.52z"/>
				</g>
			</g>
			<g>
				<rect x="1502.86" y="1341.69" class="st1" width="277.82" height="7.88"/>
				<rect x="219.33" y="1341.69" class="st1" width="277.82" height="7.88"/>
			</g>
		</g>
	</g>
	<g>
		<g>
			<path class="st0" d="M994.59,614.03l-144.68,115.8v372.2h144.68C994.59,1102.03,995.07,654.16,994.59,614.03z"/>
			<path class="st1" d="M1005.41,614.03l144.68,115.8v372.2C1150.09,1102.03,1004.93,654.16,1005.41,614.03z"/>
			<path class="st0" d="M1241.02,795.34l-90.93,72.78v233.91h90.93C1241.02,1102.03,1241.32,820.56,1241.02,795.34z"/>
			<path class="st1" d="M1247.82,795.34l90.93,72.78v233.91C1338.75,1102.03,1247.52,820.56,1247.82,795.34z"/>
			<path class="st0" d="M752.18,795.34l-90.93,72.78v233.91h90.93C752.18,1102.03,752.48,820.56,752.18,795.34z"/>
			<path class="st1" d="M758.98,795.34l90.93,72.78v233.91C849.91,1102.03,758.68,820.56,758.98,795.34z"/>
		</g>
		<g>
			<g>
				<path class="st1" d="M369.6,1269.32c-2.78,0-5.8-0.51-8.98-1.53c-2.04-0.67-3.49-2.04-4.42-4.18c-0.95-2.2-1.78-5.88-2.46-10.96
					l-13.4-95.16c-0.54-3.49-1.57-5.19-3.15-5.19c-1.3,0-2.51,1.31-3.69,3.98l-39.61,86.94l-39.77-85.87c-1.6-3.45-3-5.05-4.41-5.05
					c-1.55,0-2.56,1.49-2.99,4.42l-14.58,100.38c-1.04,7.23-2.94,11.19-5.65,11.75c-1.34,0.31-2.76,0.46-4.32,0.46
					c-1.89,0-2.84,0.52-2.84,1.56c0,0.99,0.54,2.17,3.14,2.17c1.76,0,4.47-0.08,8.04-0.23c3.56-0.15,5.76-0.23,6.54-0.23
					c0.58,0,2.73,0.08,6.39,0.23c3.67,0.15,6.72,0.23,9.07,0.23c2.67,0,4.02-0.73,4.02-2.17c0-0.71-0.47-1.56-2.7-1.56
					c-1.92,0-3.96-0.26-6.07-0.76c-2.72-0.66-4.04-2.12-4.04-4.45c0-2.45,0.15-4.87,0.44-7.18l7.57-60.56
					c6.87,15.21,11.79,26.22,15.06,33.67c1.95,4.72,7.5,16.18,16.96,35.05c3.48,7.03,4.78,7.98,5.59,7.98c0.89,0,2.28-1.06,5.9-8.92
					l31.86-69.49l8.74,67.06c0.62,5.08-0.14,5.96-0.51,6.1c-1.53,0.62-1.86,1.52-1.86,2.15c0,1.65,2.7,2.03,4.73,2.18
					c7.43,0.61,17.5,0.92,29.93,0.92c2.87,0,4.32-0.73,4.32-2.17C372.44,1269.84,371.49,1269.32,369.6,1269.32z"/>
				<path class="st1" d="M530.44,1155.7c-2.25,0-5.58,0.08-9.88,0.23c-4.29,0.15-6.61,0.23-6.88,0.23
					c-6.95-0.31-12.66-0.46-16.96-0.46c-2.38,0-3.58,0.63-3.58,1.87c0,0.86,0.51,1.88,2.99,1.88c2.12,0,3.86,0.15,5.19,0.45
					c3.73,0.88,5.68,3.6,5.97,8.34c0.19,3.43,0.3,14.73,0.3,32.66v19.27c0,9.76-0.4,17.1-1.17,21.81
					c-1.26,6.96-3.69,12.36-7.24,16.09c-5.18,5.42-11.9,8.18-19.97,8.18c-7.22,0-13.31-2.09-18.1-6.21
					c-7.5-6.45-11.31-19.08-11.31-37.56v-21.58c0-18.62,0.1-29.29,0.3-32.66c0.29-5.03,1.93-7.76,5.05-8.34
					c1.63-0.3,3.04-0.45,4.18-0.45c2.34,0,2.84-1.02,2.84-1.88c0-1.87-2.8-1.87-3.73-1.87c-1.86,0-5.11,0.08-9.67,0.23
					c-4.54,0.15-7.38,0.23-8.45,0.23c-1.17,0-4.37-0.08-9.48-0.23c-5.14-0.15-9.19-0.23-12.03-0.23c-0.92,0-3.72,0-3.72,1.87
					c0,0.86,0.51,1.87,2.98,1.87c2.45,0,4.3,0.15,5.63,0.46c3.73,0.88,5.67,3.59,5.96,8.32c0.2,3.36,0.3,14.03,0.3,32.62v22.48
					c0,19.04,4.46,32.89,13.26,41.15c7.52,7.14,18.63,10.76,33.04,10.76c12.24,0,22.66-3.77,30.96-11.21
					c5.64-5.08,9.61-12.21,11.79-21.19c1.57-6.49,2.36-15.08,2.36-25.52v-16.47c0-18.59,0.1-29.25,0.3-32.62
					c0.29-5.03,1.93-7.75,5.05-8.32c1.62-0.31,3.02-0.46,4.18-0.46c2.59,0,3.14-1.01,3.14-1.87
					C534.03,1156.33,532.82,1155.7,530.44,1155.7z"/>
				<path class="st1" d="M665.36,1248.07c-0.81,0-1.83,0.48-2.11,2.74c-0.39,3.58-1.64,6.61-3.71,8.97
					c-2.44,2.75-8.12,4.15-16.87,4.15c-9.26,0-15.15-1.1-17.5-3.26c-0.88-0.78-2.01-3.13-2.49-9.84c-0.3-3.68-0.44-11.17-0.44-22.9
					v-27.09c0-18.59,0.1-29.25,0.3-32.62c0.29-5.03,1.93-7.75,5.04-8.32c1.62-0.31,3.52-0.46,5.66-0.46c2.08,0,3.14-0.63,3.14-1.87
					s-1.2-1.87-3.57-1.87c-2.06,0-5.71,0.08-10.85,0.23c-5.12,0.15-8.22,0.23-9.19,0.23c-1.07,0-4.08-0.08-8.96-0.23
					c-4.91-0.15-8.67-0.23-11.22-0.23c-0.92,0-3.73,0-3.73,1.87c0,0.86,0.51,1.87,2.99,1.87c3.61,0,6.2,0.5,7.67,1.46
					c1.83,1.25,2.85,3.71,3.03,7.32c0.2,3.36,0.3,14.03,0.3,32.62v27.09c0,17.73-0.25,28.75-0.73,32.74
					c-0.56,4.88-1.87,7.59-3.82,8.04c-1.53,0.1-2.99,0.27-4.43,0.47c-1.58,0.14-3.68,0.51-3.68,1.87c0,1.34,1.15,2.02,3.43,2.02
					c2.15,0,5.6-0.08,10.26-0.23c4.63-0.15,7.43-0.23,8.3-0.23c3.22,0,9.26,0.15,17.96,0.46c8.61,0.31,16.99,0.47,24.91,0.47
					c3.2,0,5.13-0.1,5.86-0.31c1.94-0.47,3.26-1.88,3.9-4.2c1.47-5.66,2.21-11.66,2.21-17.83
					C667.02,1249.11,666.47,1248.07,665.36,1248.07z"/>
				<path class="st1" d="M810.61,1154.86l-0.02-0.09h-0.45v0.49l-0.13-0.45c-0.11,0.04-0.77,0.16-3.92,0.65
					c-2.89,0.46-6.28,0.7-10.08,0.7h-58.33c-4.48,0-9.42-0.26-14.69-0.77c-1.32-0.1-2.59-0.41-3.81-0.96
					c-1.78-0.78-2.28-0.89-2.55-0.89c-1.26,0-1.89,1.88-2.25,3.31c-2.09,9.15-3.1,14.98-3.1,17.81c0,2.44,0.98,2.95,1.81,2.95
					c0.71,0,1.66-0.38,2.1-2.22c0.37-1.56,1.19-3.33,2.44-5.24c1.67-2.61,6.34-4.03,13.88-4.23l21.46-0.6v62.61
					c0,17.22-0.25,28.23-0.73,32.74c-0.56,4.88-1.88,7.59-3.83,8.04c-1.53,0.1-3.02,0.27-4.42,0.47c-1.58,0.14-3.68,0.5-3.68,1.87
					c0,1.34,1.15,2.02,3.43,2.02c2.15,0,5.6-0.08,10.26-0.23c4.63-0.15,7.43-0.23,8.3-0.23c0.87,0,4.04,0.08,9.42,0.23
					c5.37,0.15,9.98,0.23,13.71,0.23c2.72,0,3.29-1.1,3.29-2.02c0-0.78-0.5-1.72-2.85-1.72c-2.11,0-4.6-0.21-7.43-0.62
					c-3.03-0.48-4.78-3.06-5.33-7.88c-0.5-4.48-0.74-15.55-0.74-32.89v-62.62l18.06,0.45c10.75,0.31,16.44,3.06,16.91,8.18
					l0.14,1.71c0.09,0.87,0.34,3.52,2.11,3.52c0.98,0,1.54-0.92,1.67-2.75c0.1-1.52,0.22-4.66,0.37-9.34
					c0.15-5.05,0.22-7.62,0.22-8.58C811.81,1157.66,811.81,1155.33,810.61,1154.86z"/>
				<path class="st1" d="M911.79,1269.32c-2.08,0-4.56-0.21-7.37-0.62c-3.28-0.48-5.05-2.8-5.42-7.1
					c-0.39-4.1-0.58-15.11-0.58-33.68v-27.09c0-18.27,0.1-29.25,0.29-32.62c0.29-5.03,1.92-7.75,4.99-8.32
					c1.59-0.31,3.1-0.46,4.49-0.46c2.27,0,2.6-1.27,2.6-2.02c0-1.72-2.7-1.72-3.58-1.72c-2.06,0-5.33,0.08-9.74,0.23
					c-4.38,0.15-7.15,0.23-8.23,0.23c-1.27,0-4.31-0.08-9.04-0.23c-4.76-0.15-8.15-0.23-10.11-0.23c-1.73,0-4.02,0.17-4.02,1.72
					c0,0.92,0.53,2.02,3.07,2.02c1.66,0,3.33,0.21,4.96,0.6c2.84,0.77,4.36,3.44,4.64,8.18c0.2,3.36,0.3,14.03,0.3,32.62v27.09
					c0,17.74-0.25,29.03-0.73,33.59c-0.47,4.32-1.77,6.74-3.82,7.19c-1.53,0.1-2.99,0.27-4.43,0.47c-1.58,0.14-3.68,0.51-3.68,1.87
					c0,1.34,1.15,2.02,3.43,2.02c2.15,0,5.6-0.08,10.26-0.23c4.63-0.15,7.43-0.23,8.3-0.23c0.88,0,4.02,0.08,9.35,0.23
					c5.32,0.15,9.91,0.23,13.63,0.23c2.72,0,3.29-1.1,3.29-2.02C914.62,1270.25,914.13,1269.32,911.79,1269.32z"/>
				<path class="st1" d="M1044.76,1154.52l-0.43-0.06v0.49c0.01,0-0.03,0.01-0.02,0.01l-0.21-0.37c-0.05,0.03-0.36,0.19-2.19,0.8
					c-2.44,0.4-4.45,0.61-5.99,0.61c-2.01,0.1-14.73,0.15-38.86,0.15c-1.17,0-4.31-0.08-9.33-0.23c-5.04-0.15-9.05-0.23-11.88-0.23
					c-2.57,0-3.87,0.68-3.87,2.02c0,1.14,1,1.72,2.98,1.72c2.45,0,4.3,0.15,5.63,0.46c3.73,0.88,5.67,3.59,5.96,8.32
					c0.2,3.36,0.3,14.03,0.3,32.62v27.09c0,17.73-0.25,28.75-0.73,32.74c-0.56,4.88-1.87,7.59-3.82,8.04
					c-1.53,0.1-2.95,0.27-4.28,0.47c-1.58,0.14-3.68,0.5-3.68,1.87c0,1.34,1.2,2.02,3.57,2.02c2.09,0,5.39-0.08,10.11-0.23
					c4.63-0.15,7.52-0.23,8.6-0.23c0.77,0,3.84,0.08,9.12,0.23c5.27,0.15,9.74,0.23,13.27,0.23c2.47,0,3.72-0.68,3.72-2.02
					c0-1.14-1.01-1.72-3.01-1.72c-2.03,0-4.5-0.21-7.35-0.62c-3.06-0.48-4.82-3.11-5.39-8.04c-0.5-4.48-0.74-15.49-0.74-32.74
					v-12.47c0-0.9,0.34-0.9,0.54-0.9c12.15,0,19.5,0.15,21.83,0.46c3.77,0.49,6.11,2.2,7.12,5.14c0.2,1.33,0.46,2.7,0.74,4
					c0.24,1.54,0.66,3.33,1.81,3.33c1.31,0,1.97-1.14,1.97-3.4c0-3.32,0.2-7.09,0.59-11.19c0.19-1.74,0.44-3.79,0.73-6.15
					c0.37-2.62,0.45-3.25,0.45-3.45c0-1.63-0.86-1.87-1.37-1.87c-0.67,0-1.4,0.54-2.32,1.73c-1.09,1.43-3.01,2.3-5.78,2.59
					c-0.44,0.1-2.75,0.14-6.84,0.14h-18.94c-0.2,0-0.54,0-0.54-0.89v-38.21c0-1.65,0.61-1.65,0.83-1.65l22.78,0.46
					c4.99,0.1,8.13,1.53,9.32,4.28c0.57,1.26,0.86,3.14,0.86,5.61c0.14,2.39,1.14,2.89,1.95,2.89c0.73,0,1.67-0.45,1.96-2.61
					c0.3-4.82,0.53-8.98,0.73-12.45c0.18-1.49,0.43-3.03,0.72-4.56c0.45-1.88,0.45-2.29,0.45-2.42
					C1045.84,1155.07,1045.25,1154.65,1044.76,1154.52z"/>
				<path class="st1" d="M1206.05,1269.32c-2.3,0-4.35-0.21-6.08-0.61c-4.33-0.97-8.57-6.52-12.61-16.48
					c-15.17-38.94-27.46-70.79-36.54-94.7c-1.49-3.56-2.8-5.22-4.13-5.22c-1.43,0-2.89,2.06-4.58,6.47l-36.97,96.69
					c-1.64,4.35-3.25,7.51-4.78,9.41c-1.91,2.39-4.3,3.75-7.34,4.13c-1.45,0.21-2.96,0.31-4.5,0.31c-1.96,0-2.26,1.08-2.26,1.72
					c0,0.92,0.57,2.02,3.29,2.02c3.03,0,8.88-0.15,17.38-0.46c1.46,0,4.05,0.08,7.72,0.23c3.67,0.15,6.32,0.23,7.89,0.23
					c2.48,0,2.99-1.1,2.99-2.02c0-0.78-0.47-1.72-2.7-1.72h-2.2c-3.64,0-5.41-1.4-5.41-4.29c0-2.07,0.73-5.17,2.18-9.23l7.96-22.02
					c0.32-0.91,0.72-0.91,0.87-0.91h32.85c0.32,0,0.73,0.09,1.01,0.75l11.78,32.65c0.32,0.87,0.37,1.56,0.13,2.04
					c-0.18,0.39-0.56,0.68-1.04,0.85c-2.07,0.14-2.51,1.1-2.51,1.87c0,1.08,1.46,1.59,4.89,1.72c6.25,0.21,15.36,0.3,27.85,0.3
					c2.64,0,4.4-0.1,5.39-0.31c1.54-0.31,1.87-1.1,1.87-1.71C1208.45,1270.4,1208.14,1269.32,1206.05,1269.32z M1156.59,1224.15
					c0,0-0.08,0.06-0.32,0.06h-27.1c-0.1,0-0.15-0.02-0.16-0.02c0,0-0.05-0.1,0.03-0.41l13.57-37.94c0.14-0.71,0.31-0.92,0.32-0.99
					c0.06,0.08,0.2,0.33,0.36,1.06l13.24,38.01C1156.58,1224.07,1156.58,1224.15,1156.59,1224.15z"/>
				<path class="st1" d="M1392.38,1269.32c-2.78,0-5.8-0.51-8.98-1.53c-2.04-0.67-3.49-2.04-4.42-4.18
					c-0.95-2.2-1.78-5.88-2.46-10.96l-13.4-95.16c-0.54-3.49-1.57-5.19-3.15-5.19c-1.3,0-2.51,1.31-3.69,3.98l-39.61,86.94
					l-39.77-85.87c-1.6-3.45-3-5.05-4.41-5.05c-1.55,0-2.56,1.49-2.99,4.42l-14.58,100.38c-1.04,7.23-2.94,11.19-5.65,11.75
					c-1.34,0.31-2.76,0.46-4.32,0.46c-1.89,0-2.84,0.52-2.84,1.56c0,0.99,0.54,2.17,3.14,2.17c1.76,0,4.47-0.08,8.04-0.23
					c3.56-0.15,5.76-0.23,6.54-0.23c0.58,0,2.73,0.08,6.39,0.23c3.67,0.15,6.72,0.23,9.07,0.23c2.67,0,4.02-0.73,4.02-2.17
					c0-0.71-0.47-1.56-2.7-1.56c-1.92,0-3.96-0.26-6.07-0.76c-2.72-0.66-4.04-2.12-4.04-4.45c0-2.45,0.15-4.87,0.44-7.18l7.57-60.56
					c6.87,15.21,11.79,26.22,15.06,33.67c1.95,4.72,7.5,16.18,16.96,35.05c3.48,7.03,4.78,7.98,5.59,7.98c0.89,0,2.28-1.06,5.9-8.92
					l31.86-69.49l8.74,67.06c0.62,5.08-0.14,5.96-0.51,6.1c-1.53,0.62-1.86,1.52-1.86,2.15c0,1.65,2.7,2.03,4.73,2.18
					c7.43,0.61,17.5,0.92,29.93,0.92c2.87,0,4.32-0.73,4.32-2.17C1395.22,1269.84,1394.27,1269.32,1392.38,1269.32z"/>
				<path class="st1" d="M1491.66,1269.32c-2.08,0-4.56-0.21-7.37-0.62c-3.28-0.48-5.05-2.8-5.42-7.1
					c-0.39-4.1-0.58-15.11-0.58-33.68v-27.09c0-18.27,0.1-29.25,0.29-32.62c0.29-5.03,1.92-7.75,4.99-8.32
					c1.59-0.31,3.1-0.46,4.49-0.46c2.27,0,2.6-1.27,2.6-2.02c0-1.72-2.7-1.72-3.58-1.72c-2.06,0-5.33,0.08-9.74,0.23
					c-4.38,0.15-7.15,0.23-8.23,0.23c-1.27,0-4.31-0.08-9.04-0.23c-4.76-0.15-8.15-0.23-10.11-0.23c-1.73,0-4.02,0.17-4.02,1.72
					c0,0.92,0.53,2.02,3.07,2.02c1.66,0,3.33,0.21,4.96,0.6c2.84,0.77,4.36,3.44,4.64,8.18c0.2,3.36,0.3,14.03,0.3,32.62v27.09
					c0,17.74-0.25,29.03-0.73,33.59c-0.47,4.32-1.77,6.74-3.82,7.19c-1.53,0.1-2.99,0.27-4.43,0.47c-1.58,0.14-3.68,0.51-3.68,1.87
					c0,1.34,1.15,2.02,3.43,2.02c2.15,0,5.6-0.08,10.26-0.23c4.63-0.15,7.43-0.23,8.3-0.23c0.88,0,4.02,0.08,9.35,0.23
					c5.32,0.15,9.91,0.23,13.63,0.23c2.72,0,3.29-1.1,3.29-2.02C1494.49,1270.25,1494.01,1269.32,1491.66,1269.32z"/>
				<path class="st1" d="M1629.21,1248.07c-0.81,0-1.83,0.48-2.11,2.74c-0.39,3.58-1.64,6.61-3.71,8.97
					c-2.44,2.75-8.12,4.15-16.87,4.15c-9.26,0-15.15-1.1-17.5-3.26c-0.88-0.78-2.01-3.13-2.49-9.84c-0.3-3.68-0.44-11.17-0.44-22.9
					v-27.09c0-18.59,0.1-29.25,0.3-32.62c0.29-5.03,1.93-7.75,5.04-8.32c1.62-0.31,3.52-0.46,5.66-0.46c2.08,0,3.14-0.63,3.14-1.87
					s-1.2-1.87-3.57-1.87c-2.06,0-5.71,0.08-10.85,0.23c-5.12,0.15-8.22,0.23-9.19,0.23c-1.07,0-4.08-0.08-8.96-0.23
					c-4.91-0.15-8.67-0.23-11.22-0.23c-0.92,0-3.73,0-3.73,1.87c0,0.86,0.51,1.87,2.99,1.87c3.61,0,6.2,0.5,7.67,1.46
					c1.83,1.25,2.85,3.71,3.03,7.32c0.2,3.36,0.3,14.03,0.3,32.62v27.09c0,17.73-0.25,28.75-0.73,32.74
					c-0.56,4.88-1.87,7.59-3.82,8.04c-1.53,0.1-2.99,0.27-4.43,0.47c-1.58,0.14-3.68,0.51-3.68,1.87c0,1.34,1.15,2.02,3.43,2.02
					c2.15,0,5.6-0.08,10.26-0.23c4.63-0.15,7.43-0.23,8.3-0.23c3.22,0,9.26,0.15,17.96,0.46c8.61,0.31,16.99,0.47,24.91,0.47
					c3.2,0,5.13-0.1,5.86-0.31c1.94-0.47,3.26-1.88,3.9-4.2c1.47-5.66,2.21-11.66,2.21-17.83
					C1630.87,1249.11,1630.32,1248.07,1629.21,1248.07z"/>
				<path class="st1" d="M1777.54,1155.7c-0.9,0-3.43,0.08-7.75,0.23c-4.24,0.15-6.94,0.23-8.01,0.23c-1.36,0-3.61-0.08-6.68-0.23
					c-3.09-0.15-5.5-0.23-7.17-0.23c-2.48,0-2.99,1.01-2.99,1.87c0,0.9,1.03,1.55,3.25,2.09c1.68,0.41,2.5,1.49,2.5,3.3
					c0,2.08-0.68,4.71-2.01,7.79c-7.68,14.98-14.96,28.96-21.67,41.53c-16.17-29.53-24.21-44.31-24.58-45.21
					c-1.43-3.11-1.73-4.45-1.73-5.03c0-1.31,0.53-2.03,1.72-2.3c2.55-0.73,3.59-1.36,3.59-2.16c0-0.7-0.35-1.87-2.7-1.87
					c-2.45,0-5.53,0.08-9.15,0.23c-3.61,0.15-5.83,0.23-6.61,0.23c-1.75,0-5.14-0.08-10.07-0.23c-5.01-0.15-7.79-0.23-8.49-0.23
					c-2.17,0-3.28,0.63-3.28,1.87c0,0.86,0.47,1.87,2.7,1.87c1.76,0,3.77,0.65,5.94,1.93c3.07,1.81,6.43,5.54,10,11.08
					c2.46,3.93,7.28,12.06,14.35,24.16c7.32,12.56,10.99,18.96,11.53,20.11c2.22,5.26,3.36,10.64,3.36,15.98v12.63
					c0,5.71-0.15,10.89-0.44,15.37c-0.29,4.77-1.69,7.46-4.12,8.01c-1.53,0.1-2.95,0.27-4.31,0.47c-2.54,0.36-3.66,0.93-3.66,1.87
					c0,1.34,1.25,2.02,3.73,2.02c1.95,0,5.28-0.08,9.89-0.23c4.58-0.15,7.45-0.23,8.52-0.23c0.88,0,3.99,0.08,9.26,0.23
					c5.28,0.15,9.75,0.23,13.27,0.23c2.38,0,3.58-0.68,3.58-2.02c0-0.78-0.5-1.72-2.87-1.72c-2.03,0-4.5-0.21-7.37-0.62
					c-3.05-0.38-4.81-2.31-5.39-5.91c-0.49-2.63-0.73-8.5-0.73-17.46v-12.63c0-6.46,0.73-11.58,2.18-15.21
					c1.39-3.38,5.88-11.7,13.34-24.73c7.49-13.06,12.48-21.17,14.81-24.1c2.99-3.74,5.65-6.23,7.89-7.43
					c2.24-1.19,4.3-1.79,6.13-1.79c2.78,0,3.36-1.1,3.36-2.02C1780.67,1156.27,1779.62,1155.7,1777.54,1155.7z"/>
			</g>
			<g>
				<g>
					<path class="st0" d="M580.86,1306.74c-1.57,0-4.01,0.05-7.33,0.15c-3.32,0.1-5.62,0.15-6.94,0.15c-0.72,0-2.77-0.05-6.16-0.15
						c-3.37-0.1-6.05-0.15-8.02-0.15c-1.45,0-2.16,0.3-2.16,0.92c0,0.62,0.55,0.92,1.67,0.92c1.64,0,2.92,0.1,3.84,0.31
						c2.62,0.62,4.03,2.57,4.23,5.87c0.13,2.26,0.2,9.53,0.2,21.81v18.11c0,11.93-0.17,19.24-0.5,21.91
						c-0.39,3.43-1.34,5.32-2.85,5.66c-0.99,0.07-1.97,0.17-2.95,0.31c-1.45,0.14-2.16,0.45-2.16,0.92c0,0.69,0.65,1.03,1.96,1.03
						c1.44,0,3.73-0.05,6.84-0.15s4.97-0.15,5.56-0.15c0.52,0,2.57,0.05,6.16,0.15c3.57,0.1,6.61,0.15,9.1,0.15
						c1.25,0,1.87-0.34,1.87-1.03c0-0.54-0.52-0.82-1.57-0.82c-1.45,0-3.12-0.13-5.02-0.41c-2.16-0.34-3.44-2.19-3.83-5.56
						c-0.33-3.02-0.5-10.36-0.5-22.02v-41.16c0-1.1,0.3-1.76,0.93-2c0.62-0.25,1.85-0.36,3.69-0.36c3.75,0,7.02,1.33,9.85,4.01
						c3.87,3.63,5.8,8.78,5.8,15.43c0,4.87-1.51,9.02-4.53,12.45c-2.69,3.02-5.58,4.53-8.66,4.53c-1.83,0-2.75,0.38-2.75,1.13
						c0,0.48,0.4,0.79,1.18,0.92c0.33,0.07,1.02,0.1,2.07,0.1c7.02,0,12.81-2.34,17.38-7c4.56-4.67,6.84-10.64,6.84-17.91
						c0-4.94-1.65-9.02-4.93-12.24C595.23,1308.69,589.13,1306.74,580.86,1306.74z"/>
					<path class="st0" d="M718.28,1382.56c-0.72-0.07-1.48-0.13-2.26-0.2c-3.75-0.75-7.42-3.09-11.03-7
						c-2.56-2.75-5.75-6.62-9.55-11.63c-0.72-0.82-4.66-5.97-11.81-15.43c8.66-7.34,12.99-15.02,12.99-23.05
						c0-3.16-0.78-6.11-2.36-8.85c-1.25-2.33-2.69-4.08-4.33-5.24c-4.14-2.95-10.17-4.42-18.11-4.42c-0.99,0-3.27,0.05-6.84,0.15
						c-3.57,0.1-5.92,0.15-7.03,0.15c-0.4,0-2.24-0.05-5.52-0.15s-5.94-0.15-7.97-0.15c-1.45,0-2.16,0.3-2.16,0.92
						c0,0.62,0.55,0.92,1.67,0.92c1.64,0,2.92,0.1,3.84,0.31c2.62,0.62,4.03,2.57,4.23,5.87c0.13,2.26,0.2,9.53,0.2,21.81v18.11
						c0,11.93-0.17,19.24-0.5,21.91c-0.39,3.43-1.34,5.32-2.85,5.66c-0.99,0.07-1.97,0.17-2.95,0.31c-1.45,0.14-2.16,0.45-2.16,0.92
						c0,0.69,0.65,1.03,1.96,1.03c1.51,0,3.77-0.05,6.8-0.15c3.01-0.1,4.76-0.15,5.21-0.15c0.13,0,2.02,0.05,5.66,0.15
						c3.64,0.1,6.58,0.15,8.81,0.15c1.32,0,1.97-0.34,1.97-1.03c0-0.54-0.4-0.82-1.18-0.82c-1.25,0-2.86-0.13-4.82-0.41
						c-2.17-0.28-3.45-2.14-3.84-5.62c-0.33-2.99-0.5-10.28-0.5-21.87v-1.43c0-0.54,0.27-0.82,0.79-0.82h8.56
						c0.79,0,1.38,0.25,1.77,0.72c3.68,5.28,6.93,10.02,9.75,14.19c5.77,8.3,10.27,13.34,13.48,15.13c2.3,1.31,5.81,1.95,10.53,1.95
						h9.35c1.25,0,1.88-0.34,1.88-1.03C719.96,1383.01,719.39,1382.71,718.28,1382.56z M672.21,1347.58c-3.15,0-5.64-0.34-7.48-1.03
						c-0.59-0.2-0.89-0.82-0.89-1.85v-31.28c0-0.61,0.16-1.03,0.5-1.23c0.59-0.41,2.46-0.62,5.61-0.62c3.67,0,6.92,1.31,9.74,3.91
						c3.55,3.43,5.32,8.41,5.32,14.92c0,7.35-1.94,12.49-5.81,15.44C677.69,1347,675.37,1347.58,672.21,1347.58z"/>
					<path class="st0" d="M784.03,1305.3c-13.52,0-23.98,4.52-31.4,13.57c-6.17,7.48-9.26,16.39-9.26,26.76
						c0,10.49,3.09,19.48,9.26,26.96c7.28,8.92,17.42,13.38,30.42,13.38c12.27,0,22.18-4.09,29.73-12.25
						c7.35-7.89,11.02-17.87,11.02-29.94c0-11.8-3.57-21.16-10.72-28.09C805.91,1308.76,796.24,1305.3,784.03,1305.3z
						 M801.16,1375.37c-3.8,3.63-8.46,5.45-13.97,5.45c-9.19,0-16.58-3.74-22.15-11.22c-5.39-7.06-8.07-16.12-8.07-27.17
						c0-11.66,2.62-20.23,7.87-25.72c4.14-4.33,9.58-6.48,16.35-6.48c8.26,0,15.09,3.33,20.47,9.98c5.58,7,8.36,16.12,8.36,27.37
						C810.01,1360.55,807.07,1369.81,801.16,1375.37z"/>
					<path class="st0" d="M893.59,1306.74c-1.57,0-4.01,0.05-7.33,0.15c-3.32,0.1-5.62,0.15-6.94,0.15c-0.72,0-2.77-0.05-6.16-0.15
						c-3.37-0.1-6.05-0.15-8.02-0.15c-1.45,0-2.16,0.3-2.16,0.92c0,0.62,0.55,0.92,1.67,0.92c1.64,0,2.92,0.1,3.84,0.31
						c2.62,0.62,4.03,2.57,4.23,5.87c0.13,2.26,0.2,9.53,0.2,21.81v18.11c0,11.93-0.17,19.24-0.5,21.91
						c-0.39,3.43-1.34,5.32-2.85,5.66c-0.99,0.07-1.97,0.17-2.95,0.31c-1.45,0.14-2.16,0.45-2.16,0.92c0,0.69,0.65,1.03,1.96,1.03
						c1.44,0,3.73-0.05,6.84-0.15s4.97-0.15,5.56-0.15c0.52,0,2.57,0.05,6.16,0.15c3.57,0.1,6.61,0.15,9.1,0.15
						c1.25,0,1.87-0.34,1.87-1.03c0-0.54-0.52-0.82-1.57-0.82c-1.45,0-3.12-0.13-5.02-0.41c-2.16-0.34-3.44-2.19-3.83-5.56
						c-0.33-3.02-0.5-10.36-0.5-22.02v-41.16c0-1.1,0.3-1.76,0.93-2c0.62-0.25,1.85-0.36,3.69-0.36c3.75,0,7.02,1.33,9.85,4.01
						c3.87,3.63,5.8,8.78,5.8,15.43c0,4.87-1.51,9.02-4.53,12.45c-2.69,3.02-5.58,4.53-8.66,4.53c-1.83,0-2.75,0.38-2.75,1.13
						c0,0.48,0.4,0.79,1.18,0.92c0.33,0.07,1.02,0.1,2.07,0.1c7.02,0,12.81-2.34,17.38-7c4.56-4.67,6.84-10.64,6.84-17.91
						c0-4.94-1.65-9.02-4.93-12.24C907.96,1308.69,901.86,1306.74,893.59,1306.74z"/>
					<path class="st0" d="M1003.94,1368.89c-0.52,0-0.89,0.51-1.08,1.54c-0.66,3.97-2.14,6.51-4.45,7.61
						c-1.72,0.83-4.8,1.24-9.28,1.24c-4.95,0-8.12-0.53-9.54-1.59c-1.42-1.07-2.19-3.41-2.32-7.05v-24.08
						c0-0.69,0.19-1.03,0.59-1.03c7.51,0,12.19,0.1,14.03,0.31c3.16,0.34,5.01,1.68,5.54,4.01c0.27,1.64,0.4,2.82,0.4,3.55
						c0,0.72,0.3,1.08,0.89,1.08c0.59,0,0.89-0.65,0.89-1.95c0-0.69,0.13-2.98,0.4-6.89c0.13-2.06,0.3-3.87,0.5-5.45
						c0.19-1.31,0.3-1.99,0.3-2.06c0-0.55-0.23-0.82-0.7-0.82c-0.27,0-0.79,0.45-1.58,1.33c-0.46,0.55-1.18,0.96-2.17,1.24
						c-0.59,0.13-1.45,0.24-2.57,0.31c-1.52,0.13-6.79,0.2-15.81,0.2c-0.46,0-0.69-0.37-0.69-1.12v-26.03
						c0-0.69,0.23-1.03,0.69-1.03c7.12,0,11.79,0.13,14.03,0.41c3.62,0.48,5.83,1.72,6.62,3.71c0.2,0.54,0.32,1.16,0.39,1.85
						c0.07,0.69,0.15,1.4,0.25,2.16c0.1,0.75,0.38,1.12,0.84,1.12c0.53,0,0.86-0.37,0.99-1.12c0.27-2.68,0.45-4.95,0.54-6.8
						c0.1-1.85,0.25-3.46,0.45-4.83c0.19-1.17,0.3-1.78,0.3-1.86c0-0.61-0.2-0.92-0.59-0.92c0.07,0-0.46,0.14-1.57,0.41
						c-1.12,0.28-2.53,0.49-4.23,0.62c-0.86,0.07-9.06,0.1-24.61,0.1c-0.72,0-2.77-0.05-6.16-0.15c-3.37-0.1-6.05-0.15-8.02-0.15
						c-1.45,0-2.16,0.3-2.16,0.92c0,0.62,0.55,0.92,1.67,0.92c1.64,0,2.92,0.1,3.84,0.31c2.62,0.62,4.03,2.57,4.23,5.87
						c0.13,2.26,0.2,9.53,0.2,21.81v18.11c0,11.93-0.17,19.24-0.5,21.91c-0.39,3.43-1.34,5.32-2.85,5.66
						c-0.99,0.07-1.97,0.17-2.95,0.31c-1.45,0.14-2.16,0.45-2.16,0.92c0,0.69,0.65,1.03,1.96,1.03c1.44,0,3.73-0.05,6.84-0.15
						s4.97-0.15,5.56-0.15c1.18,0,4.59,0.1,10.24,0.3c5.64,0.21,11.32,0.31,17.03,0.31c2.03,0,3.35-0.14,3.94-0.41
						c0.59-0.28,1.05-1.03,1.38-2.27c0.85-3.43,1.28-7.23,1.28-11.42C1004.73,1369.5,1004.46,1368.89,1003.94,1368.89z"/>
					<path class="st0" d="M1120.78,1382.56c-0.72-0.07-1.48-0.13-2.26-0.2c-3.75-0.75-7.42-3.09-11.03-7
						c-2.56-2.75-5.75-6.62-9.55-11.63c-0.72-0.82-4.66-5.97-11.81-15.43c8.66-7.34,12.99-15.02,12.99-23.05
						c0-3.16-0.78-6.11-2.36-8.85c-1.25-2.33-2.69-4.08-4.33-5.24c-4.14-2.95-10.17-4.42-18.11-4.42c-0.99,0-3.27,0.05-6.84,0.15
						c-3.57,0.1-5.92,0.15-7.03,0.15c-0.4,0-2.24-0.05-5.52-0.15s-5.94-0.15-7.97-0.15c-1.45,0-2.16,0.3-2.16,0.92
						c0,0.62,0.55,0.92,1.67,0.92c1.64,0,2.92,0.1,3.84,0.31c2.62,0.62,4.03,2.57,4.23,5.87c0.13,2.26,0.2,9.53,0.2,21.81v18.11
						c0,11.93-0.17,19.24-0.5,21.91c-0.39,3.43-1.34,5.32-2.85,5.66c-0.99,0.07-1.97,0.17-2.95,0.31c-1.45,0.14-2.16,0.45-2.16,0.92
						c0,0.69,0.65,1.03,1.96,1.03c1.51,0,3.77-0.05,6.8-0.15c3.01-0.1,4.76-0.15,5.21-0.15c0.13,0,2.02,0.05,5.66,0.15
						c3.64,0.1,6.58,0.15,8.81,0.15c1.32,0,1.97-0.34,1.97-1.03c0-0.54-0.4-0.82-1.18-0.82c-1.25,0-2.86-0.13-4.82-0.41
						c-2.17-0.28-3.45-2.14-3.84-5.62c-0.33-2.99-0.5-10.28-0.5-21.87v-1.43c0-0.54,0.27-0.82,0.79-0.82h8.56
						c0.79,0,1.38,0.25,1.77,0.72c3.68,5.28,6.93,10.02,9.75,14.19c5.77,8.3,10.27,13.34,13.48,15.13c2.3,1.31,5.81,1.95,10.53,1.95
						h9.35c1.25,0,1.88-0.34,1.88-1.03C1122.45,1383.01,1121.89,1382.71,1120.78,1382.56z M1074.71,1347.58
						c-3.15,0-5.64-0.34-7.48-1.03c-0.59-0.2-0.89-0.82-0.89-1.85v-31.28c0-0.61,0.16-1.03,0.5-1.23c0.59-0.41,2.46-0.62,5.61-0.62
						c3.67,0,6.92,1.31,9.74,3.91c3.55,3.43,5.32,8.41,5.32,14.92c0,7.35-1.94,12.49-5.81,15.44
						C1080.19,1347,1077.86,1347.58,1074.71,1347.58z"/>
					<path class="st0" d="M1207.7,1306.12c0.2,0-0.69,0.15-2.65,0.46c-1.97,0.31-4.23,0.47-6.8,0.47h-38.98
						c-3.01,0-6.29-0.17-9.84-0.51c-0.92-0.07-1.81-0.29-2.66-0.67c-0.86-0.38-1.38-0.56-1.57-0.56c-0.47,0-0.86,0.65-1.18,1.95
						c-1.38,6.03-2.07,9.98-2.07,11.83c0,1.1,0.3,1.65,0.89,1.65c0.52,0,0.89-0.41,1.08-1.24c0.27-1.1,0.82-2.3,1.68-3.6
						c1.18-1.85,4.37-2.84,9.55-2.98l14.66-0.41v42.19c0,11.59-0.16,18.9-0.49,21.91c-0.39,3.43-1.34,5.32-2.86,5.66
						c-0.98,0.07-1.96,0.17-2.95,0.31c-1.45,0.14-2.17,0.45-2.17,0.92c0,0.69,0.66,1.03,1.97,1.03c1.44,0,3.73-0.05,6.84-0.15
						c3.12-0.1,4.97-0.15,5.56-0.15c0.59,0,2.69,0.05,6.3,0.15s6.66,0.15,9.15,0.15c1.25,0,1.88-0.34,1.88-1.03
						c0-0.54-0.52-0.82-1.58-0.82c-1.44,0-3.12-0.13-5.01-0.41c-2.16-0.34-3.45-2.19-3.84-5.56c-0.33-3.02-0.5-10.36-0.5-22.02
						v-42.19l12.41,0.31c7.42,0.2,11.29,2.13,11.61,5.76l0.1,1.13c0.12,1.37,0.49,2.06,1.08,2.06c0.46,0,0.72-0.51,0.79-1.53
						c0.07-1.02,0.14-3.1,0.25-6.23c0.1-3.14,0.14-5.04,0.14-5.73C1208.49,1306.83,1208.22,1306.12,1207.7,1306.12z"/>
					<path class="st0" d="M1275.63,1382.67c-1.43,0-3.09-0.13-4.98-0.41c-2.34-0.34-3.64-2.02-3.9-5.04
						c-0.27-2.75-0.39-10.26-0.39-22.53v-18.11c0-12.28,0.06-19.55,0.19-21.81c0.19-3.5,1.39-5.46,3.6-5.87
						c1.1-0.2,2.12-0.31,3.06-0.31c0.94,0,1.41-0.34,1.41-1.03c0-0.55-0.69-0.82-2.07-0.82c-1.37,0-3.55,0.05-6.49,0.15
						c-2.95,0.1-4.79,0.15-5.52,0.15c-0.85,0-2.87-0.05-6.05-0.15s-5.43-0.15-6.74-0.15c-1.58,0-2.36,0.27-2.36,0.82
						c0,0.69,0.57,1.03,1.73,1.03c1.14,0,2.28,0.13,3.39,0.41c2.03,0.55,3.15,2.47,3.35,5.77c0.13,2.26,0.2,9.53,0.2,21.81v18.11
						c0,11.93-0.17,19.43-0.5,22.49c-0.33,3.05-1.28,4.75-2.85,5.09c-0.99,0.07-1.97,0.17-2.95,0.31c-1.45,0.14-2.16,0.45-2.16,0.92
						c0,0.69,0.65,1.03,1.96,1.03c1.44,0,3.73-0.05,6.84-0.15c3.12-0.1,4.97-0.15,5.56-0.15s2.68,0.05,6.25,0.15
						c3.57,0.1,6.62,0.15,9.1,0.15c1.25,0,1.88-0.34,1.88-1.03C1277.19,1382.95,1276.67,1382.67,1275.63,1382.67z"/>
					<path class="st0" d="M1365.09,1368.89c-0.52,0-0.89,0.51-1.08,1.54c-0.66,3.97-2.14,6.51-4.45,7.61
						c-1.72,0.83-4.8,1.24-9.28,1.24c-4.95,0-8.12-0.53-9.54-1.59c-1.42-1.07-2.19-3.41-2.32-7.05v-24.08
						c0-0.69,0.19-1.03,0.59-1.03c7.51,0,12.19,0.1,14.03,0.31c3.16,0.34,5.01,1.68,5.54,4.01c0.27,1.64,0.4,2.82,0.4,3.55
						c0,0.72,0.3,1.08,0.89,1.08s0.89-0.65,0.89-1.95c0-0.69,0.13-2.98,0.4-6.89c0.13-2.06,0.3-3.87,0.5-5.45
						c0.19-1.31,0.3-1.99,0.3-2.06c0-0.55-0.23-0.82-0.7-0.82c-0.27,0-0.79,0.45-1.58,1.33c-0.46,0.55-1.18,0.96-2.17,1.24
						c-0.59,0.13-1.45,0.24-2.57,0.31c-1.52,0.13-6.79,0.2-15.81,0.2c-0.46,0-0.69-0.37-0.69-1.12v-26.03
						c0-0.69,0.23-1.03,0.69-1.03c7.12,0,11.79,0.13,14.03,0.41c3.62,0.48,5.83,1.72,6.62,3.71c0.2,0.54,0.32,1.16,0.39,1.85
						c0.07,0.69,0.15,1.4,0.25,2.16c0.1,0.75,0.38,1.12,0.84,1.12c0.53,0,0.86-0.37,0.99-1.12c0.27-2.68,0.45-4.95,0.54-6.8
						c0.1-1.85,0.25-3.46,0.45-4.83c0.19-1.17,0.3-1.78,0.3-1.86c0-0.61-0.2-0.92-0.59-0.92c0.07,0-0.46,0.14-1.57,0.41
						c-1.12,0.28-2.53,0.49-4.23,0.62c-0.86,0.07-9.06,0.1-24.61,0.1c-0.72,0-2.77-0.05-6.16-0.15c-3.37-0.1-6.05-0.15-8.02-0.15
						c-1.45,0-2.16,0.3-2.16,0.92c0,0.62,0.55,0.92,1.67,0.92c1.64,0,2.92,0.1,3.84,0.31c2.62,0.62,4.03,2.57,4.23,5.87
						c0.13,2.26,0.2,9.53,0.2,21.81v18.11c0,11.93-0.17,19.24-0.5,21.91c-0.39,3.43-1.34,5.32-2.85,5.66
						c-0.99,0.07-1.97,0.17-2.95,0.31c-1.45,0.14-2.16,0.45-2.16,0.92c0,0.69,0.65,1.03,1.96,1.03c1.44,0,3.73-0.05,6.84-0.15
						c3.12-0.1,4.97-0.15,5.56-0.15c1.18,0,4.59,0.1,10.24,0.3c5.64,0.21,11.32,0.31,17.03,0.31c2.03,0,3.35-0.14,3.94-0.41
						c0.59-0.28,1.05-1.03,1.38-2.27c0.85-3.43,1.28-7.23,1.28-11.42C1365.89,1369.5,1365.62,1368.89,1365.09,1368.89z"/>
					<path class="st0" d="M1446.11,1350.52c-2.43-3.95-6.6-8.25-12.5-12.92l-2.76-2.16c-4-3.16-6.74-5.81-8.22-7.97
						c-1.48-2.16-2.21-4.44-2.21-6.84c0-3.16,1.05-5.71,3.15-7.66c2.1-1.95,4.96-2.94,8.57-2.94c4.58,0,8.17,1.68,10.72,5.04
						c1.71,2.26,2.56,4.53,2.56,6.79c0,1.24,0.32,1.86,0.98,1.86c0.72,0,1.09-1.03,1.09-3.09c0-3.22,0.06-6.12,0.19-8.69
						c0.13-2.57,0.2-3.79,0.2-3.65c0-0.55-0.46-0.96-1.38-1.24c-4.46-1.16-8.83-1.74-13.09-1.74c-6.76,0-12.24,1.81-16.44,5.45
						c-4.19,3.63-6.3,8.29-6.3,13.99c0,8.3,4.86,16.42,14.57,24.38l4.53,3.71c6.42,5.28,9.65,10.77,9.65,16.46
						c0,3.02-1.09,5.65-3.25,7.92c-2.5,2.54-5.8,3.8-9.94,3.8c-7.42,0-12.11-3.46-14.08-10.39c-0.59-2.06-0.89-3.8-0.89-5.24
						c0-1.17-0.32-1.75-0.98-1.75s-1.05,0.9-1.18,2.68c-0.32,5.28-0.5,9.77-0.5,13.48c0,1.78,0.63,2.95,1.88,3.5
						c3.87,1.78,8.65,2.68,14.36,2.68c6.3,0,11.52-1.41,15.65-4.22c6.17-4.18,9.26-10.15,9.26-17.9
						C1449.75,1358.91,1448.54,1354.46,1446.11,1350.52z"/>
				</g>
			</g>
			<g>
				<rect x="1502.86" y="1341.69" class="st1" width="277.82" height="7.88"/>
				<rect x="219.33" y="1341.69" class="st1" width="277.82" height="7.88"/>
			</g>
		</g>
	</g>
</g>
</svg>
