<svg id="Layer_1" data-name="Layer 1" xmlns="http://www.w3.org/2000/svg" xmlns:xlink="http://www.w3.org/1999/xlink" viewBox="0 0 1250 988.08"><defs><style>.cls-1{fill:#34414a;}.cls-2{fill:url(#linear-gradient);}.cls-3{fill:url(#linear-gradient-2);}.cls-4{fill:#132849;opacity:0.1;}.cls-5{fill:url(#linear-gradient-3);}</style><linearGradient id="linear-gradient" x1="623.3" y1="114.28" x2="623.3" y2="764.5" gradientUnits="userSpaceOnUse"><stop offset="0" stop-color="#fcb913"/><stop offset="0.99" stop-color="#f48120"/></linearGradient><linearGradient id="linear-gradient-2" x1="1005.74" y1="1230.56" x2="1005.74" y2="1412.79" xlink:href="#linear-gradient"/><linearGradient id="linear-gradient-3" x1="874.26" y1="1427.68" x2="874.26" y2="1495.49" xlink:href="#linear-gradient"/></defs><path class="cls-1" d="M786.83,788.4v243.83l55.28,31.93,32.39,18.73V737.74l-32.39,18.73Zm55.28,239.54-24-13.76V806.45l24-13.88Z" transform="translate(-374.64 -505.64)"/><path class="cls-1" d="M1153.87,756.47l-32.5-18.73v345.15l32.5-18.73,55.29-31.93V788.4Zm24,257.71-24,13.88V792.57l24,13.88Z" transform="translate(-374.64 -505.64)"/><polygon class="cls-2" points="676.78 191.7 676.78 227.81 676.78 581.54 639.54 602.98 639.54 206.37 639.54 170.15 639.54 0 607.05 0 607.05 170.26 607.05 206.37 607.05 602.98 569.82 581.43 569.82 227.81 569.82 191.7 569.82 97.6 537.32 117.35 537.32 210.55 537.32 246.65 537.32 562.7 537.32 598.8 569.82 617.53 607.05 639.08 623.3 648.45 639.54 639.08 676.78 617.64 709.27 598.8 709.27 562.81 709.27 246.54 709.27 210.43 709.27 115.88 676.78 96.13 676.78 191.7"/><path class="cls-3" d="M395.38,1382.21V1232.79H420.6v125.48h68.18v23.94Zm150.9-149.42H571.5v149.42H546.28Zm162,149.42H642.9V1232.79H701q15.16,0,26.19,3.64t16.35,9.83q10.24,11.54,10.26,26.08,0,17.52-11.12,26.07a48,48,0,0,1-5.55,3.74c-1,.51-2.79,1.33-5.35,2.46q13.89,3,22.12,12.51t8.23,23.62a40.15,40.15,0,0,1-10.69,27.57Q738.87,1382.22,708.31,1382.21Zm-40.19-87.43h32.07q27.36,0,27.36-18.6,0-10.68-6.63-15.39t-20.52-4.7H668.12Zm0,64.13h39.55q13.89,0,21.27-4.38t7.37-16.57q0-19.89-31.85-19.88H668.12Zm260.57-126.12v23.73H849v39.55h71.6v22.44H849v40h82.29v23.73H823.73V1232.79Zm184,48.52q0,37-32.27,46.6l39.11,54.3H1087.5L1051.81,1332h-33.13v50.23H993.45V1232.79H1049q34.2,0,49,11.54T1112.72,1281.31Zm-33.55,21.16q7.68-6.62,7.69-21.26t-7.91-20.1q-7.9-5.44-28.21-5.44h-32.06v53.43h31.41Q1071.46,1309.1,1079.17,1302.47Zm154.11-46.59v126.33h-25.22V1255.88h-45.32v-23.09H1278.6v23.09Zm112,92.34-15,34h-26.93l65.84-149.42h26.93L1462,1382.21h-26.93l-15-34Zm64.56-23.3-27.15-61.56-27.15,61.56Zm148-72.46q-11,0-18.07,4.49t-7,13.57q0,9.09,7,13.89t30,10.37q23,5.57,34.64,15.6T1616.1,1340q0,19.56-14.75,31.74t-38.69,12.18q-35.06,0-62.2-24.15l15.81-19q22.67,19.66,47,19.66,12.18,0,19.35-5.23a16.41,16.41,0,0,0,7.16-13.9,15.6,15.6,0,0,0-6.73-13.46q-6.75-4.82-23.19-8.77a207,207,0,0,1-25-7.27,56.73,56.73,0,0,1-15.17-8.65q-13.26-10-13.26-30.78t15.08-32q15.06-11.22,37.3-11.22a89.59,89.59,0,0,1,28.43,4.7,74.44,74.44,0,0,1,24.36,13.26l-13.47,19q-6.63-6-18-9.84A69.32,69.32,0,0,0,1557.86,1252.46Z" transform="translate(-374.64 -505.64)"/><rect class="cls-1" x="881.64" y="946.1" width="368.36" height="2.99"/><rect class="cls-1" y="946.1" width="368.36" height="2.99"/><ellipse class="cls-4" cx="623.92" cy="661.36" rx="172.57" ry="8.63"/><polygon class="cls-1" points="429.78 926.52 429.78 933.95 404.84 933.95 404.84 946.31 427.25 946.31 427.25 953.33 404.84 953.33 404.84 965.83 430.58 965.83 430.58 973.25 396.95 973.25 396.95 926.52 429.78 926.52"/><path class="cls-1" d="M927.41,1468.2a12,12,0,0,0,17.37,0Q948,1464.45,948,1458v-25.88h7.89v26.21q0,10.1-5.54,15.54t-14.24,5.45q-8.69,0-14.25-5.45t-5.54-15.54v-26.21h7.89V1458Q924.2,1464.45,927.41,1468.2Z" transform="translate(-374.64 -505.64)"/><rect class="cls-1" x="616.34" y="926.52" width="7.89" height="46.73"/><polygon class="cls-1" points="677.57 933.74 677.57 973.25 669.68 973.25 669.68 933.74 655.51 933.74 655.51 926.52 691.74 926.52 691.74 933.74 677.57 933.74"/><rect class="cls-1" x="723.02" y="926.52" width="7.89" height="46.73"/><polygon class="cls-1" points="799.43 926.52 799.43 933.95 774.49 933.95 774.49 946.31 796.89 946.31 796.89 953.33 774.49 953.33 774.49 965.83 800.23 965.83 800.23 973.25 766.6 973.25 766.6 926.52 799.43 926.52"/><path class="cls-1" d="M1221.83,1438.31a10.29,10.29,0,0,0-5.65,1.41A4.67,4.67,0,0,0,1214,1444a4.92,4.92,0,0,0,2.21,4.34q2.19,1.5,9.38,3.24t10.84,4.88q3.63,3.15,3.64,9.26a12.26,12.26,0,0,1-4.61,9.92c-3.08,2.55-7.11,3.81-12.1,3.81a28.37,28.37,0,0,1-19.45-7.55l4.95-5.95q7.07,6.15,14.7,6.15a10,10,0,0,0,6-1.64,5.12,5.12,0,0,0,2.23-4.34,4.85,4.85,0,0,0-2.1-4.21c-1.4-1-3.81-1.92-7.25-2.74a65,65,0,0,1-7.83-2.28,17.66,17.66,0,0,1-4.73-2.7q-4.15-3.15-4.15-9.63a11.72,11.72,0,0,1,4.71-10,19,19,0,0,1,11.67-3.51,28,28,0,0,1,8.89,1.47,23.14,23.14,0,0,1,7.61,4.14l-4.21,5.95a15.71,15.71,0,0,0-5.62-3.07A21.58,21.58,0,0,0,1221.83,1438.31Z" transform="translate(-374.64 -505.64)"/><path class="cls-5" d="M919.21,1484.24a4.31,4.31,0,0,0-1.57.43c-9.73,3.73-21.52,2.33-36.06-5.12l-9.9-5.08a28,28,0,0,0,5-5.78,25.88,25.88,0,0,0,4.18-14.25c0-7.64-2.52-13.83-7.5-18.39s-11.44-6.79-19.3-6.79c-8.78,0-15.77,3-20.81,8.77a25.35,25.35,0,0,0-6.3,16.91,26.29,26.29,0,0,0,6.23,17.58c4.9,5.79,11.86,8.72,20.7,8.72a30.1,30.1,0,0,0,9.52-1.43l9,5.27a73.27,73.27,0,0,0,13.76,6.58,41.94,41.94,0,0,0,13.28,2.06,47,47,0,0,0,20.4-4.83,2.62,2.62,0,0,0,1.7-2.32A2.26,2.26,0,0,0,919.21,1484.24ZM864,1471.75a10.74,10.74,0,0,1-7.79,2.85,15.15,15.15,0,0,1-11.85-5.34c-3.47-3.89-5.23-9.19-5.23-15.74,0-6.24,1.4-10.92,4.16-13.94a12.05,12.05,0,0,1,9.39-3.81,14.2,14.2,0,0,1,10.81,4.86c3.45,3.76,5.2,9,5.2,15.48C868.68,1463.52,867.1,1468.78,864,1471.75Z" transform="translate(-374.64 -505.64)"/></svg>