<svg id="Layer_1" data-name="Layer 1" xmlns="http://www.w3.org/2000/svg" xmlns:xlink="http://www.w3.org/1999/xlink" viewBox="0 0 1398.2 530.29"><defs><style>.cls-1{fill:#34414a;}.cls-2{fill:url(#linear-gradient);}.cls-3{fill:#132849;opacity:0.1;}.cls-4{fill:url(#linear-gradient-2);}.cls-5{fill:url(#linear-gradient-3);}</style><linearGradient id="linear-gradient" x1="167.09" y1="90.45" x2="167.09" y2="605.09" gradientUnits="userSpaceOnUse"><stop offset="0" stop-color="#fcb913"/><stop offset="0.99" stop-color="#f48120"/></linearGradient><linearGradient id="linear-gradient-2" x1="1209.26" y1="983.45" x2="1209.26" y2="1127.68" xlink:href="#linear-gradient"/><linearGradient id="linear-gradient-3" x1="1105.19" y1="1139.47" x2="1105.19" y2="1193.14" xlink:href="#linear-gradient"/></defs><path class="cls-1" d="M300.9,958.65v193l43.76,25.27,25.63,14.83V918.56l-25.63,14.82Zm43.76,189.6-19-10.9V972.94l19-11Z" transform="translate(-300.9 -734.86)"/><path class="cls-1" d="M591.41,933.38l-25.72-14.82v273.18l25.72-14.83,43.76-25.27v-193Zm19,204-19,11V962l19,11Z" transform="translate(-300.9 -734.86)"/><polygon class="cls-2" points="209.42 151.73 209.42 180.31 209.42 460.28 179.95 477.24 179.95 163.34 179.95 134.67 179.95 0 154.23 0 154.23 134.76 154.23 163.34 154.23 477.24 124.76 460.19 124.76 180.31 124.76 151.73 124.76 77.25 99.04 92.88 99.04 166.64 99.04 195.22 99.04 445.36 99.04 473.94 124.76 488.76 154.23 505.82 167.09 513.23 179.95 505.82 209.42 488.85 235.14 473.94 235.14 445.45 235.14 195.13 235.14 166.55 235.14 91.72 209.42 76.09 209.42 151.73"/><ellipse class="cls-3" cx="167.58" cy="523.46" rx="136.58" ry="6.83"/><path class="cls-4" d="M726.17,1103.48V985.22h20v99.31h54v19ZM845.6,985.22h20v118.26h-20Zm128.25,118.26H922.08V985.22h46a66.38,66.38,0,0,1,20.73,2.88q8.7,2.86,12.94,7.78a30.26,30.26,0,0,1,8.12,20.64q0,13.88-8.8,20.64a40.15,40.15,0,0,1-4.39,3q-1.2.59-4.23,1.94,11,2.37,17.5,9.9t6.52,18.69a31.81,31.81,0,0,1-8.46,21.83Q998,1103.47,973.85,1103.48ZM942,1034.28h25.38q21.65,0,21.65-14.72,0-8.46-5.25-12.18t-16.24-3.72H942Zm0,50.76h31.3q11,0,16.83-3.47t5.84-13.11q0-15.75-25.21-15.74H942Zm206.23-99.82V1004h-63.11v31.3h56.67v17.76h-56.67v31.64h65.13v18.78H1065.2V985.22Zm145.66,38.4q0,29.28-25.54,36.88l31,43H1274l-28.25-39.76H1219.5v39.76h-20V985.22h44q27.08,0,38.75,9.13T1293.93,1023.62Zm-26.56,16.75q6.09-5.23,6.09-16.83t-6.26-15.9q-6.26-4.32-22.33-4.32H1219.5v42.3h24.86Q1261.28,1045.62,1267.37,1040.37Zm122-36.88v100h-20v-100h-35.87V985.22h91.7v18.27Zm88.65,73.09-11.84,26.9h-21.32L1497,985.22h21.31l52.11,118.26h-21.31l-11.84-26.9Zm51.1-18.44-21.49-48.73-21.49,48.73Zm117.15-57.36c-5.82,0-10.58,1.19-14.31,3.56s-5.58,5.95-5.58,10.74a12.52,12.52,0,0,0,5.58,11q5.6,3.8,23.78,8.2t27.41,12.35q9.21,7.95,9.22,23.43t-11.68,25.13q-11.67,9.63-30.62,9.64-27.75,0-49.23-19.12l12.51-15.06q17.94,15.57,37.22,15.57,9.65,0,15.32-4.15a13,13,0,0,0,5.67-11,12.36,12.36,0,0,0-5.33-10.66q-5.34-3.81-18.36-6.94a163.94,163.94,0,0,1-19.8-5.75,44.76,44.76,0,0,1-12-6.85q-10.5-8-10.5-24.36t11.93-25.29q11.93-8.9,29.53-8.89a71.12,71.12,0,0,1,22.5,3.72,59,59,0,0,1,19.28,10.5l-10.66,15.05a40.43,40.43,0,0,0-14.21-7.78A54.75,54.75,0,0,0,1646.25,1000.78Z" transform="translate(-300.9 -734.86)"/><rect class="cls-1" x="1106.65" y="423.66" width="291.55" height="2.36"/><rect class="cls-1" x="408.85" y="423.66" width="291.55" height="2.36"/><polygon class="cls-1" points="749.01 408.16 749.01 414.03 729.28 414.03 729.28 423.82 747.01 423.82 747.01 429.38 729.28 429.38 729.28 439.27 749.65 439.27 749.65 445.14 723.03 445.14 723.03 408.16 749.01 408.16"/><path class="cls-1" d="M1147.26,1171.54a9.46,9.46,0,0,0,13.75,0,12,12,0,0,0,2.54-8V1143h6.24v20.74c0,5.33-1.46,9.42-4.38,12.3a16.9,16.9,0,0,1-22.55,0c-2.92-2.88-4.38-7-4.38-12.3V1143h6.24v20.48A12,12,0,0,0,1147.26,1171.54Z" transform="translate(-300.9 -734.86)"/><rect class="cls-1" x="896.67" y="408.16" width="6.24" height="36.98"/><polygon class="cls-1" points="945.13 413.87 945.13 445.14 938.89 445.14 938.89 413.87 927.67 413.87 927.67 408.16 956.35 408.16 956.35 413.87 945.13 413.87"/><rect class="cls-1" x="981.11" y="408.16" width="6.24" height="36.98"/><polygon class="cls-1" points="1041.58 408.16 1041.58 414.03 1021.85 414.03 1021.85 423.82 1039.58 423.82 1039.58 429.38 1021.85 429.38 1021.85 439.27 1042.22 439.27 1042.22 445.14 1015.6 445.14 1015.6 408.16 1041.58 408.16"/><path class="cls-1" d="M1380.29,1147.88a8.11,8.11,0,0,0-4.48,1.12,3.7,3.7,0,0,0-1.74,3.36,3.88,3.88,0,0,0,1.74,3.43c1.16.8,3.64,1.65,7.43,2.57s6.66,2.2,8.58,3.86,2.88,4.11,2.88,7.33a9.72,9.72,0,0,1-3.65,7.86,14.55,14.55,0,0,1-9.58,3,22.45,22.45,0,0,1-15.39-6l3.92-4.7q5.6,4.86,11.63,4.86a8,8,0,0,0,4.79-1.29,4.07,4.07,0,0,0,1.77-3.44,3.86,3.86,0,0,0-1.67-3.34,17.53,17.53,0,0,0-5.74-2.16,52.68,52.68,0,0,1-6.19-1.8,14.19,14.19,0,0,1-3.75-2.14q-3.28-2.49-3.28-7.62a9.25,9.25,0,0,1,3.73-7.91,15,15,0,0,1,9.23-2.78,22.29,22.29,0,0,1,7,1.16,18.53,18.53,0,0,1,6,3.28l-3.33,4.71a12.57,12.57,0,0,0-4.45-2.43A17,17,0,0,0,1380.29,1147.88Z" transform="translate(-300.9 -734.86)"/><path class="cls-5" d="M1140.77,1184.24a3.41,3.41,0,0,0-1.24.34c-7.7,3-17,1.84-28.54-4.06l-7.84-4a22.77,22.77,0,0,0,4-4.58,20.58,20.58,0,0,0,3.3-11.28c0-6.05-2-11-5.94-14.56s-9-5.37-15.27-5.37c-7,0-12.49,2.33-16.47,6.94a20.07,20.07,0,0,0-5,13.39,20.8,20.8,0,0,0,4.93,13.91c3.88,4.58,9.39,6.9,16.38,6.9a23.87,23.87,0,0,0,7.54-1.13l7.1,4.17a57.58,57.58,0,0,0,10.89,5.2,33,33,0,0,0,10.51,1.64,37.31,37.31,0,0,0,16.15-3.82,2.08,2.08,0,0,0,1.34-1.84A1.78,1.78,0,0,0,1140.77,1184.24Zm-43.7-9.89a8.53,8.53,0,0,1-6.17,2.25,12,12,0,0,1-9.38-4.22c-2.75-3.08-4.14-7.27-4.14-12.46,0-4.93,1.11-8.65,3.29-11a9.54,9.54,0,0,1,7.44-3,11.19,11.19,0,0,1,8.55,3.85c2.73,3,4.12,7.1,4.12,12.25C1100.78,1167.84,1099.53,1172,1097.07,1174.35Z" transform="translate(-300.9 -734.86)"/></svg>